<svg width="160" height="97" viewBox="0 0 160 97" fill="none" xmlns="http://www.w3.org/2000/svg">
<rect y="0.616455" width="160" height="96" rx="24" fill="#F1F3F5"/>
<path fill-rule="evenodd" clip-rule="evenodd" d="M63.008 51.7288L60.2171 43.3656L57.3536 51.7288H63.008ZM57.7206 37.1338H62.7038L71.4245 60.7945H65.7701L63.9207 55.4946H56.4748L54.6592 60.7945H49L57.7206 37.1338Z" fill="#1967AE"/>
<path fill-rule="evenodd" clip-rule="evenodd" d="M71.0479 48.7611C71.0479 47.3417 71.3134 45.9223 71.8591 44.5125C72.3951 43.1027 73.1821 41.8411 74.2106 40.7324C75.244 39.6189 76.5043 38.7204 77.9867 38.0323C79.4643 37.3441 81.1495 37 83.0375 37C85.2828 37 87.2288 37.4779 88.8802 38.4337C90.5316 39.3895 91.7581 40.632 92.5693 42.1661L88.3201 45.0956C88.0497 44.4743 87.7117 43.9582 87.2916 43.5472C86.8763 43.1362 86.4224 42.8017 85.9299 42.5484C85.4374 42.2951 84.9304 42.1135 84.4137 42.0179C83.897 41.9176 83.3948 41.8698 82.8975 41.8698C81.84 41.8698 80.9225 42.08 80.1355 42.5006C79.3484 42.9211 78.6965 43.4659 78.1847 44.135C77.668 44.7993 77.2817 45.5544 77.0403 46.4002C76.7892 47.2461 76.6733 48.1016 76.6733 48.9665C76.6733 49.8984 76.8181 50.8017 77.1079 51.6667C77.3976 52.5317 77.8225 53.3011 78.3682 53.9654C78.9186 54.6344 79.5802 55.1601 80.3576 55.5472C81.1302 55.9343 81.9993 56.1302 82.9651 56.1302C83.4576 56.1302 83.9646 56.0681 84.4958 55.9486C85.0221 55.8244 85.5291 55.638 86.012 55.3799C86.4949 55.1266 86.9391 54.7921 87.3447 54.3811C87.7455 53.9701 88.0738 53.4636 88.3201 52.8662L92.8301 55.4994C92.4728 56.3692 91.9368 57.1434 91.2366 57.8315C90.5268 58.5197 89.7108 59.098 88.7885 59.5663C87.8662 60.0299 86.8956 60.3883 85.8623 60.632C84.8241 60.8757 83.8198 61 82.8299 61C81.0964 61 79.5126 60.6511 78.0639 59.9486C76.6153 59.2461 75.3695 58.3238 74.3314 57.1673C73.2884 56.0155 72.4771 54.7013 71.9074 53.2342C71.3327 51.7622 71.0479 50.2712 71.0479 48.7611Z" fill="#1967AE"/>
<path fill-rule="evenodd" clip-rule="evenodd" d="M106.375 53.626C106.375 52.8948 106.157 52.2736 105.737 51.7574C105.312 51.2461 104.767 50.9928 104.115 50.9928H98.7114V56.1589H103.883C104.602 56.1589 105.196 55.9247 105.665 55.4564C106.143 54.9928 106.375 54.3811 106.375 53.626ZM98.7114 41.7981V46.6965H103.178C103.782 46.6965 104.322 46.4958 104.796 46.0944C105.264 45.6929 105.501 45.0717 105.501 44.2306C105.501 43.4516 105.293 42.8542 104.878 42.4337C104.467 42.0131 103.965 41.8028 103.381 41.8028H98.7114V41.7981ZM112 54.7252C112 55.7479 111.783 56.6368 111.358 57.3919C110.928 58.1469 110.344 58.7778 109.605 59.2748C108.866 59.7766 107.997 60.1541 107.012 60.4074C106.027 60.6607 104.984 60.7897 103.883 60.7897H93.675V37.1338H105.534C106.37 37.1338 107.118 37.3106 107.794 37.669C108.465 38.0227 109.04 38.4862 109.508 39.0502C109.977 39.6189 110.344 40.264 110.6 40.9856C110.86 41.7073 110.986 42.448 110.986 43.2031C110.986 44.3357 110.696 45.4014 110.126 46.4002C109.557 47.399 108.692 48.1541 107.553 48.6655C108.919 49.0669 110.001 49.779 110.798 50.7969C111.599 51.8148 112 53.129 112 54.7252Z" fill="#1967AE"/>
<path fill-rule="evenodd" clip-rule="evenodd" d="M87.7938 49.1003C87.7938 51.3082 85.9879 53.0955 83.757 53.0955C81.5261 53.0955 79.7202 51.3034 79.7202 49.1003C79.7202 46.8924 81.5261 45.1051 83.757 45.1051C85.9879 45.1051 87.7938 46.8924 87.7938 49.1003Z" fill="#00ADE9"/>
</svg>
