<svg width="25" height="24" viewBox="0 0 25 24" fill="none" xmlns="http://www.w3.org/2000/svg">
<rect width="25" height="24" fill="#1E1E1E"/>
<g id="U16_FAQ">
<rect width="1920" height="1280" transform="translate(-1183 -539)" fill="#F3F3F3"/>
<g id="Frame 107">
<g id="Frame 95">
<g id="Frame 103">
<rect x="-811" y="-391" width="1520" height="867" rx="36" fill="white"/>
<g id="Questions">
<g id="Header">
<g id="default/outline/add">
<g id="vuesax/outline/add">
<g id="add">
<path id="Vector" d="M18.0956 12.75H6.09558C5.68558 12.75 5.34558 12.41 5.34558 12C5.34558 11.59 5.68558 11.25 6.09558 11.25H18.0956C18.5056 11.25 18.8456 11.59 18.8456 12C18.8456 12.41 18.5056 12.75 18.0956 12.75Z" fill="#3D8AFF"/>
<path id="Vector_2" d="M12.0956 18.75C11.6856 18.75 11.3456 18.41 11.3456 18V6C11.3456 5.59 11.6856 5.25 12.0956 5.25C12.5056 5.25 12.8456 5.59 12.8456 6V18C12.8456 18.41 12.5056 18.75 12.0956 18.75Z" fill="#3D8AFF"/>
</g>
</g>
</g>
</g>
</g>
</g>
</g>
</g>
</g>
</svg>
