<svg width="746" height="282" viewBox="0 0 746 282" fill="none" xmlns="http://www.w3.org/2000/svg">
<g clip-path="url(#clip0_345_6317)">
<rect width="746" height="282" rx="36" fill="#3D8AFF"/>
<path d="M449.278 288.967V252.937L415.136 233.319V271.891L383.338 290.168V252.273L349.782 271.553L317.398 252.949V217.596C318.382 217.34 319.109 216.453 319.109 215.392C319.109 215.182 319.073 214.984 319.015 214.797L350.063 196.952L350.356 196.788V157.551L316.812 176.832L283.842 157.878L250.872 176.82L218.488 158.205V120.986L252.044 101.705L218.488 82.4253V43.8533L184.64 63.3084L184.347 63.4717V100.691L154.177 83.3467C154.224 83.1601 154.271 82.9618 154.271 82.7519C154.271 81.6905 153.544 80.804 152.56 80.5474V7.29914L185.237 -11.4795L185.53 -11.6428V-50.8796L151.681 -31.4245L151.389 -31.2612V6.6343L119.004 25.2496L87.2062 6.97255L119.297 -11.4678L119.59 -11.6311V-50.8679L85.7416 -31.4128L85.4487 -31.2495V43.865L55.279 26.521C55.3259 26.3344 55.3727 26.1361 55.3727 25.9261C55.3727 24.8647 54.6463 23.9783 53.6621 23.7217V-12.3076L21.278 -30.9229L53.0763 -49.2L53.6621 -48.8618V-49.5382L54.248 -49.8765L53.6621 -50.2148V-88.1102L22.3208 -106.119C22.3677 -106.306 22.4145 -106.504 22.4145 -106.714C22.4145 -107.974 21.3835 -109 20.1181 -109C18.8528 -109 17.8217 -107.974 17.8217 -106.714C17.8217 -105.653 18.5481 -104.766 19.5323 -104.509V-69.1567L-14 -49.8648L18.9699 -30.9229L-13.1213 -12.4826L-13.4142 -12.3193V25.5762L-14 25.9145L-13.4142 26.2527V64.1482L18.9465 82.7519L-13.1564 101.204L-13.4493 101.367V140.604L20.3993 121.149L20.6922 120.986V83.755H20.7157V45.2063L51.4595 27.5357C51.7407 27.8157 52.1039 28.0256 52.5022 28.1306V64.1599L84.8863 82.7635L52.7951 101.204L52.5022 101.367V139.274L21.7819 156.933C21.3601 156.513 20.786 156.257 20.1533 156.257C18.8879 156.257 17.8569 157.283 17.8569 158.543C17.8569 159.604 18.5833 160.491 19.5675 160.747V233.949L-13.1564 252.762L-13.4493 252.926V292.163L-13.4025 292.128V329.382L19.5675 348.323V349L20.1533 348.662L20.7391 349V348.323L53.4161 329.545L53.709 329.382V290.145L21.7936 308.492C21.3718 308.072 20.7977 307.815 20.165 307.815C19.5323 307.815 18.9465 308.072 18.5364 308.492L-11.6567 291.136L19.5792 273.186V273.221L53.1349 253.941L86.6906 273.221V234.637L119.332 215.87L119.625 215.707V179.678C120.61 179.421 121.336 178.535 121.336 177.473C121.336 176.213 120.305 175.187 119.04 175.187C117.774 175.187 116.743 176.213 116.743 177.473C116.743 177.683 116.778 177.881 116.837 178.068L85.7885 195.914L85.4956 196.077V233.284L53.7324 215.03V139.904L86.0814 121.312L119.637 140.592V102.032L150.381 84.3615C150.662 84.6414 151.025 84.8514 151.424 84.9563V120.986L182.765 138.994C182.718 139.181 182.671 139.379 182.671 139.589C182.671 139.799 182.706 139.998 182.765 140.184L151.717 158.03L151.424 158.193V233.937L120.867 251.503C120.446 250.92 119.766 250.535 118.993 250.535C117.727 250.535 116.696 251.561 116.696 252.821C116.696 253.882 117.423 254.769 118.407 255.025V292.151L151.377 273.209V310.428L185.518 330.046V290.81L153.169 272.218L184.979 253.929L215.735 271.599C215.688 271.786 215.641 271.984 215.641 272.194C215.641 273.454 216.672 274.48 217.938 274.48C219.203 274.48 220.234 273.454 220.234 272.194C220.234 271.133 219.508 270.246 218.523 269.99V196.753L250.908 178.138L282.706 196.415L250.615 214.855L250.322 215.019V252.914L249.736 253.252L250.322 253.591V290.81L217.645 309.588L217.352 309.752V348.988L251.2 329.533L251.493 329.37V292.151L283.292 310.428V311.105L283.877 310.766L317.433 330.046V293.352C317.832 293.247 318.195 293.037 318.476 292.758L349.22 310.428V348.988L382.19 330.046L416.038 310.603L416.331 310.44V273.221L446.501 290.565C446.454 290.751 446.407 290.95 446.407 291.16C446.407 292.419 447.438 293.446 448.704 293.446C449.969 293.446 451 292.419 451 291.16C451 290.098 450.274 289.212 449.289 288.955L449.278 288.967ZM86.6555 -30.5847L118.454 -48.8618V-12.3193L86.6555 5.95782V-30.5847ZM19.5323 120.321L-12.266 138.598V102.055L19.5323 83.7783V120.321ZM52.5491 292.174V328.717L20.7508 346.994V312.318C21.735 312.061 22.4614 311.175 22.4614 310.113C22.4614 309.903 22.4263 309.705 22.3677 309.518L52.5374 292.174H52.5491ZM19.5792 312.318V346.994L-12.2191 328.717V292.174L17.9506 309.518C17.9037 309.705 17.8569 309.903 17.8569 310.113C17.8569 311.175 18.5833 312.061 19.5675 312.318H19.5792ZM382.166 290.833L350.368 309.11V272.568L382.166 254.29V290.821V290.833ZM316.238 288.978C315.84 289.083 315.477 289.282 315.195 289.573L285.037 272.241L316.25 254.302V288.978H316.238ZM284.44 234.007V197.465L314.61 214.809C314.563 214.995 314.516 215.194 314.516 215.404C314.516 216.465 315.242 217.351 316.226 217.608V252.284L284.428 234.007H284.44ZM316.238 213.187C315.84 213.292 315.477 213.502 315.195 213.782L285.037 196.45L316.25 178.511V213.187H316.238ZM283.854 235.01L315.652 253.287L301.206 261.592L283.854 271.564L252.056 253.287L266.502 244.983L283.854 235.01ZM284.44 273.244L314.61 290.588C314.563 290.775 314.516 290.973 314.516 291.183C314.516 291.393 314.551 291.591 314.61 291.778L284.44 309.122V273.244ZM349.196 196.112L318.453 213.782C318.171 213.502 317.808 213.292 317.41 213.187V177.835L349.208 159.558V196.1L349.196 196.112ZM185.542 137.408V102.732L217.34 121.009V157.551L187.17 140.207C187.217 140.021 187.264 139.823 187.264 139.613C187.264 138.551 186.538 137.665 185.554 137.408H185.542ZM185.542 141.817C185.94 141.712 186.303 141.502 186.585 141.222L216.743 158.555L185.542 176.493V141.817ZM217.926 119.994L186.128 101.717L201.722 92.7594L217.926 83.4517L249.724 101.729L217.926 120.006V119.994ZM185.542 64.1599L217.34 45.8828V82.4253L185.542 100.702V64.1599ZM152.572 -30.573L184.37 -48.8501V-12.3076L152.572 5.96948V-30.573ZM151.4 44.5415L140.996 50.525L119.602 62.8185V26.2761L151.4 7.99896V44.5415ZM118.43 100.702L102.531 91.5697L86.6321 82.437V45.8945L102.531 55.0272L118.43 64.1599V100.702ZM86.6321 7.99896L118.43 26.2761V62.8185L102.531 53.6858L86.6321 44.5531V8.01064V7.99896ZM52.4905 23.7333C52.0921 23.8383 51.7289 24.0366 51.4477 24.3282L20.7039 6.65765V-29.8849L52.5022 -11.6078V23.745L52.4905 23.7333ZM52.4905 -87.4104V-50.8679L20.6922 -69.145V-104.498C21.0906 -104.603 21.4538 -104.801 21.735 -105.093L52.4788 -87.4221L52.4905 -87.4104ZM20.1064 -68.1302L51.9047 -49.8532L20.6922 -31.9144L20.1064 -31.5761L19.5206 -31.9144L-11.6567 -49.8648L20.1416 -68.1419L20.1064 -68.1302ZM-12.2425 -11.6311L19.5557 -29.9082V6.6343L-12.2425 24.9114V-11.6311ZM-12.2425 26.9409L19.5557 45.218V81.7605L-12.2425 63.4834V26.9409ZM20.1416 44.2032L-11.6567 25.9261L2.78958 17.6216L20.1416 7.64906L50.8971 25.3196C50.8502 25.5063 50.8033 25.7045 50.8033 25.9145C50.8033 26.1244 50.8385 26.3227 50.8971 26.5093L20.1416 44.1915V44.2032ZM53.6973 28.1306C54.0956 28.0256 54.4589 27.8273 54.74 27.5357L85.4838 45.2063V81.7488L53.6856 63.4717V28.1189L53.6973 28.1306ZM53.6973 102.044L85.4956 83.7666V120.309L53.6973 138.586V102.044ZM20.7625 160.747C21.7467 160.491 22.4731 159.604 22.4731 158.543C22.4731 158.333 22.438 158.135 22.3794 157.948L52.5491 140.604V177.147L20.7508 195.424V160.747H20.7625ZM52.5608 215.042L20.7625 233.319V196.777L52.5608 178.5V215.042ZM19.544 271.868L-12.2543 290.145V253.602L19.544 235.325V271.868ZM20.7625 234.66L52.5608 216.383V252.926L20.7625 271.203V234.66ZM86.6672 196.765L117.411 179.094C117.692 179.374 118.055 179.584 118.454 179.689V215.042L86.6555 233.319V196.777L86.6672 196.765ZM85.519 235.314V271.203L53.7207 252.926V216.383L85.4838 234.637V235.325H85.5073L85.519 235.314ZM118.454 138.563L86.6555 120.286V83.7433L102.555 92.876L118.454 102.009V138.551V138.563ZM119.625 100.667V64.1249L137.798 53.6858L151.424 45.8595V80.5358C150.44 80.7924 149.713 81.6788 149.713 82.7402C149.713 82.9502 149.748 83.1484 149.807 83.3351L119.637 100.679L119.625 100.667ZM152.595 120.286V84.933C152.994 84.828 153.357 84.6297 153.638 84.3382L184.382 102.009V137.362C183.984 137.466 183.62 137.665 183.339 137.956L152.595 120.286ZM152.595 158.858L183.339 141.187C183.62 141.467 183.984 141.677 184.382 141.782V177.135L183.796 177.473L152.584 195.412V158.869L152.595 158.858ZM152.595 234.637L184.394 216.36V252.902L152.595 271.18V234.637ZM184.394 215.019L152.595 233.296V196.753L184.394 178.476V215.019ZM119.579 290.121V255.025C120.563 254.769 121.289 253.882 121.289 252.821C121.289 252.751 121.277 252.681 121.266 252.611L151.365 235.314V271.856L119.567 290.133L119.579 290.121ZM184.335 328.017L152.537 309.74V273.197L184.335 291.474V328.017ZM217.352 269.99C216.953 270.095 216.59 270.293 216.309 270.585L185.565 252.914V216.372L217.364 234.649V269.99H217.352ZM185.554 215.019V178.476L217.352 196.753V233.296L185.554 215.019ZM217.938 195.739L186.139 177.461L217.926 159.184L218.512 159.523L249.724 177.461L217.926 195.739H217.938ZM283.866 159.196L315.664 177.473L284.452 195.412L283.866 195.75L283.28 195.412L252.067 177.473L283.866 159.196ZM251.482 215.707L283.28 197.43V233.972L251.482 252.249V215.707ZM250.31 328.717L218.512 346.994V310.451L250.31 292.174V328.717ZM251.482 290.821V254.279L283.28 272.556V309.098L251.482 290.821ZM285.037 310.101L315.195 292.769C315.477 293.049 315.84 293.259 316.238 293.364V328.04L285.026 310.101H285.037ZM317.421 288.943V254.267L349.22 272.544V309.087L319.05 291.743C319.097 291.556 319.144 291.358 319.144 291.148C319.144 290.086 318.417 289.2 317.433 288.943H317.421ZM350.391 346.971V310.44L382.19 292.163V328.705L350.391 346.982V346.971ZM415.148 309.763L383.35 328.04V291.498L415.148 273.221V309.763ZM416.32 271.868V235.325L448.118 253.602V288.955C447.719 289.06 447.356 289.258 447.075 289.55L416.331 271.879L416.32 271.868Z" fill="url(#paint0_linear_345_6317)"/>
<path d="M634.945 230C633.802 230 632.645 229.771 631.543 229.299C629.337 228.341 627.669 226.547 626.822 224.226C625.975 221.92 626.069 219.384 627.051 217.09L645.717 173.76C646.713 171.454 648.488 169.659 650.747 168.702C653.007 167.73 655.468 167.73 657.66 168.675C659.865 169.632 661.533 171.427 662.38 173.747C663.228 176.054 663.133 178.576 662.152 180.883L643.485 224.213C641.925 227.815 638.482 230 634.945 230ZM632.08 228.058C635.927 229.73 640.486 227.761 642.248 223.673L660.914 180.343C661.775 178.36 661.842 176.175 661.116 174.206C660.403 172.249 658.978 170.712 657.122 169.916C655.266 169.106 653.181 169.12 651.272 169.943C649.349 170.766 647.815 172.317 646.955 174.3L628.288 217.63C627.427 219.613 627.36 221.798 628.086 223.768C628.799 225.724 630.225 227.262 632.08 228.058Z" fill="white"/>
<path d="M646.645 164.817L667.531 173.868C677.738 178.293 689.815 173.045 694.509 162.132L696.284 158.018C700.977 147.118 696.526 134.693 686.318 130.269L665.433 121.217L646.645 164.803V164.817Z" fill="url(#paint1_linear_345_6317)"/>
<path fill-rule="evenodd" clip-rule="evenodd" d="M667.531 173.868L646.645 164.816V164.803L650.387 156.121C649.072 155.834 647.705 155.945 646.43 156.452C644.735 157.127 643.404 158.422 642.678 160.108L640.929 164.169C639.437 167.635 641.037 171.682 644.493 173.18L662.663 181.058C666.119 182.555 670.153 180.95 671.646 177.483L672.598 175.274C670.886 175.047 669.184 174.584 667.531 173.868Z" fill="#64A1FF"/>
<path fill-rule="evenodd" clip-rule="evenodd" d="M688.182 170.619C690.829 168.433 693.033 165.562 694.509 162.132L696.284 158.018C697.334 155.578 697.927 153.063 698.099 150.578C701.695 153.201 703.058 158.279 701.113 162.793L700.265 164.749C698.146 169.679 692.865 172.178 688.182 170.619Z" fill="white"/>
<path d="M675.103 176.121C672.427 176.121 669.778 175.581 667.263 174.489L646.377 165.437C646.215 165.369 646.081 165.235 646.014 165.073C645.946 164.911 645.946 164.722 646.014 164.56L664.802 120.974C664.949 120.637 665.339 120.475 665.689 120.623L686.575 129.675C691.685 131.887 695.559 136.096 697.509 141.506C699.445 146.915 699.23 152.878 696.89 158.301L695.115 162.415C692.775 167.852 688.592 172.101 683.347 174.381C680.671 175.541 677.874 176.134 675.103 176.134V176.121ZM647.533 164.466L667.801 173.248C672.561 175.312 677.901 175.271 682.823 173.126C687.758 170.981 691.699 166.975 693.891 161.862L695.666 157.748C697.872 152.635 698.074 147.023 696.258 141.937C694.442 136.879 690.811 132.953 686.05 130.889L665.783 122.107L647.533 164.452V164.466Z" fill="white"/>
<path d="M665.433 121.23L646.646 164.816C630.924 158.004 613.212 156.817 595.931 161.43L568.589 168.283L615.108 60.5117L628.208 86.5205C636.707 102.304 649.685 114.431 665.42 121.244L665.433 121.23Z" fill="white" fill-opacity="0.2"/>
<path d="M575.731 107.524C562.376 138.092 558.503 165.868 567.083 169.537C575.663 173.22 593.443 151.42 606.811 120.852C620.165 90.2835 624.038 62.5076 615.458 58.8383C606.878 55.1556 589.099 76.9554 575.731 107.524Z" fill="white"/>
<path d="M569.1 170.617C568.293 170.617 567.527 170.468 566.814 170.158C565.213 169.47 563.976 168.054 563.142 165.936C559.323 156.25 564.245 132.116 575.112 107.254C588.829 75.8764 606.662 54.3329 615.713 58.218C617.314 58.906 618.551 60.3225 619.385 62.4404C623.204 72.1262 618.282 96.2598 607.415 121.122C594.774 150.045 578.635 170.617 569.087 170.617H569.1ZM613.373 59.0949C604.659 59.0949 588.412 80.1798 576.349 107.794C565.617 132.359 560.695 156.061 564.393 165.437C565.092 167.204 566.088 168.377 567.338 168.917C567.903 169.16 568.508 169.281 569.154 169.281C577.869 169.281 594.115 148.196 606.178 120.582C616.91 96.017 621.832 72.3151 618.134 62.9395C617.435 61.1723 616.44 59.9987 615.189 59.4591C614.624 59.2163 614.019 59.0949 613.373 59.0949Z" fill="white"/>
<path d="M581.352 109.076C570.903 133.115 567.258 154.672 573.216 157.235C579.174 159.798 592.474 142.396 602.924 118.357C613.374 94.3178 617.018 72.7608 611.06 70.1977C605.103 67.6346 591.802 85.0367 581.352 109.076Z" fill="#64A1FF"/>
<path d="M574.48 158.165C573.942 158.165 573.431 158.071 572.96 157.855C571.911 157.397 571.104 156.466 570.553 155.09C567.769 148.048 571.965 129.014 580.747 108.806C590.188 87.1136 604.215 66.5144 611.342 69.5766C612.391 70.0353 613.198 70.9661 613.75 72.3421C616.534 79.3838 612.338 98.4182 603.556 118.626C594.76 138.875 581.957 158.165 574.493 158.165H574.48ZM581.971 109.345C573.458 128.933 569.181 147.967 571.79 154.591C572.207 155.629 572.772 156.317 573.484 156.614C573.794 156.749 574.13 156.816 574.493 156.816C579.98 156.816 591.842 142.153 602.305 118.087C610.818 98.4992 615.095 79.4648 612.486 72.8412C612.069 71.8024 611.504 71.1145 610.791 70.8177C605.869 68.6997 593.12 83.6871 581.957 109.345H581.971Z" fill="#64A1FF"/>
<mask id="mask0_345_6317" style="mask-type:luminance" maskUnits="userSpaceOnUse" x="570" y="69" width="44" height="89">
<mask id="mask1_345_6317" style="mask-type:luminance" maskUnits="userSpaceOnUse" x="570" y="69" width="44" height="89">
<path d="M581.352 109.076C570.903 133.115 567.258 154.672 573.216 157.235C579.174 159.798 592.474 142.396 602.924 118.357C613.374 94.3178 617.018 72.7608 611.06 70.1977C605.103 67.6346 591.802 85.0367 581.352 109.076Z" fill="white"/>
</mask>
<g mask="url(#mask1_345_6317)">
<path d="M574.48 158.166C573.942 158.166 573.431 158.072 572.96 157.856C571.911 157.397 571.104 156.466 570.553 155.09C567.769 148.048 571.965 129.014 580.747 108.806C590.188 87.1141 604.215 66.5149 611.342 69.5771C612.391 70.0357 613.198 70.9666 613.75 72.3425C616.534 79.3843 612.338 98.4187 603.556 118.627C594.76 138.875 581.957 158.166 574.493 158.166H574.48ZM581.971 109.346C573.458 128.933 569.181 147.968 571.79 154.591C572.207 155.63 572.772 156.318 573.484 156.615C573.794 156.75 574.13 156.817 574.493 156.817C579.98 156.817 591.842 142.153 602.305 118.087C610.818 98.4997 615.095 79.4653 612.486 72.8417C612.069 71.8029 611.504 71.1149 610.791 70.8182C605.869 68.7002 593.12 83.6876 581.957 109.346H581.971Z" fill="white"/>
</g>
</mask>
<g mask="url(#mask0_345_6317)">
<path d="M616.024 115.132L603.624 109.844C598.567 107.686 592.287 110.91 589.611 117.061C586.934 123.213 588.871 129.958 593.928 132.116L606.327 137.404L616.024 115.132Z" fill="#64A1FF"/>
<path d="M606.327 138.093C606.233 138.093 606.152 138.079 606.058 138.039L593.658 132.751C591.372 131.779 589.57 129.864 588.574 127.368C587.31 124.171 587.458 120.313 588.978 116.805C591.802 110.33 598.473 106.931 603.866 109.237L616.265 114.526C616.427 114.593 616.561 114.728 616.628 114.903C616.696 115.065 616.696 115.254 616.628 115.416L606.932 137.688C606.824 137.944 606.569 138.093 606.313 138.093H606.327ZM600.315 109.845C596.348 109.845 592.232 112.731 590.229 117.331C588.843 120.515 588.709 123.982 589.839 126.855C590.699 129.014 592.246 130.66 594.196 131.496L605.977 136.528L615.136 115.483L603.368 110.452C602.386 110.033 601.364 109.831 600.315 109.831V109.845Z" fill="#64A1FF"/>
<path d="M592.354 119.827C593.255 117.439 593.12 114.93 592.152 113.312C590.915 114.229 589.812 115.686 589.112 117.547C588.265 119.773 588.171 122.094 588.696 123.942C590.161 123.402 591.56 121.905 592.354 119.827Z" fill="#64A1FF"/>
<path d="M588.695 124.616C588.587 124.616 588.48 124.589 588.386 124.549C588.224 124.468 588.09 124.32 588.049 124.131C587.458 122.067 587.619 119.585 588.48 117.318C589.206 115.416 590.362 113.797 591.748 112.772C591.896 112.664 592.097 112.624 592.272 112.651C592.46 112.691 592.622 112.799 592.716 112.961C593.832 114.823 593.926 117.548 592.972 120.057C592.138 122.256 590.631 123.942 588.923 124.562C588.843 124.589 588.776 124.603 588.695 124.603V124.616ZM591.923 114.391C591.021 115.254 590.255 116.428 589.744 117.79C589.098 119.504 588.897 121.352 589.166 122.971C590.228 122.31 591.156 121.095 591.734 119.598C592.407 117.804 592.474 115.861 591.923 114.404V114.391Z" fill="#64A1FF"/>
</g>
<path d="M660.861 119.098L642.235 163.049L646.646 164.667L665.434 121.23L660.861 119.098Z" fill="white"/>
<path d="M646.645 165.342C646.565 165.342 646.484 165.342 646.417 165.302L642.005 163.683C641.831 163.615 641.696 163.494 641.615 163.319C641.548 163.143 641.548 162.955 641.615 162.793L660.242 118.842C660.309 118.68 660.444 118.545 660.618 118.478C660.793 118.41 660.982 118.424 661.143 118.491L665.702 120.623C666.038 120.771 666.173 121.162 666.038 121.5L647.264 164.938C647.156 165.194 646.914 165.342 646.645 165.342ZM643.135 162.658L646.282 163.818L664.546 121.567L661.21 120.002L643.135 162.658Z" fill="white"/>
<path d="M558.852 36L559.591 60.7542L564.662 56.3834L570.189 74.3386L569.234 46.6706L564.124 50.3534L558.852 36Z" fill="url(#paint2_linear_345_6317)"/>
<path d="M509.011 128.218L531.834 132.764L528.888 127.179L546.493 125.871L520.98 120.92L523.267 126.397L509.011 128.218Z" fill="url(#paint3_linear_345_6317)"/>
<path d="M556.042 98.4048C555.921 98.4048 555.813 98.3778 555.705 98.3104L530.368 83.5658L529.252 93.3325C529.225 93.5889 529.05 93.8047 528.808 93.8991C528.566 93.9801 528.297 93.9126 528.109 93.7373L500.109 65.098C499.88 64.8686 499.853 64.4909 500.041 64.2211C500.23 63.9513 500.593 63.8704 500.889 64.0188L522.097 74.8782L523.967 65.732C524.02 65.4892 524.195 65.2868 524.437 65.2194C524.679 65.1519 524.935 65.2194 525.11 65.3947L556.526 97.2446C556.768 97.4875 556.781 97.8652 556.58 98.135C556.445 98.3104 556.243 98.3913 556.042 98.3913V98.4048ZM529.817 81.7986C529.938 81.7986 530.045 81.8256 530.153 81.893L552.021 94.6141L525.029 67.2564L523.24 76.0249C523.2 76.2272 523.065 76.4026 522.877 76.497C522.689 76.5915 522.46 76.5915 522.285 76.497L503.968 67.108L528.095 91.7812L529.171 82.3922C529.198 82.1628 529.333 81.974 529.534 81.866C529.628 81.8121 529.736 81.7986 529.83 81.7986H529.817Z" fill="white"/>
</g>
<defs>
<linearGradient id="paint0_linear_345_6317" x1="218.5" y1="-109" x2="218.5" y2="288.01" gradientUnits="userSpaceOnUse">
<stop stop-color="white"/>
<stop offset="1" stop-color="white" stop-opacity="0"/>
</linearGradient>
<linearGradient id="paint1_linear_345_6317" x1="672.399" y1="121.217" x2="672.399" y2="175.438" gradientUnits="userSpaceOnUse">
<stop stop-color="white"/>
<stop offset="1" stop-color="white" stop-opacity="0"/>
</linearGradient>
<linearGradient id="paint2_linear_345_6317" x1="564.52" y1="36" x2="564.52" y2="74.3386" gradientUnits="userSpaceOnUse">
<stop stop-color="white"/>
<stop offset="1" stop-color="white" stop-opacity="0"/>
</linearGradient>
<linearGradient id="paint3_linear_345_6317" x1="527.752" y1="120.92" x2="527.752" y2="132.764" gradientUnits="userSpaceOnUse">
<stop stop-color="white"/>
<stop offset="1" stop-color="white" stop-opacity="0"/>
</linearGradient>
<clipPath id="clip0_345_6317">
<rect width="746" height="282" rx="36" fill="white"/>
</clipPath>
</defs>
</svg>
