<svg width="333" height="104" viewBox="0 0 333 104" fill="none" xmlns="http://www.w3.org/2000/svg">
<g clip-path="url(#clip0_348_32309)">
<rect width="333" height="104" rx="28" fill="#E7FAE2"/>
<g opacity="0.3">
<path d="M283.489 22.7169C259.496 29.146 245.24 53.8368 251.67 77.8304C258.099 101.824 282.789 116.079 306.783 109.65C330.777 103.221 345.032 78.5303 338.603 54.5367C332.174 30.5431 307.483 16.2878 283.489 22.7169ZM275.868 51.1276C279.389 50.1842 283.07 52.2726 284.025 55.8369C284.968 59.3577 282.88 63.0387 279.315 63.9937C275.795 64.9371 272.114 62.8486 271.159 59.2844C270.204 55.7201 272.304 52.0826 275.868 51.1276ZM285.87 86.3697C285.393 87.1964 284.648 87.7219 283.823 87.9432C282.997 88.1645 282.089 88.0815 281.263 87.6042C279.664 86.6815 279.105 84.5951 280.028 82.9968L300.87 46.8974C301.793 45.2991 303.879 44.7401 305.477 45.6628C307.076 46.5856 307.635 48.672 306.712 50.2703L285.87 86.3697ZM314.405 81.2396C310.884 82.183 307.203 80.0945 306.248 76.5303C305.304 73.0095 307.393 69.3285 310.957 68.3734C314.478 67.4301 318.159 69.5185 319.114 73.0828C320.069 76.647 317.969 80.2845 314.405 81.2396Z" fill="url(#paint0_linear_348_32309)"/>
</g>
</g>
<defs>
<linearGradient id="paint0_linear_348_32309" x1="283.489" y1="22.7169" x2="306.783" y2="109.65" gradientUnits="userSpaceOnUse">
<stop stop-color="#65BF4E"/>
<stop offset="1" stop-color="#65BF4E" stop-opacity="0"/>
</linearGradient>
<clipPath id="clip0_348_32309">
<rect width="333" height="104" rx="28" fill="white"/>
</clipPath>
</defs>
</svg>
