<svg width="24" height="24" viewBox="0 0 24 24" fill="none" xmlns="http://www.w3.org/2000/svg">
<path d="M18.5479 2H9.4521C7.5488 2 6 3.5488 6 5.4521V6H5.4521C3.5488 6 2 7.5488 2 9.4521V18.5478C2 20.4512 3.5488 22 5.4521 22H14.5478C16.2963 22 17.73 20.6882 17.9542 19H18.5478C20.4512 19 22 17.4512 22 15.5479V5.4521C22 3.5488 20.4512 2 18.5479 2ZM20.5 16C20.5 16.8007 19.3965 17.4521 18.5958 17.4521H18.0479L18 9.4521C18 7.5488 16.4512 6 14.5479 6H7.5479V5C7.5479 4.1993 8.1994 3.5 9.0001 3.5H19C19.8008 3.5 20.5 4.1993 20.5 5V16Z" fill="#3D8AFF"/>
</svg>
