<svg width="24" height="24" viewBox="0 0 24 24" fill="none" xmlns="http://www.w3.org/2000/svg">
<path d="M14.8019 22.0001H9.21559C4.16002 22.0001 2 19.8401 2 14.7845V9.19826C2 4.14269 4.16002 1.98267 9.21559 1.98267H11.0777C11.4594 1.98267 11.776 2.29922 11.776 2.68095C11.776 3.06268 11.4594 3.37923 11.0777 3.37923H9.21559C4.92348 3.37923 3.39657 4.90614 3.39657 9.19826V14.7845C3.39657 19.0766 4.92348 20.6035 9.21559 20.6035H14.8019C19.094 20.6035 20.6209 19.0766 20.6209 14.7845V12.9224C20.6209 12.5407 20.9374 12.2242 21.3192 12.2242C21.7009 12.2242 22.0174 12.5407 22.0174 12.9224V14.7845C22.0174 19.8401 19.8574 22.0001 14.8019 22.0001Z" fill="#3D8AFF"/>
<path d="M8.75033 17.289C8.18239 17.289 7.66101 17.0842 7.27928 16.7118C6.82307 16.2556 6.62755 15.5945 6.72997 14.8963L7.13031 12.0938C7.2048 11.5538 7.55859 10.8555 7.94032 10.4738L15.2769 3.13714C17.1297 1.28436 19.0104 1.28436 20.8632 3.13714C21.878 4.15198 22.3342 5.18544 22.2411 6.2189C22.1573 7.05684 21.7104 7.87616 20.8632 8.7141L13.5266 16.0508C13.1448 16.4325 12.4466 16.7863 11.9066 16.8608L9.10413 17.2611C8.98309 17.2891 8.86206 17.289 8.75033 17.289ZM16.2638 4.12405L8.92723 11.4607C8.75033 11.6376 8.5455 12.0473 8.50826 12.2893L8.10791 15.0918C8.07067 15.3618 8.12653 15.5852 8.26619 15.7249C8.40584 15.8646 8.6293 15.9204 8.8993 15.8832L11.7017 15.4828C11.9438 15.4456 12.3628 15.2408 12.5304 15.0639L19.867 7.72719C20.4722 7.12201 20.7887 6.58201 20.8353 6.07924C20.8911 5.47406 20.5746 4.83164 19.867 4.11474C18.3773 2.62507 17.3532 3.04404 16.2638 4.12405Z" fill="#3D8AFF"/>
<path d="M19.317 9.97113C19.2518 9.97113 19.1867 9.96182 19.1308 9.9432C16.6821 9.25423 14.7363 7.30834 14.0473 4.8597C13.9449 4.48728 14.159 4.10555 14.5314 3.99383C14.9039 3.89141 15.2856 4.10555 15.388 4.47797C15.9466 6.46109 17.5201 8.03456 19.5032 8.59318C19.8756 8.6956 20.0898 9.08664 19.9874 9.45906C19.9036 9.77561 19.6242 9.97113 19.317 9.97113Z" fill="#3D8AFF"/>
</svg>
