<svg width="174" height="220" viewBox="0 0 174 220" fill="none" xmlns="http://www.w3.org/2000/svg">
<path d="M38.1455 140.144C39.5693 139.867 40.9486 140.829 41.2229 142.271C41.4972 143.712 40.5662 145.107 39.1425 145.385C37.7198 145.663 36.3234 144.723 36.0491 143.281C35.7748 141.84 36.7217 140.422 38.1444 140.144H38.1455Z" fill="#DADDE0"/>
<path d="M34.0244 135.105C34.9303 134.929 35.8089 135.541 35.9831 136.459C36.1572 137.376 35.5654 138.264 34.6595 138.44C33.7535 138.617 32.8658 138.02 32.6905 137.102C32.5164 136.184 33.1184 135.283 34.0244 135.105Z" fill="#DADDE0"/>
<path d="M34.2805 36.7841C35.7042 36.5063 37.0836 37.4689 37.3579 38.911C37.6322 40.352 36.7012 41.7468 35.2774 42.0246C33.8548 42.3025 32.4584 41.363 32.1841 39.9208C31.9098 38.4799 32.8567 37.0619 34.2793 36.7841H34.2805Z" fill="#DADDE0"/>
<path d="M124.6 48.7834C124.249 48.4571 124.225 47.9061 124.546 47.5511C125.015 47.0335 125.462 46.4905 125.875 45.9395C126.161 45.5556 126.702 45.4784 127.083 45.7712C127.462 46.0617 127.536 46.6092 127.249 46.9931C126.804 47.5879 126.323 48.1724 125.817 48.7303C125.495 49.0866 124.951 49.1085 124.601 48.7845L124.6 48.7834Z" fill="url(#paint0_linear_152_5013)"/>
<path d="M61.2616 75.9934C60.1065 75.3836 58.7783 74.8752 57.3169 74.4833C56.8572 74.3599 56.5829 73.8815 56.7046 73.4158C56.8276 72.9501 57.2976 72.6745 57.7574 72.7956C59.3416 73.221 60.7882 73.7766 62.056 74.4452C62.4783 74.6677 62.641 75.1945 62.4214 75.6222C62.2006 76.0533 61.6759 76.2136 61.2594 75.9934H61.2616ZM53.0946 73.6994C51.8882 73.5507 50.6601 73.4377 48.7219 73.2521C48.2485 73.206 47.9014 72.7783 47.948 72.2999C47.9936 71.8203 48.401 71.4664 48.8881 71.516L50.0467 71.6267C51.1336 71.7304 52.2216 71.833 53.3028 71.9667C53.7752 72.0255 54.1109 72.4601 54.054 72.9385C53.9959 73.4123 53.5726 73.757 53.0946 73.6994ZM44.2754 72.6734C42.4123 72.3379 40.9327 71.8999 39.8561 71.4745C39.4122 71.2993 39.1937 70.7932 39.3656 70.3448C39.5385 69.8952 40.0382 69.6739 40.4798 69.8479C41.7476 70.3471 43.2135 70.7091 44.5781 70.9546C45.0458 71.0388 45.3577 71.4918 45.2746 71.9667C45.1904 72.4451 44.7386 72.7575 44.2754 72.6722V72.6734ZM35.8067 69.1574C34.4831 68.113 33.4201 66.9233 32.6507 65.6207C32.406 65.208 32.5392 64.672 32.9466 64.4241C33.3541 64.1763 33.8844 64.3112 34.128 64.725C34.7892 65.842 35.7088 66.8703 36.8651 67.781C37.2407 68.0773 37.3079 68.6248 37.0154 69.0053C36.7263 69.3822 36.1857 69.456 35.8067 69.1574ZM32.1374 61.7693C31.6742 61.7693 31.2929 61.4361 31.2781 60.9646C31.2781 60.9554 31.277 60.8632 31.277 60.8551V60.7652C31.277 59.2286 31.6685 57.7046 32.4424 56.2371C32.6666 55.8117 33.189 55.6503 33.6079 55.8786C34.0278 56.1057 34.186 56.6337 33.9618 57.059C33.3222 58.2706 32.999 59.5179 32.999 60.7652C32.999 60.7733 32.999 60.8459 32.999 60.8551C32.999 61.3324 32.6223 61.7612 32.1522 61.7693C32.1477 61.7693 32.142 61.7693 32.1374 61.7693ZM95.6109 59.1536C95.142 59.1536 94.7585 58.7732 94.7494 58.2971C94.7414 57.8153 95.1192 57.4176 95.595 57.4083C96.9766 57.3841 98.3071 57.0821 99.5647 56.5426C100.002 56.3547 100.507 56.561 100.695 57.0049C100.88 57.4487 100.675 57.9605 100.238 58.1484C98.7475 58.7882 97.2156 59.1214 95.628 59.1536H95.612H95.6109ZM91.0255 58.5185C89.4515 58.0827 87.923 57.4671 86.7655 56.9783C86.3262 56.7927 86.1191 56.2821 86.3023 55.8371C86.4855 55.391 86.9909 55.1812 87.429 55.3679C88.5375 55.8359 90 56.4262 91.4796 56.8354C91.9382 56.9622 92.2091 57.4418 92.0839 57.9063C91.9621 58.3605 91.4978 58.6476 91.0255 58.5185ZM108.897 56.1184C108.847 55.6388 109.191 55.21 109.663 55.1604C110.439 55.0405 111.651 54.9771 113.832 54.3223C114.291 54.184 114.768 54.4492 114.903 54.9103C115.038 55.3725 114.779 55.8578 114.321 55.995C111.977 56.7005 110.29 56.8273 109.843 56.8965C109.812 56.9 108.945 56.5841 108.897 56.1195V56.1184ZM105.202 56.7755C103.641 56.4919 102.037 55.8809 100.788 54.8918C100.414 54.5944 100.348 54.0457 100.641 53.6676C100.934 53.2883 101.478 53.2214 101.851 53.52C102.194 53.7921 102.61 54.0457 103.005 54.244C104.066 53.2122 104.866 52.0156 105.328 50.9366C105.517 50.4951 106.022 50.2899 106.462 50.4859C106.899 50.6784 107.098 51.1926 106.908 51.6341C106.45 52.6946 105.721 53.8601 104.778 54.901C105.015 54.961 105.258 55.014 105.504 55.059C105.973 55.1443 106.285 55.5973 106.201 56.0711C106.116 56.5518 105.663 56.8608 105.202 56.7766V56.7755ZM82.707 55.2353C81.3675 54.6866 79.9915 54.169 78.6144 53.6999C78.1637 53.5465 77.9213 53.0508 78.0738 52.5943C78.2263 52.1378 78.7111 51.8934 79.1652 52.0456C80.5742 52.5263 81.9832 53.0554 83.3535 53.618C83.7951 53.799 84.0067 54.3074 83.8292 54.7546C83.6528 55.1962 83.1543 55.4186 82.7082 55.2353H82.707ZM118.175 54.3765C117.269 54.3765 116.98 53.1373 117.786 52.7258C119.053 52.0756 120.268 51.309 121.398 50.4444C121.776 50.1539 122.318 50.23 122.605 50.615C122.891 51 122.815 51.5465 122.436 51.837C121.225 52.7626 119.922 53.5857 118.563 54.282C118.439 54.3454 118.306 54.3765 118.175 54.3765ZM35.3355 53.7794C35.0305 53.4093 35.0806 52.8595 35.447 52.5505C36.6534 51.5326 38.0066 50.7649 39.4748 50.1677C39.913 49.9868 40.4183 50.2046 40.5947 50.6519C40.7723 51.0992 40.5583 51.6076 40.1167 51.7862C38.8306 52.3096 37.6254 52.9828 36.5476 53.8912C36.1868 54.1967 35.6428 54.1529 35.3344 53.7782L35.3355 53.7794ZM74.4398 52.4134C73.0388 52.0272 71.6116 51.679 70.1969 51.3782C69.7314 51.279 69.4333 50.8168 69.5311 50.3453C69.629 49.8738 70.0843 49.5706 70.5509 49.6709C71.9986 49.9775 73.4599 50.3337 74.8928 50.7291C75.3526 50.856 75.6234 51.3355 75.4971 51.8001C75.373 52.26 74.9053 52.5413 74.4398 52.4122V52.4134ZM98.0396 50.811C97.6754 49.5153 97.68 48.1654 98.1546 46.9054C98.3059 46.5065 98.5131 46.1261 98.7714 45.7745C99.056 45.3895 99.5943 45.3076 99.9767 45.5947C100.359 45.8817 100.438 46.4293 100.154 46.8155C99.4418 47.7838 99.3598 49.1383 99.6978 50.3326C99.8287 50.796 99.5636 51.279 99.106 51.4104C98.6474 51.5442 98.1716 51.2733 98.0408 50.811H98.0396ZM43.193 49.9257C43.1042 49.4519 43.4127 48.9965 43.8804 48.9066C46.0235 48.4985 48.03 48.3533 48.3407 48.3175C48.8289 48.2841 49.2318 48.6299 49.2739 49.1095C49.316 49.589 48.9655 50.0133 48.492 50.0548L47.8854 50.1113C46.4583 50.2519 45.286 50.4133 44.198 50.6208C43.7336 50.7084 43.2807 50.4006 43.193 49.9245V49.9257ZM65.9028 50.5977C64.4688 50.381 63.0098 50.2046 61.5689 50.0721C61.0955 50.0283 60.7449 49.6052 60.7882 49.1245C60.8314 48.6449 61.2639 48.2968 61.7237 48.3337C63.1987 48.4686 64.6908 48.6484 66.1578 48.8709C66.629 48.9423 66.9522 49.3862 66.8828 49.8623C66.8122 50.3418 66.3717 50.6669 65.904 50.5966L65.9028 50.5977ZM57.2134 49.8058C55.7577 49.7597 54.301 49.7585 52.8499 49.8C52.3798 49.8138 51.9781 49.4346 51.9644 48.9527C51.9508 48.4709 52.3263 48.0697 52.8009 48.0559C54.2884 48.0132 55.7782 48.0144 57.268 48.0616C57.7437 48.0766 58.117 48.4789 58.1022 48.9608C58.0863 49.4576 57.6675 49.8265 57.2145 49.8058H57.2134ZM105.74 47.1774C105.401 46.0466 104.545 45.3019 103.277 45.2788C102.801 45.2696 102.424 44.8719 102.432 44.3912C102.44 43.9151 102.824 43.5347 103.293 43.5347H103.309C105.324 43.5716 106.834 44.8212 107.389 46.6702C107.527 47.1313 107.271 47.619 106.816 47.7584C106.365 47.8991 105.88 47.642 105.74 47.1774Z" fill="url(#paint1_linear_152_5013)"/>
<path d="M65.7913 80.1296C65.4613 79.5648 65.0641 79.0264 64.6134 78.5296C64.2913 78.1757 64.3152 77.6235 64.6646 77.2972C65.0151 76.9722 65.5591 76.9941 65.8812 77.3491C66.4127 77.9347 66.8805 78.5711 67.272 79.2408C67.5144 79.6558 67.379 80.1907 66.9704 80.4363C66.5641 80.6795 66.0337 80.5481 65.7902 80.1308L65.7913 80.1296Z" fill="url(#paint2_linear_152_5013)"/>
<path d="M70.9695 67.262L70.9695 67.262C72.3643 69.4527 74.7668 70.7821 77.3511 70.7821H124.256C127.331 70.7821 129.846 73.3103 129.846 76.4567V94.9882H43.1584V66.5901C43.1584 63.4437 45.6727 60.9155 48.7481 60.9155H63.8861C65.7792 60.9155 67.5489 61.8894 68.5806 63.5097C68.5806 63.5097 68.5806 63.5097 68.5806 63.5098L70.9695 67.262Z" stroke="#DADDE0" stroke-width="2"/>
<path d="M141.135 95.9307L132.693 131.256C131.609 135.788 127.604 138.98 123.001 138.98H50.0057C45.4021 138.98 41.3971 135.788 40.3136 131.256L31.8711 95.9307C30.4587 90.0228 34.878 84.335 40.8792 84.335H132.128C138.129 84.335 142.548 90.0239 141.136 95.9307H141.135Z" fill="url(#paint3_linear_152_5013)"/>
<path d="M89.7451 125.82C89.4173 125.82 89.0895 125.694 88.838 125.443C87.5201 124.129 85.4692 124.116 84.1661 125.416C83.6585 125.925 82.8413 125.918 82.3394 125.403C81.8386 124.888 81.8443 124.06 82.353 123.552C84.6327 121.277 88.3554 121.285 90.6521 123.579C91.1597 124.086 91.1665 124.915 90.6658 125.429C90.4131 125.689 90.0797 125.82 89.7451 125.82Z" fill="#DADDE0"/>
<path d="M104.802 113.73C104.802 116.024 102.965 117.886 100.699 117.886C98.4334 117.886 96.5965 116.026 96.5965 113.73C96.5965 111.435 98.4334 109.575 100.699 109.575C102.965 109.575 104.802 111.435 104.802 113.73Z" fill="#DADDE0"/>
<path d="M108.507 106.303C108.351 106.303 108.194 106.274 108.04 106.214L98.5791 102.505C97.9133 102.243 97.5832 101.486 97.8416 100.811C98.0976 100.136 98.8465 99.8027 99.5134 100.063L108.975 103.773C109.64 104.035 109.97 104.792 109.712 105.466C109.514 105.985 109.025 106.303 108.508 106.303H108.507Z" fill="#DADDE0"/>
<path d="M99.5169 115.415C99.5169 116.076 100.046 116.612 100.699 116.612C101.353 116.612 101.882 116.076 101.882 115.415C101.882 114.753 101.353 114.217 100.699 114.217C100.046 114.217 99.5169 114.753 99.5169 115.415Z" fill="#DADDE0"/>
<path d="M68.2029 113.73C68.2029 116.024 70.0398 117.886 72.3058 117.886C74.5718 117.886 76.4087 116.026 76.4087 113.73C76.4087 111.435 74.5718 109.575 72.3058 109.575C70.0398 109.575 68.2029 111.435 68.2029 113.73Z" fill="#DADDE0"/>
<path d="M64.4984 106.303C63.9806 106.303 63.4912 105.985 63.2943 105.466C63.0359 104.792 63.3671 104.034 64.0318 103.773L73.4929 100.063C74.1598 99.8037 74.9076 100.137 75.1648 100.811C75.4231 101.486 75.0919 102.243 74.4273 102.505L64.9662 106.214C64.8125 106.274 64.6555 106.303 64.4996 106.303H64.4984Z" fill="#DADDE0"/>
<path d="M72.4972 116.587C73.1419 116.481 73.5796 115.866 73.475 115.213C73.3703 114.56 72.7629 114.117 72.1183 114.223C71.4737 114.329 71.0359 114.944 71.1405 115.597C71.2452 116.25 71.8526 116.693 72.4972 116.587Z" fill="#DADDE0"/>
<path d="M135.934 140.791C142.045 134.601 142.045 124.564 135.934 118.374C129.822 112.183 119.913 112.183 113.801 118.374C107.689 124.564 107.689 134.601 113.801 140.791C119.913 146.982 129.822 146.982 135.934 140.791Z" fill="#DADDE0"/>
<path d="M124.867 146.306C115.763 146.306 108.357 138.804 108.357 129.583C108.357 120.362 115.763 112.859 124.867 112.859C133.971 112.859 141.378 120.362 141.378 129.583C141.378 138.804 133.971 146.306 124.867 146.306ZM124.867 114.604C116.713 114.604 110.079 121.323 110.079 129.582C110.079 137.84 116.713 144.561 124.867 144.561C133.022 144.561 139.656 137.841 139.656 129.582C139.656 121.322 133.022 114.604 124.867 114.604Z" fill="#DADDE0"/>
<path d="M132.335 137.146C136.459 132.969 136.459 126.196 132.335 122.019C128.211 117.842 121.524 117.842 117.4 122.019C113.276 126.196 113.276 132.969 117.4 137.146C121.524 141.323 128.211 141.323 132.335 137.146Z" fill="white"/>
<path d="M129.361 134.136C128.849 134.67 127.98 134.671 127.468 134.136L124.865 131.508L122.27 134.136C121.748 134.673 120.891 134.673 120.376 134.136C119.849 133.618 119.848 132.737 120.376 132.218L122.971 129.59L120.376 126.954C119.847 126.418 119.847 125.563 120.376 125.027C120.884 124.497 121.74 124.49 122.27 125.027L124.865 127.656L127.468 125.027C127.99 124.498 128.84 124.498 129.361 125.027C129.867 125.525 129.911 126.397 129.361 126.954L126.767 129.59L129.361 132.218C129.891 132.747 129.891 133.609 129.361 134.136Z" fill="#DADDE0"/>
<path d="M137.56 38.413L138.308 37.9011C138.177 37.8158 138.028 37.7421 137.846 37.6913C136.96 37.3386 137.432 36.0083 138.332 36.3057C138.8 36.4867 139.239 36.738 139.549 37.0527L139.922 36.7968C140.262 36.5639 140.7 36.6642 140.919 36.9916C141.138 37.319 141.066 37.7686 140.727 38.0014L140.353 38.2573C140.509 38.677 140.587 39.1254 140.579 39.6326C140.575 40.0361 140.259 40.3785 139.861 40.375C139.462 40.3715 139.141 40.0395 139.145 39.6361C139.138 39.4401 139.125 39.2729 139.096 39.1173L138.365 39.6176C138.273 39.4055 138.152 39.1865 138.013 38.9801C137.876 38.7738 137.721 38.579 137.56 38.413Z" fill="#DADDE0"/>
<path d="M131.425 48.9875C131.326 48.6543 131.289 48.3027 131.281 47.9569C133.04 47.2399 135.225 46.0629 136.609 44.8848C137.395 46.5194 136.702 49.2342 135.012 50.3927C133.534 51.4049 131.926 50.7766 131.425 48.9875Z" fill="url(#paint4_linear_152_5013)"/>
<path d="M126.44 37.5555C128.127 36.3992 130.887 36.7647 132.069 38.088C130.455 38.9595 128.557 40.593 127.271 41.9522C126.94 41.8277 126.648 41.6513 126.391 41.4507C124.939 40.3141 124.962 38.5676 126.439 37.5555H126.44Z" fill="url(#paint5_linear_152_5013)"/>
<path d="M135.591 45.6638C131.722 48.3141 125.287 50.4767 124.014 48.5688C122.742 46.6656 127.116 41.417 130.986 38.7668C134.852 36.1188 136.743 37.0745 138.015 38.9777C139.288 40.8844 139.457 43.0159 135.59 45.6638H135.591Z" fill="#DADDE0"/>
<path d="M1.162 183V173.13H2.282L8.344 181.082H7.994V173.13H9.352V183H8.246L2.198 175.048H2.52V183H1.162ZM14.56 183.126C13.86 183.126 13.2533 182.981 12.74 182.692C12.2267 182.393 11.83 181.973 11.55 181.432C11.27 180.881 11.13 180.228 11.13 179.472C11.13 178.716 11.27 178.067 11.55 177.526C11.83 176.975 12.2267 176.555 12.74 176.266C13.2533 175.967 13.86 175.818 14.56 175.818C15.26 175.818 15.8667 175.967 16.38 176.266C16.9027 176.555 17.304 176.975 17.584 177.526C17.8733 178.067 18.018 178.716 18.018 179.472C18.018 180.228 17.8733 180.881 17.584 181.432C17.304 181.973 16.9027 182.393 16.38 182.692C15.8667 182.981 15.26 183.126 14.56 183.126ZM14.56 182.02C15.176 182.02 15.666 181.805 16.03 181.376C16.394 180.947 16.576 180.312 16.576 179.472C16.576 178.632 16.394 178.002 16.03 177.582C15.666 177.153 15.176 176.938 14.56 176.938C13.9533 176.938 13.468 177.153 13.104 177.582C12.74 178.002 12.558 178.632 12.558 179.472C12.558 180.312 12.7353 180.947 13.09 181.376C13.454 181.805 13.944 182.02 14.56 182.02ZM26.1472 183.126C25.3819 183.126 24.8032 182.921 24.4112 182.51C24.0192 182.09 23.8232 181.465 23.8232 180.634V177.036H22.4512V175.944H23.8232V174.082L25.2372 173.704V175.944H27.1972V177.036H25.2372V180.508C25.2372 181.031 25.3305 181.404 25.5172 181.628C25.7039 181.852 25.9745 181.964 26.3292 181.964C26.5065 181.964 26.6605 181.95 26.7912 181.922C26.9312 181.885 27.0572 181.843 27.1692 181.796V182.944C27.0292 183 26.8659 183.042 26.6792 183.07C26.4925 183.107 26.3152 183.126 26.1472 183.126ZM28.4611 183V177.694C28.4611 177.405 28.4518 177.115 28.4331 176.826C28.4238 176.527 28.4051 176.233 28.3771 175.944H29.7491L29.9031 177.764H29.6791C29.7725 177.325 29.9311 176.961 30.1551 176.672C30.3791 176.383 30.6498 176.168 30.9671 176.028C31.2938 175.888 31.6345 175.818 31.9891 175.818C32.1385 175.818 32.2645 175.827 32.3671 175.846C32.4698 175.855 32.5725 175.874 32.6751 175.902L32.6611 177.162C32.5025 177.097 32.3625 177.059 32.2411 177.05C32.1291 177.031 31.9891 177.022 31.8211 177.022C31.4105 177.022 31.0605 177.115 30.7711 177.302C30.4818 177.479 30.2625 177.722 30.1131 178.03C29.9638 178.338 29.8891 178.669 29.8891 179.024V183H28.4611ZM36.4001 183.126C35.7748 183.126 35.2288 182.981 34.7621 182.692C34.2954 182.403 33.9314 181.983 33.6701 181.432C33.4181 180.881 33.2921 180.228 33.2921 179.472C33.2921 178.707 33.4181 178.053 33.6701 177.512C33.9314 176.971 34.2954 176.555 34.7621 176.266C35.2288 175.967 35.7748 175.818 36.4001 175.818C37.0161 175.818 37.5528 175.972 38.0101 176.28C38.4674 176.588 38.7708 177.008 38.9201 177.54H38.7661L38.9061 175.944H40.2781C40.2501 176.233 40.2221 176.523 40.1941 176.812C40.1754 177.092 40.1661 177.367 40.1661 177.638V183H38.7521V181.432H38.9061C38.7568 181.955 38.4488 182.37 37.9821 182.678C37.5248 182.977 36.9974 183.126 36.4001 183.126ZM36.7501 182.02C37.3568 182.02 37.8421 181.805 38.2061 181.376C38.5794 180.947 38.7661 180.312 38.7661 179.472C38.7661 178.632 38.5794 178.002 38.2061 177.582C37.8421 177.153 37.3568 176.938 36.7501 176.938C36.1341 176.938 35.6394 177.153 35.2661 177.582C34.9021 178.002 34.7201 178.632 34.7201 179.472C34.7201 180.312 34.9021 180.947 35.2661 181.376C35.6301 181.805 36.1248 182.02 36.7501 182.02ZM42.2294 183V177.638C42.2294 177.367 42.2154 177.092 42.1874 176.812C42.1687 176.523 42.1454 176.233 42.1174 175.944H43.4894L43.6154 177.428H43.4474C43.662 176.905 43.9934 176.509 44.4414 176.238C44.8894 175.958 45.4074 175.818 45.9954 175.818C46.826 175.818 47.4514 176.047 47.8714 176.504C48.3007 176.961 48.5154 177.671 48.5154 178.632V183H47.1014V178.716C47.1014 178.091 46.9754 177.643 46.7234 177.372C46.4807 177.092 46.1074 176.952 45.6034 176.952C45.006 176.952 44.53 177.139 44.1754 177.512C43.8207 177.876 43.6434 178.371 43.6434 178.996V183H42.2294ZM52.9502 183.126C52.3622 183.126 51.8209 183.051 51.3262 182.902C50.8315 182.753 50.4209 182.543 50.0942 182.272L50.5282 181.306C50.8735 181.567 51.2562 181.763 51.6762 181.894C52.0962 182.025 52.5255 182.09 52.9642 182.09C53.4775 182.09 53.8649 182.001 54.1262 181.824C54.3875 181.637 54.5182 181.385 54.5182 181.068C54.5182 180.825 54.4342 180.629 54.2662 180.48C54.1075 180.331 53.8415 180.219 53.4682 180.144L52.1242 179.878C51.5269 179.747 51.0742 179.523 50.7662 179.206C50.4582 178.889 50.3042 178.483 50.3042 177.988C50.3042 177.568 50.4162 177.195 50.6402 176.868C50.8735 176.541 51.2002 176.285 51.6202 176.098C52.0495 175.911 52.5489 175.818 53.1182 175.818C53.6409 175.818 54.1262 175.893 54.5742 176.042C55.0222 176.191 55.3955 176.406 55.6942 176.686L55.2462 177.624C54.9569 177.381 54.6302 177.195 54.2662 177.064C53.9022 176.924 53.5335 176.854 53.1602 176.854C52.6375 176.854 52.2502 176.952 51.9982 177.148C51.7462 177.344 51.6202 177.601 51.6202 177.918C51.6202 178.161 51.6949 178.361 51.8442 178.52C52.0029 178.669 52.2502 178.786 52.5862 178.87L53.9302 179.136C54.5649 179.267 55.0409 179.481 55.3582 179.78C55.6755 180.079 55.8342 180.48 55.8342 180.984C55.8342 181.423 55.7129 181.805 55.4702 182.132C55.2275 182.459 54.8915 182.706 54.4622 182.874C54.0329 183.042 53.5289 183.126 52.9502 183.126ZM60.2028 183.126C59.5775 183.126 59.0315 182.981 58.5648 182.692C58.0982 182.403 57.7342 181.983 57.4728 181.432C57.2208 180.881 57.0948 180.228 57.0948 179.472C57.0948 178.707 57.2208 178.053 57.4728 177.512C57.7342 176.971 58.0982 176.555 58.5648 176.266C59.0315 175.967 59.5775 175.818 60.2028 175.818C60.8188 175.818 61.3555 175.972 61.8128 176.28C62.2702 176.588 62.5735 177.008 62.7228 177.54H62.5688L62.7088 175.944H64.0808C64.0528 176.233 64.0248 176.523 63.9968 176.812C63.9782 177.092 63.9688 177.367 63.9688 177.638V183H62.5548V181.432H62.7088C62.5595 181.955 62.2515 182.37 61.7848 182.678C61.3275 182.977 60.8002 183.126 60.2028 183.126ZM60.5528 182.02C61.1595 182.02 61.6448 181.805 62.0088 181.376C62.3822 180.947 62.5688 180.312 62.5688 179.472C62.5688 178.632 62.3822 178.002 62.0088 177.582C61.6448 177.153 61.1595 176.938 60.5528 176.938C59.9368 176.938 59.4422 177.153 59.0688 177.582C58.7048 178.002 58.5228 178.632 58.5228 179.472C58.5228 180.312 58.7048 180.947 59.0688 181.376C59.4328 181.805 59.9275 182.02 60.5528 182.02ZM69.1261 183.126C68.4168 183.126 67.7961 182.981 67.2641 182.692C66.7414 182.393 66.3354 181.969 66.0461 181.418C65.7661 180.858 65.6261 180.195 65.6261 179.43C65.6261 178.674 65.7708 178.025 66.0601 177.484C66.3494 176.943 66.7554 176.532 67.2781 176.252C67.8008 175.963 68.4168 175.818 69.1261 175.818C69.5834 175.818 70.0268 175.897 70.4561 176.056C70.8854 176.205 71.2401 176.42 71.5201 176.7L71.0581 177.694C70.7968 177.442 70.5028 177.255 70.1761 177.134C69.8494 177.003 69.5321 176.938 69.2241 176.938C68.5521 176.938 68.0248 177.153 67.6421 177.582C67.2594 178.011 67.0681 178.632 67.0681 179.444C67.0681 180.265 67.2594 180.895 67.6421 181.334C68.0248 181.773 68.5521 181.992 69.2241 181.992C69.5228 181.992 69.8354 181.936 70.1621 181.824C70.4888 181.703 70.7874 181.511 71.0581 181.25L71.5201 182.244C71.2308 182.524 70.8668 182.743 70.4281 182.902C69.9988 183.051 69.5648 183.126 69.1261 183.126ZM75.7761 183.126C75.0108 183.126 74.4321 182.921 74.0401 182.51C73.6481 182.09 73.4521 181.465 73.4521 180.634V177.036H72.0801V175.944H73.4521V174.082L74.8661 173.704V175.944H76.8261V177.036H74.8661V180.508C74.8661 181.031 74.9594 181.404 75.1461 181.628C75.3328 181.852 75.6034 181.964 75.9581 181.964C76.1354 181.964 76.2894 181.95 76.4201 181.922C76.5601 181.885 76.6861 181.843 76.7981 181.796V182.944C76.6581 183 76.4948 183.042 76.3081 183.07C76.1214 183.107 75.9441 183.126 75.7761 183.126ZM78.118 183V175.944H79.532V183H78.118ZM78.006 174.474V173.004H79.644V174.474H78.006ZM84.6284 183.126C83.9284 183.126 83.3217 182.981 82.8084 182.692C82.295 182.393 81.8984 181.973 81.6184 181.432C81.3384 180.881 81.1984 180.228 81.1984 179.472C81.1984 178.716 81.3384 178.067 81.6184 177.526C81.8984 176.975 82.295 176.555 82.8084 176.266C83.3217 175.967 83.9284 175.818 84.6284 175.818C85.3284 175.818 85.935 175.967 86.4484 176.266C86.971 176.555 87.3724 176.975 87.6524 177.526C87.9417 178.067 88.0864 178.716 88.0864 179.472C88.0864 180.228 87.9417 180.881 87.6524 181.432C87.3724 181.973 86.971 182.393 86.4484 182.692C85.935 182.981 85.3284 183.126 84.6284 183.126ZM84.6284 182.02C85.2444 182.02 85.7344 181.805 86.0984 181.376C86.4624 180.947 86.6444 180.312 86.6444 179.472C86.6444 178.632 86.4624 178.002 86.0984 177.582C85.7344 177.153 85.2444 176.938 84.6284 176.938C84.0217 176.938 83.5364 177.153 83.1724 177.582C82.8084 178.002 82.6264 178.632 82.6264 179.472C82.6264 180.312 82.8037 180.947 83.1584 181.376C83.5224 181.805 84.0124 182.02 84.6284 182.02ZM89.7391 183V177.638C89.7391 177.367 89.7251 177.092 89.6971 176.812C89.6785 176.523 89.6551 176.233 89.6271 175.944H90.9991L91.1251 177.428H90.9571C91.1718 176.905 91.5031 176.509 91.9511 176.238C92.3991 175.958 92.9171 175.818 93.5051 175.818C94.3358 175.818 94.9611 176.047 95.3811 176.504C95.8105 176.961 96.0251 177.671 96.0251 178.632V183H94.6111V178.716C94.6111 178.091 94.4851 177.643 94.2331 177.372C93.9905 177.092 93.6171 176.952 93.1131 176.952C92.5158 176.952 92.0398 177.139 91.6851 177.512C91.3305 177.876 91.1531 178.371 91.1531 178.996V183H89.7391ZM101.77 183V172.696H103.184V177.442H102.988C103.194 176.91 103.525 176.509 103.982 176.238C104.44 175.958 104.967 175.818 105.564 175.818C106.404 175.818 107.03 176.051 107.44 176.518C107.851 176.975 108.056 177.671 108.056 178.604V183H106.642V178.688C106.642 178.081 106.521 177.643 106.278 177.372C106.045 177.092 105.672 176.952 105.158 176.952C104.561 176.952 104.08 177.139 103.716 177.512C103.362 177.876 103.184 178.361 103.184 178.968V183H101.77ZM110.069 183V175.944H111.483V183H110.069ZM109.957 174.474V173.004H111.595V174.474H109.957ZM115.978 183.126C115.39 183.126 114.848 183.051 114.354 182.902C113.859 182.753 113.448 182.543 113.122 182.272L113.556 181.306C113.901 181.567 114.284 181.763 114.704 181.894C115.124 182.025 115.553 182.09 115.992 182.09C116.505 182.09 116.892 182.001 117.154 181.824C117.415 181.637 117.546 181.385 117.546 181.068C117.546 180.825 117.462 180.629 117.294 180.48C117.135 180.331 116.869 180.219 116.496 180.144L115.152 179.878C114.554 179.747 114.102 179.523 113.794 179.206C113.486 178.889 113.332 178.483 113.332 177.988C113.332 177.568 113.444 177.195 113.668 176.868C113.901 176.541 114.228 176.285 114.648 176.098C115.077 175.911 115.576 175.818 116.146 175.818C116.668 175.818 117.154 175.893 117.602 176.042C118.05 176.191 118.423 176.406 118.722 176.686L118.274 177.624C117.984 177.381 117.658 177.195 117.294 177.064C116.93 176.924 116.561 176.854 116.188 176.854C115.665 176.854 115.278 176.952 115.026 177.148C114.774 177.344 114.648 177.601 114.648 177.918C114.648 178.161 114.722 178.361 114.872 178.52C115.03 178.669 115.278 178.786 115.614 178.87L116.958 179.136C117.592 179.267 118.068 179.481 118.386 179.78C118.703 180.079 118.862 180.48 118.862 180.984C118.862 181.423 118.74 181.805 118.498 182.132C118.255 182.459 117.919 182.706 117.49 182.874C117.06 183.042 116.556 183.126 115.978 183.126ZM123.204 183.126C122.438 183.126 121.86 182.921 121.468 182.51C121.076 182.09 120.88 181.465 120.88 180.634V177.036H119.508V175.944H120.88V174.082L122.294 173.704V175.944H124.254V177.036H122.294V180.508C122.294 181.031 122.387 181.404 122.574 181.628C122.76 181.852 123.031 181.964 123.386 181.964C123.563 181.964 123.717 181.95 123.848 181.922C123.988 181.885 124.114 181.843 124.226 181.796V182.944C124.086 183 123.922 183.042 123.736 183.07C123.549 183.107 123.372 183.126 123.204 183.126ZM128.501 183.126C127.801 183.126 127.195 182.981 126.681 182.692C126.168 182.393 125.771 181.973 125.491 181.432C125.211 180.881 125.071 180.228 125.071 179.472C125.071 178.716 125.211 178.067 125.491 177.526C125.771 176.975 126.168 176.555 126.681 176.266C127.195 175.967 127.801 175.818 128.501 175.818C129.201 175.818 129.808 175.967 130.321 176.266C130.844 176.555 131.245 176.975 131.525 177.526C131.815 178.067 131.959 178.716 131.959 179.472C131.959 180.228 131.815 180.881 131.525 181.432C131.245 181.973 130.844 182.393 130.321 182.692C129.808 182.981 129.201 183.126 128.501 183.126ZM128.501 182.02C129.117 182.02 129.607 181.805 129.971 181.376C130.335 180.947 130.517 180.312 130.517 179.472C130.517 178.632 130.335 178.002 129.971 177.582C129.607 177.153 129.117 176.938 128.501 176.938C127.895 176.938 127.409 177.153 127.045 177.582C126.681 178.002 126.499 178.632 126.499 179.472C126.499 180.312 126.677 180.947 127.031 181.376C127.395 181.805 127.885 182.02 128.501 182.02ZM133.584 183V177.694C133.584 177.405 133.575 177.115 133.556 176.826C133.547 176.527 133.528 176.233 133.5 175.944H134.872L135.026 177.764H134.802C134.896 177.325 135.054 176.961 135.278 176.672C135.502 176.383 135.773 176.168 136.09 176.028C136.417 175.888 136.758 175.818 137.112 175.818C137.262 175.818 137.388 175.827 137.49 175.846C137.593 175.855 137.696 175.874 137.798 175.902L137.784 177.162C137.626 177.097 137.486 177.059 137.364 177.05C137.252 177.031 137.112 177.022 136.944 177.022C136.534 177.022 136.184 177.115 135.894 177.302C135.605 177.479 135.386 177.722 135.236 178.03C135.087 178.338 135.012 178.669 135.012 179.024V183H133.584ZM139.103 186.178L138.767 185.03C139.206 184.937 139.57 184.825 139.859 184.694C140.158 184.563 140.405 184.391 140.601 184.176C140.797 183.971 140.965 183.705 141.105 183.378L141.455 182.552L141.427 183.126L138.361 175.944H139.873L142.253 181.824H141.875L144.255 175.944H145.711L142.477 183.504C142.272 183.971 142.053 184.363 141.819 184.68C141.586 184.997 141.334 185.254 141.063 185.45C140.793 185.646 140.494 185.8 140.167 185.912C139.841 186.024 139.486 186.113 139.103 186.178ZM150.342 186.178L150.006 185.03C150.444 184.937 150.808 184.825 151.098 184.694C151.396 184.563 151.644 184.391 151.84 184.176C152.036 183.971 152.204 183.705 152.344 183.378L152.694 182.552L152.666 183.126L149.6 175.944H151.112L153.492 181.824H153.114L155.494 175.944H156.95L153.716 183.504C153.51 183.971 153.291 184.363 153.058 184.68C152.824 184.997 152.572 185.254 152.302 185.45C152.031 185.646 151.732 185.8 151.406 185.912C151.079 186.024 150.724 186.113 150.342 186.178ZM161.196 183.126C160.058 183.126 159.162 182.804 158.508 182.16C157.855 181.516 157.528 180.625 157.528 179.486C157.528 178.749 157.668 178.105 157.948 177.554C158.238 177.003 158.634 176.579 159.138 176.28C159.652 175.972 160.244 175.818 160.916 175.818C161.579 175.818 162.134 175.958 162.582 176.238C163.03 176.518 163.371 176.915 163.604 177.428C163.838 177.932 163.954 178.529 163.954 179.22V179.668H158.634V178.856H162.988L162.75 179.038C162.75 178.338 162.592 177.797 162.274 177.414C161.966 177.022 161.518 176.826 160.93 176.826C160.277 176.826 159.773 177.055 159.418 177.512C159.064 177.96 158.886 178.581 158.886 179.374V179.514C158.886 180.345 159.087 180.97 159.488 181.39C159.899 181.81 160.478 182.02 161.224 182.02C161.635 182.02 162.018 181.964 162.372 181.852C162.736 181.731 163.082 181.535 163.408 181.264L163.87 182.23C163.544 182.519 163.147 182.743 162.68 182.902C162.214 183.051 161.719 183.126 161.196 183.126ZM168.307 183.126C167.542 183.126 166.963 182.921 166.571 182.51C166.179 182.09 165.983 181.465 165.983 180.634V177.036H164.611V175.944H165.983V174.082L167.397 173.704V175.944H169.357V177.036H167.397V180.508C167.397 181.031 167.491 181.404 167.677 181.628C167.864 181.852 168.135 181.964 168.489 181.964C168.667 181.964 168.821 181.95 168.951 181.922C169.091 181.885 169.217 181.843 169.329 181.796V182.944C169.189 183 169.026 183.042 168.839 183.07C168.653 183.107 168.475 183.126 168.307 183.126ZM170.658 183V181.334H172.324V183H170.658Z" fill="#9297A1"/>
<defs>
<linearGradient id="paint0_linear_152_5013" x1="125.872" y1="45.5933" x2="125.872" y2="49.0133" gradientUnits="userSpaceOnUse">
<stop stop-color="#E1E4E6"/>
<stop offset="1" stop-color="#E1E4E6" stop-opacity="0"/>
</linearGradient>
<linearGradient id="paint1_linear_152_5013" x1="77.0277" y1="43.5347" x2="77.0277" y2="76.0918" gradientUnits="userSpaceOnUse">
<stop stop-color="#E1E4E6"/>
<stop offset="1" stop-color="#E1E4E6" stop-opacity="0"/>
</linearGradient>
<linearGradient id="paint2_linear_152_5013" x1="65.8894" y1="77.0674" x2="65.8894" y2="80.5579" gradientUnits="userSpaceOnUse">
<stop stop-color="#E1E4E6"/>
<stop offset="1" stop-color="#E1E4E6" stop-opacity="0"/>
</linearGradient>
<linearGradient id="paint3_linear_152_5013" x1="86.4138" y1="77.6454" x2="86.5995" y2="110.638" gradientUnits="userSpaceOnUse">
<stop stop-color="#DCDEE1"/>
<stop offset="1" stop-color="#FCFCFC"/>
</linearGradient>
<linearGradient id="paint4_linear_152_5013" x1="134.107" y1="44.8848" x2="134.107" y2="50.8762" gradientUnits="userSpaceOnUse">
<stop stop-color="#E1E4E6"/>
<stop offset="1" stop-color="#E1E4E6" stop-opacity="0"/>
</linearGradient>
<linearGradient id="paint5_linear_152_5013" x1="128.693" y1="36.8618" x2="128.693" y2="41.9522" gradientUnits="userSpaceOnUse">
<stop stop-color="#E1E4E6"/>
<stop offset="1" stop-color="#E1E4E6" stop-opacity="0"/>
</linearGradient>
</defs>
</svg>
