<svg width="21" height="20" viewBox="0 0 21 20" fill="none" xmlns="http://www.w3.org/2000/svg">
<g id="google 1">
<path id="Vector" d="M18.9531 8.35547H11.5117C11.1836 8.35547 10.918 8.62109 10.918 8.94922V11.3281C10.918 11.6563 11.1836 11.9219 11.5117 11.9219H15.7031C15.2461 13.1133 14.3867 14.1094 13.2969 14.7422L15.082 17.8359C17.9453 16.1797 19.6406 13.2695 19.6406 10.0156C19.6406 9.55078 19.6055 9.21875 19.5391 8.84766C19.4844 8.5625 19.2383 8.35547 18.9531 8.35547Z" fill="#167EE6"/>
<path id="Vector_2" d="M10.5195 15.4922C8.46875 15.4922 6.67969 14.3711 5.71875 12.7148L2.625 14.4961C4.19922 17.2266 7.14844 19.0625 10.5195 19.0625C12.1758 19.0625 13.7344 18.6172 15.082 17.8398V17.8359L13.2969 14.7422C12.4766 15.2187 11.5312 15.4922 10.5195 15.4922Z" fill="#12B347"/>
<path id="Vector_3" d="M4.96875 9.94141C4.96875 8.92969 5.24609 7.98438 5.71875 7.16797L2.625 5.38672C1.84375 6.72656 1.39844 8.28125 1.39844 9.94141C1.39844 11.6016 1.84375 13.1562 2.625 14.4961L5.71875 12.7148C5.24219 11.8984 4.96875 10.9531 4.96875 9.94141Z" fill="#FFD500"/>
<path id="Vector_4" d="M10.5195 4.39062C11.8555 4.39062 13.0859 4.86719 14.043 5.65625C14.2813 5.85156 14.625 5.83594 14.8398 5.62109L16.5234 3.9375C16.7695 3.69141 16.75 3.28906 16.4883 3.0625C14.8828 1.66406 12.793 0.820312 10.5195 0.820312C7.14844 0.820312 4.19922 2.65625 2.625 5.38672L5.71875 7.16797C6.67969 5.51172 8.46875 4.39062 10.5195 4.39062Z" fill="#FF4B26"/>
</g>
</svg>
