<svg width="30" height="32" viewBox="0 0 30 32" fill="none" xmlns="http://www.w3.org/2000/svg">
<path fill-rule="evenodd" clip-rule="evenodd" d="M15.8569 11.1881L20.7159 16.0015V15.9985L27.886 23.107C31.4029 26.7053 29.7614 31.8621 23.6906 32H8.13276L11.9696 28.1963H23.0151C26.1675 28.1258 25.892 26.676 24.1913 24.7976C24.1645 24.7657 24.1356 24.7349 24.1064 24.7039C24.0872 24.6835 24.0679 24.663 24.0491 24.642L18.0227 18.6723L15.3473 16.022L8.41422 9.15418V9.07787L4.57143 5.17436V0H23.6906C29.7614 0.137944 31.4029 5.29469 27.886 8.89296L22.5203 14.2141L19.8389 11.5579L23.3321 8.08291C25.735 5.7995 26.6445 3.88884 23.018 3.80666L8.42904 3.8184L9.45418 4.83683L15.8569 11.1881ZM13.4361 18.2857L16 20.8665L5.2095 31.9915H4.97872L4.97027 32V31.9915L0 31.9887L13.4361 18.2857Z" fill="url(#paint0_linear_1052_8179)"/>
<defs>
<linearGradient id="paint0_linear_1052_8179" x1="28.8262" y1="12.3199" x2="28.8262" y2="28.8314" gradientUnits="userSpaceOnUse">
<stop stop-color="#6BCAFF"/>
<stop offset="1" stop-color="#3D8AFF"/>
</linearGradient>
</defs>
</svg>
