<svg width="52" height="52" viewBox="0 0 52 52" fill="none" xmlns="http://www.w3.org/2000/svg">
<rect width="52" height="52" rx="16" fill="#EFF6FF"/>
<path d="M21.24 16H19.34C17.15 16 16 17.15 16 19.33V21.23C16 23.41 17.15 24.56 19.33 24.56H21.23C23.41 24.56 24.56 23.41 24.56 21.23V19.33C24.57 17.15 23.42 16 21.24 16Z" fill="#3D8AFF"/>
<path d="M32.6699 16H30.7699C28.5899 16 27.4399 17.15 27.4399 19.33V21.23C27.4399 23.41 28.5899 24.56 30.7699 24.56H32.6699C34.8499 24.56 35.9999 23.41 35.9999 21.23V19.33C35.9999 17.15 34.8499 16 32.6699 16Z" fill="#3D8AFF"/>
<path d="M32.6699 27.4302H30.7699C28.5899 27.4302 27.4399 28.5802 27.4399 30.7602V32.6602C27.4399 34.8402 28.5899 35.9902 30.7699 35.9902H32.6699C34.8499 35.9902 35.9999 34.8402 35.9999 32.6602V30.7602C35.9999 28.5802 34.8499 27.4302 32.6699 27.4302Z" fill="#3D8AFF"/>
<path d="M21.24 27.4302H19.34C17.15 27.4302 16 28.5802 16 30.7602V32.6602C16 34.8502 17.15 36.0002 19.33 36.0002H21.23C23.41 36.0002 24.56 34.8502 24.56 32.6702V30.7702C24.57 28.5802 23.42 27.4302 21.24 27.4302Z" fill="#3D8AFF"/>
</svg>
