<svg width="52" height="52" viewBox="0 0 52 52" fill="none" xmlns="http://www.w3.org/2000/svg">
<rect width="52" height="52" rx="16" fill="#EFF6FF"/>
<path d="M35 21.75H17C16.59 21.75 16.25 21.41 16.25 21C16.25 20.59 16.59 20.25 17 20.25H35C35.41 20.25 35.75 20.59 35.75 21C35.75 21.41 35.41 21.75 35 21.75Z" fill="#3D8AFF"/>
<path d="M35 26.75H17C16.59 26.75 16.25 26.41 16.25 26C16.25 25.59 16.59 25.25 17 25.25H35C35.41 25.25 35.75 25.59 35.75 26C35.75 26.41 35.41 26.75 35 26.75Z" fill="#3D8AFF"/>
<path d="M35 31.75H17C16.59 31.75 16.25 31.41 16.25 31C16.25 30.59 16.59 30.25 17 30.25H35C35.41 30.25 35.75 30.59 35.75 31C35.75 31.41 35.41 31.75 35 31.75Z" fill="#3D8AFF"/>
</svg>
