<svg width="56" height="56" viewBox="0 0 56 56" fill="none" xmlns="http://www.w3.org/2000/svg">
<rect width="56" height="56" rx="28" fill="#3D8AFF"/>
<path d="M32.1883 28.4667V33.215C32.1883 33.635 32.1416 34.0317 32.0366 34.3933C31.6049 36.1083 30.1816 37.1817 28.2216 37.1817H25.0483L21.5249 39.5267C20.9999 39.8883 20.2999 39.5033 20.2999 38.8733V37.1817C19.1099 37.1817 18.1183 36.785 17.4299 36.0967C16.7299 35.3967 16.3333 34.405 16.3333 33.215V28.4667C16.3333 26.25 17.7099 24.7217 19.8333 24.5233C19.9849 24.5117 20.1366 24.5 20.2999 24.5H28.2216C30.6016 24.5 32.1883 26.0867 32.1883 28.4667Z" fill="white"/>
<path d="M34.7083 32.1997C36.1899 32.1997 37.4383 31.7097 38.3016 30.8347C39.1766 29.9713 39.6666 28.723 39.6666 27.2413V21.2913C39.6666 18.5497 37.4499 16.333 34.7083 16.333H24.7916C22.0499 16.333 19.8333 18.5497 19.8333 21.2913V22.1663C19.8333 22.493 20.0899 22.7497 20.4166 22.7497H28.2216C31.3833 22.7497 33.9383 25.3047 33.9383 28.4663V31.6163C33.9383 31.943 34.1949 32.1997 34.5216 32.1997H34.7083Z" fill="white"/>
</svg>
