<svg width="160" height="97" viewBox="0 0 160 97" fill="none" xmlns="http://www.w3.org/2000/svg">
<rect y="0.616455" width="160" height="96" rx="24" fill="#F1F3F5"/>
<g clip-path="url(#clip0_808_13233)">
<path d="M88.7935 47.2002C92.3935 47.2002 95.3443 44.3084 95.3443 40.7084C95.3443 37.1084 92.3935 34.2166 88.7935 34.2166C85.1935 34.2166 82.2427 37.1084 82.2427 40.7084C82.2427 44.3084 85.1935 47.2002 88.7935 47.2002ZM88.7935 37.8756C90.3279 37.8756 91.5673 39.1149 91.5673 40.6493C91.5673 42.1838 90.3279 43.4231 88.7935 43.4231C87.2591 43.4231 86.0197 42.1838 86.0197 40.6493C86.0197 39.1149 87.2591 37.8756 88.7935 37.8756Z" fill="#A50064"/>
<path d="M88.7935 50.033C85.1935 50.033 82.2427 52.9248 82.2427 56.5248C82.2427 60.1248 85.1935 63.0166 88.7935 63.0166C92.3935 63.0166 95.3443 60.1248 95.3443 56.5248C95.3443 52.9248 92.3935 50.033 88.7935 50.033ZM88.7935 59.2985C87.2591 59.2985 86.0197 58.0592 86.0197 56.5248C86.0197 54.9903 87.2591 53.751 88.7935 53.751C90.3279 53.751 91.5673 54.9903 91.5673 56.5248C91.5673 58.0592 90.3279 59.2985 88.7935 59.2985Z" fill="#A50064"/>
<path d="M75.4558 50.033C74.3344 50.033 73.3312 50.3871 72.5049 51.0362C71.6787 50.4461 70.6754 50.033 69.5541 50.033C66.8394 50.033 64.6558 52.2166 64.6558 54.9313V63.0756H68.4328V54.8723C68.4328 54.2821 68.9049 53.751 69.5541 53.751C70.2033 53.751 70.6754 54.2231 70.6754 54.8723V63.0756H74.3935V54.8723C74.3935 54.2821 74.8656 53.751 75.5148 53.751C76.1049 53.751 76.6361 54.2231 76.6361 54.8723V63.0756H80.3541V54.8723C80.3541 52.2166 78.1705 50.033 75.4558 50.033Z" fill="#A50064"/>
<path d="M75.4558 34.1575C74.3344 34.1575 73.3312 34.5116 72.5049 35.1607C71.6787 34.5706 70.6754 34.1575 69.5541 34.1575C66.8394 34.1575 64.6558 36.3411 64.6558 39.0558V47.2001H68.4328V38.9968C68.4328 38.4067 68.9049 37.8755 69.5541 37.8755C70.2033 37.8755 70.6754 38.3476 70.6754 38.9968V47.2001H74.3935V38.9968C74.3935 38.4067 74.8656 37.8755 75.5148 37.8755C76.1049 37.8755 76.6361 38.3476 76.6361 38.9968V47.2001H80.4131V39.0558C80.3541 36.3411 78.1705 34.1575 75.4558 34.1575Z" fill="#A50064"/>
</g>
<defs>
<clipPath id="clip0_808_13233">
<rect width="36" height="36" fill="white" transform="translate(62 30.6165)"/>
</clipPath>
</defs>
</svg>
