<svg width="160" height="97" viewBox="0 0 160 97" fill="none" xmlns="http://www.w3.org/2000/svg">
<rect y="0.616455" width="160" height="96" rx="24" fill="#F1F3F5"/>
<path d="M50.6229 39.8524H42.8677C42.4291 39.8524 42.0728 40.1194 42.0713 40.6548L42 59.8475C41.9984 60.3271 42.3103 60.5668 42.7363 60.5668C43.9 60.5668 44.85 60.5668 46.0138 60.5668C46.4175 60.5668 46.75 60.367 46.75 59.9674C46.75 58.1915 46.75 55.9984 46.75 54.2226L50.1162 54.2369C52.3313 54.0899 53.8133 53.0509 54.4309 50.9569C54.6161 50.3287 54.6525 49.7852 54.6525 49.1395L54.8267 44.5647C54.6652 41.3486 53.0027 40.1257 50.6229 39.8524ZM49.9088 48.572C49.9088 49.042 49.5272 49.4272 49.0633 49.4272H46.75V44.6318H49.0633C49.5272 44.6318 49.9088 45.0154 49.9088 45.487V48.572ZM64.0687 39.8364H58.6489C58.2372 39.8364 57.8841 39.9643 57.8841 40.3975C57.8841 41.526 57.8841 42.7872 57.8841 43.9157C57.9285 44.3856 58.2499 44.6318 58.7075 44.6318H63.2279C64.1684 44.6318 64.0703 46.1855 63.2279 46.2303H60.7468C57.9934 46.2303 56.2501 48.7271 56.2501 51.2446C56.2501 51.916 56.258 53.4921 56.2501 54.2226C56.2375 55.2632 56.228 56.3181 56.4275 57.258C56.7821 58.9204 58.2056 60.6164 60.3621 60.6164H67.0565C67.913 60.6164 68.9137 59.8587 68.9137 58.8565V45.6308C68.958 42.143 67.2417 40.0234 64.0687 39.8364ZM64.1668 55.1017C64.1668 55.4981 63.847 55.821 63.4575 55.821H61.7079C61.3184 55.821 61.0002 55.4981 61.0002 55.1017V51.7433C61.0002 51.3485 61.3184 51.0256 61.7079 51.0256H63.4575C63.847 51.0256 64.1668 51.3485 64.1668 51.7433V55.1017ZM70.5002 40.7859V49.7501C70.6966 52.3076 73.0462 54.2226 75.521 54.2226H77.7599C78.7051 54.2226 78.6481 55.7715 77.7599 55.7715H72.8594C72.3227 55.7715 72.1279 56.0544 72.1279 56.5323V59.9722C72.1279 60.3335 72.4177 60.6052 72.7961 60.6052H77.4812C81.3066 60.6052 83.1686 58.7526 83.167 54.5998V40.4694C83.167 40.0282 82.8899 39.8572 82.6255 39.8572H78.9806C78.626 39.8572 78.4185 40.2456 78.4185 40.5318V48.8725C78.4185 49.1906 78.2428 49.3776 77.9594 49.3776H75.8994C75.4814 49.3776 75.2519 49.149 75.2519 48.7446V40.6596C75.2503 40.1849 75.0603 39.8364 74.5409 39.8364C73.3091 39.8364 72.2577 39.8364 71.0259 39.8364C70.6063 39.8364 70.5002 40.2568 70.5002 40.7859Z" fill="#0D47A1"/>
<path d="M84.8105 43.9429V40.5254C84.8105 40.1466 85.1177 39.8365 85.4914 39.8365H86.3337C88.4997 39.3809 89.2645 38.8454 90.5898 37.4036C91.4036 36.5133 92.1193 36.2783 92.6449 37.223L92.6671 39.8365H95.1514C95.5282 39.8365 95.8338 40.1466 95.8338 40.5254V43.9429C95.8338 44.3202 95.5266 44.6319 95.1514 44.6319H92.6671V59.9275C92.6671 60.308 92.3599 60.6165 91.9863 60.6165H88.5979C88.2227 60.6165 87.9171 60.308 87.9171 59.9275V44.6319H85.493C85.1209 44.6319 84.8105 44.3218 84.8105 43.9429ZM110.07 59.7613C110.07 60.2312 109.683 60.6165 109.216 60.6165H106.192C105.722 60.6165 105.337 60.2312 105.337 59.7613V49.1747V46.184C105.337 44.1315 102.167 44.1315 102.167 46.184V59.7613C102.167 60.2312 101.784 60.6165 101.314 60.6165H98.2722C97.8019 60.6165 97.4171 60.2312 97.4171 59.7613V40.6949C97.4171 40.2217 97.8019 39.8365 98.2722 39.8365H101.401C101.871 39.8365 102.254 40.2217 102.254 40.6949V41.1616C104.344 39.138 107.482 39.6063 109.246 41.5261C112.567 37.6818 118.256 41.1073 117.991 45.3224C117.991 49.9835 117.95 55.0618 117.95 59.7613C117.95 60.2312 117.564 60.6165 117.098 60.6165H114.104C113.634 60.6165 113.251 60.2312 113.251 59.7613C113.251 55.308 113.251 50.6485 113.251 46.2703C113.251 44.1811 110.084 44.0804 110.084 46.2703V59.7613H110.07Z" fill="#00ADEE"/>
</svg>
