<svg width="24" height="24" viewBox="0 0 24 24" fill="none" xmlns="http://www.w3.org/2000/svg">
<rect x="0.5" y="0.5" width="23" height="23" rx="11.5" stroke="#3D8AFF"/>
<path d="M16 12.5H8C7.72667 12.5 7.5 12.2733 7.5 12C7.5 11.7267 7.72667 11.5 8 11.5H16C16.2733 11.5 16.5 11.7267 16.5 12C16.5 12.2733 16.2733 12.5 16 12.5Z" fill="#3D8AFF"/>
<path d="M12 16.5C11.7267 16.5 11.5 16.2733 11.5 16V8C11.5 7.72667 11.7267 7.5 12 7.5C12.2733 7.5 12.5 7.72667 12.5 8V16C12.5 16.2733 12.2733 16.5 12 16.5Z" fill="#3D8AFF"/>
</svg>
