<svg width="99" height="24" viewBox="0 0 99 24" fill="none" xmlns="http://www.w3.org/2000/svg">
<path d="M12 12.25C11.56 12.25 11.12 12.14 10.72 11.93L4.21 8.41998C3.62 8.09998 3.25 7.46998 3.25 6.76998C3.25 6.06998 3.62 5.43998 4.21 5.11998L10.72 1.60998C11.52 1.17998 12.48 1.17998 13.27 1.60998L19.78 5.11998C20.37 5.43998 20.74 6.06998 20.74 6.76998C20.74 7.46998 20.37 8.09998 19.78 8.41998L13.27 11.93C12.88 12.15 12.44 12.25 12 12.25ZM12 2.77998C11.81 2.77998 11.61 2.82998 11.43 2.92998L4.93 6.42998C4.76 6.51998 4.75 6.70998 4.75 6.76998C4.75 6.82998 4.76 7.01998 4.93 7.09998L11.44 10.61C11.8 10.8 12.21 10.8 12.57 10.61L19.08 7.09998C19.24 7.00998 19.26 6.81998 19.26 6.76998C19.26 6.70998 19.25 6.51998 19.08 6.43998L12.57 2.92998C12.39 2.82998 12.19 2.77998 12 2.77998Z" fill="#797D85"/>
<path d="M9.78 22.72C9.5 22.72 9.21 22.65 8.95 22.52L2.89 19.5C1.88 18.99 1.25 17.97 1.25 16.84V11.12C1.25 10.47 1.58 9.88001 2.13 9.54001C2.69 9.20001 3.36 9.17001 3.94 9.46001L10 12.48C11.01 12.99 11.64 14 11.64 15.14V20.86C11.64 21.51 11.31 22.1 10.76 22.44C10.46 22.63 10.12 22.72 9.78 22.72ZM3.11 10.76C3.03 10.76 2.96 10.79 2.92 10.81C2.86 10.85 2.75 10.94 2.75 11.12V16.84C2.75 17.4 3.06 17.91 3.56 18.16L9.61 21.19C9.77 21.27 9.9 21.21 9.96 21.18C10.02 21.14 10.13 21.05 10.13 20.87V15.15C10.13 14.59 9.82 14.08 9.32 13.83L3.27 10.8C3.21 10.77 3.16 10.76 3.11 10.76Z" fill="#797D85"/>
<path d="M14.2201 22.72C13.8801 22.72 13.5401 22.63 13.2401 22.44C12.6901 22.1 12.3601 21.51 12.3601 20.86V15.14C12.3601 14.01 12.9901 12.99 14.0001 12.48L20.0501 9.45C20.6301 9.16 21.3101 9.19 21.8601 9.53C22.4101 9.87 22.7401 10.46 22.7401 11.11V16.83C22.7401 17.96 22.1101 18.98 21.1001 19.49L15.0501 22.52C14.7901 22.66 14.5001 22.72 14.2201 22.72ZM20.8901 10.76C20.8401 10.76 20.7901 10.77 20.7301 10.8L14.6801 13.83C14.1801 14.08 13.8701 14.58 13.8701 15.15V20.87C13.8701 21.05 13.9801 21.14 14.0401 21.18C14.1001 21.22 14.2301 21.27 14.3901 21.19L20.4401 18.16C20.9401 17.91 21.2501 17.4 21.2501 16.84V11.12C21.2501 10.94 21.1401 10.85 21.0801 10.81C21.0401 10.79 20.9701 10.76 20.8901 10.76Z" fill="#797D85"/>
<path d="M41.136 18.144C40.2293 18.144 39.408 18.032 38.672 17.808C37.936 17.5733 37.296 17.2427 36.752 16.816L37.312 15.504C37.6747 15.7813 38.048 16.0107 38.432 16.192C38.8267 16.3733 39.2427 16.512 39.68 16.608C40.128 16.6933 40.6133 16.736 41.136 16.736C42.032 16.736 42.688 16.576 43.104 16.256C43.5307 15.936 43.744 15.5147 43.744 14.992C43.744 14.544 43.5947 14.1973 43.296 13.952C43.008 13.7067 42.496 13.5093 41.76 13.36L40.016 13.008C38.9813 12.7947 38.208 12.448 37.696 11.968C37.1947 11.4773 36.944 10.8107 36.944 9.968C36.944 9.28533 37.1253 8.688 37.488 8.176C37.8507 7.664 38.352 7.26933 38.992 6.992C39.6427 6.71467 40.4 6.576 41.264 6.576C42.064 6.576 42.8 6.69333 43.472 6.928C44.144 7.152 44.7093 7.488 45.168 7.936L44.624 9.2C44.144 8.784 43.632 8.48 43.088 8.288C42.544 8.08533 41.9253 7.984 41.232 7.984C40.4107 7.984 39.7653 8.15467 39.296 8.496C38.8373 8.83733 38.608 9.30133 38.608 9.888C38.608 10.3573 38.752 10.7253 39.04 10.992C39.3387 11.2587 39.8293 11.4613 40.512 11.6L42.256 11.936C43.3333 12.16 44.128 12.5067 44.64 12.976C45.152 13.4347 45.408 14.0693 45.408 14.88C45.408 15.5307 45.232 16.1013 44.88 16.592C44.5387 17.0827 44.048 17.4667 43.408 17.744C42.768 18.0107 42.0107 18.144 41.136 18.144ZM51.037 18.144C49.7357 18.144 48.7117 17.776 47.965 17.04C47.2183 16.304 46.845 15.2853 46.845 13.984C46.845 13.1413 47.005 12.4053 47.325 11.776C47.6557 11.1467 48.109 10.6613 48.685 10.32C49.2717 9.968 49.949 9.792 50.717 9.792C51.4743 9.792 52.109 9.952 52.621 10.272C53.133 10.592 53.5223 11.0453 53.789 11.632C54.0557 12.208 54.189 12.8907 54.189 13.68V14.192H48.109V13.264H53.085L52.813 13.472C52.813 12.672 52.6317 12.0533 52.269 11.616C51.917 11.168 51.405 10.944 50.733 10.944C49.9863 10.944 49.4103 11.2053 49.005 11.728C48.5997 12.24 48.397 12.9493 48.397 13.856V14.016C48.397 14.9653 48.6263 15.68 49.085 16.16C49.5543 16.64 50.2157 16.88 51.069 16.88C51.5383 16.88 51.9757 16.816 52.381 16.688C52.797 16.5493 53.1917 16.3253 53.565 16.016L54.093 17.12C53.7197 17.4507 53.2663 17.7067 52.733 17.888C52.1997 18.0587 51.6343 18.144 51.037 18.144ZM56.0114 18V11.936C56.0114 11.6053 56.0007 11.2747 55.9794 10.944C55.9687 10.6027 55.9474 10.2667 55.9154 9.936H57.4834L57.6594 12.016H57.4034C57.51 11.5147 57.6914 11.0987 57.9474 10.768C58.2034 10.4373 58.5127 10.192 58.8754 10.032C59.2487 9.872 59.638 9.792 60.0434 9.792C60.214 9.792 60.358 9.80267 60.4754 9.824C60.5927 9.83467 60.71 9.856 60.8274 9.888L60.8114 11.328C60.63 11.2533 60.47 11.2107 60.3314 11.2C60.2034 11.1787 60.0434 11.168 59.8514 11.168C59.382 11.168 58.982 11.2747 58.6514 11.488C58.3207 11.6907 58.07 11.968 57.8994 12.32C57.7287 12.672 57.6434 13.0507 57.6434 13.456V18H56.0114ZM64.927 18L61.471 9.936H63.199L65.919 16.672H65.455L68.223 9.936H69.871L66.399 18H64.927ZM71.1528 18V9.936H72.7688V18H71.1528ZM71.0247 8.256V6.576H72.8968V8.256H71.0247ZM78.6731 18.144C77.8625 18.144 77.1531 17.9787 76.5451 17.648C75.9478 17.3067 75.4838 16.8213 75.1531 16.192C74.8331 15.552 74.6731 14.7947 74.6731 13.92C74.6731 13.056 74.8385 12.3147 75.1691 11.696C75.4998 11.0773 75.9638 10.608 76.5611 10.288C77.1585 9.95733 77.8625 9.792 78.6731 9.792C79.1958 9.792 79.7025 9.88267 80.1931 10.064C80.6838 10.2347 81.0891 10.48 81.4091 10.8L80.8811 11.936C80.5825 11.648 80.2465 11.4347 79.8731 11.296C79.4998 11.1467 79.1371 11.072 78.7851 11.072C78.0171 11.072 77.4145 11.3173 76.9771 11.808C76.5398 12.2987 76.3211 13.008 76.3211 13.936C76.3211 14.8747 76.5398 15.5947 76.9771 16.096C77.4145 16.5973 78.0171 16.848 78.7851 16.848C79.1265 16.848 79.4838 16.784 79.8571 16.656C80.2305 16.5173 80.5718 16.2987 80.8811 16L81.4091 17.136C81.0785 17.456 80.6625 17.7067 80.1611 17.888C79.6705 18.0587 79.1745 18.144 78.6731 18.144ZM86.6933 18.144C85.3919 18.144 84.3679 17.776 83.6213 17.04C82.8746 16.304 82.5013 15.2853 82.5013 13.984C82.5013 13.1413 82.6613 12.4053 82.9813 11.776C83.3119 11.1467 83.7653 10.6613 84.3413 10.32C84.9279 9.968 85.6053 9.792 86.3733 9.792C87.1306 9.792 87.7653 9.952 88.2773 10.272C88.7893 10.592 89.1786 11.0453 89.4453 11.632C89.7119 12.208 89.8453 12.8907 89.8453 13.68V14.192H83.7653V13.264H88.7413L88.4693 13.472C88.4693 12.672 88.2879 12.0533 87.9253 11.616C87.5733 11.168 87.0613 10.944 86.3893 10.944C85.6426 10.944 85.0666 11.2053 84.6613 11.728C84.2559 12.24 84.0533 12.9493 84.0533 13.856V14.016C84.0533 14.9653 84.2826 15.68 84.7413 16.16C85.2106 16.64 85.8719 16.88 86.7253 16.88C87.1946 16.88 87.6319 16.816 88.0373 16.688C88.4533 16.5493 88.8479 16.3253 89.2213 16.016L89.7493 17.12C89.3759 17.4507 88.9226 17.7067 88.3893 17.888C87.8559 18.0587 87.2906 18.144 86.6933 18.144ZM94.4676 18.144C93.7956 18.144 93.177 18.0587 92.6116 17.888C92.0463 17.7173 91.577 17.4773 91.2036 17.168L91.6996 16.064C92.0943 16.3627 92.5316 16.5867 93.0116 16.736C93.4916 16.8853 93.9823 16.96 94.4836 16.96C95.0703 16.96 95.513 16.8587 95.8116 16.656C96.1103 16.4427 96.2596 16.1547 96.2596 15.792C96.2596 15.5147 96.1636 15.2907 95.9716 15.12C95.7903 14.9493 95.4863 14.8213 95.0596 14.736L93.5236 14.432C92.841 14.2827 92.3236 14.0267 91.9716 13.664C91.6196 13.3013 91.4436 12.8373 91.4436 12.272C91.4436 11.792 91.5716 11.3653 91.8276 10.992C92.0943 10.6187 92.4676 10.3253 92.9476 10.112C93.4383 9.89867 94.009 9.792 94.6596 9.792C95.257 9.792 95.8116 9.87733 96.3236 10.048C96.8356 10.2187 97.2623 10.464 97.6036 10.784L97.0916 11.856C96.761 11.5787 96.3876 11.3653 95.9716 11.216C95.5556 11.056 95.1343 10.976 94.7076 10.976C94.1103 10.976 93.6676 11.088 93.3796 11.312C93.0916 11.536 92.9476 11.8293 92.9476 12.192C92.9476 12.4693 93.033 12.6987 93.2036 12.88C93.385 13.0507 93.6676 13.184 94.0516 13.28L95.5876 13.584C96.313 13.7333 96.857 13.9787 97.2196 14.32C97.5823 14.6613 97.7636 15.12 97.7636 15.696C97.7636 16.1973 97.625 16.6347 97.3476 17.008C97.0703 17.3813 96.6863 17.664 96.1956 17.856C95.705 18.048 95.129 18.144 94.4676 18.144Z" fill="#797D85"/>
</svg>
