<svg width="24" height="24" viewBox="0 0 24 24" fill="none" xmlns="http://www.w3.org/2000/svg">
<path d="M12 22C17.5228 22 22 17.5228 22 12C22 6.47715 17.5228 2 12 2C6.47715 2 2 6.47715 2 12C2 17.5228 6.47715 22 12 22Z" fill="url(#paint0_linear_183_16293)"/>
<path d="M9 12.6625L10.0718 15.7144C10.0718 15.7144 10.2058 16 10.3492 16C10.4927 16 12.6268 13.7159 12.6268 13.7159L15 9L9.03824 11.8747L9 12.6625Z" fill="#C8DAEA"/>
<path d="M10.2206 14L10.0038 15.7603C10.0038 15.7603 9.91306 16.2996 10.6188 15.7603C11.3245 15.2209 12 14.805 12 14.805" fill="#A9C6D8"/>
<path d="M8.70449 13.246L6.22026 12.4431C6.22026 12.4431 5.92337 12.3237 6.01897 12.0528C6.03865 11.9969 6.07834 11.9493 6.1971 11.8677C6.74754 11.4871 16.3853 8.05122 16.3853 8.05122C16.3853 8.05122 16.6574 7.96027 16.8179 8.02076C16.8576 8.03295 16.8933 8.05538 16.9214 8.08576C16.9495 8.11614 16.969 8.15338 16.9778 8.19366C16.9951 8.26481 17.0024 8.33802 16.9993 8.41116C16.9986 8.47443 16.9908 8.53307 16.985 8.62503C16.9263 9.56441 15.1697 16.5753 15.1697 16.5753C15.1697 16.5753 15.0646 16.9856 14.6881 16.9996C14.5955 17.0026 14.5033 16.9871 14.417 16.9539C14.3306 16.9208 14.2519 16.8708 14.1855 16.8068C13.4465 16.1764 10.8926 14.4739 10.3282 14.0995C10.3155 14.0909 10.3048 14.0797 10.2968 14.0667C10.2888 14.0536 10.2837 14.039 10.2819 14.0238C10.274 13.9844 10.3173 13.9355 10.3173 13.9355C10.3173 13.9355 14.7644 10.0147 14.8827 9.60312C14.8919 9.57123 14.8573 9.5555 14.8108 9.56946C14.5154 9.67724 9.39514 12.8844 8.83003 13.2384C8.78935 13.2506 8.74636 13.2532 8.70449 13.246Z" fill="white"/>
<defs>
<linearGradient id="paint0_linear_183_16293" x1="12" y1="22" x2="12" y2="2" gradientUnits="userSpaceOnUse">
<stop stop-color="#1D93D2"/>
<stop offset="1" stop-color="#38B0E3"/>
</linearGradient>
</defs>
</svg>
