<svg width="160" height="97" viewBox="0 0 160 97" fill="none" xmlns="http://www.w3.org/2000/svg">
<rect y="0.616455" width="160" height="96" rx="24" fill="#F1F3F5"/>
<g clip-path="url(#clip0_854_11188)">
<path d="M84.4132 47.6139C84.6893 47.7146 84.941 47.7886 85.177 47.8963C86.4208 48.464 87.0851 49.4315 87.1114 50.8247C87.1339 51.9838 86.8012 52.9968 85.8843 53.7501C85.258 54.2645 84.5195 54.5291 83.7294 54.6377C83.3089 54.6949 82.8817 54.7265 82.4573 54.7285C80.4644 54.7374 78.4724 54.7315 76.4795 54.7315C75.9303 54.7315 75.7439 54.5478 75.7391 53.9801C75.7332 53.2288 75.7371 52.4764 75.7371 51.7251C75.7371 48.6516 75.7371 45.578 75.7381 42.5045C75.7381 42.386 75.74 42.2656 75.7635 42.1501C75.8308 41.8213 76.0171 41.6633 76.3497 41.6633C78.3495 41.6613 80.3503 41.6495 82.35 41.6712C83.0846 41.6791 83.8113 41.8025 84.4971 42.1017C85.7077 42.6319 86.3067 43.6093 86.2403 44.9422C86.1847 46.0549 85.6248 46.8517 84.7215 47.4332C84.6298 47.4925 84.5342 47.5438 84.4132 47.6149V47.6139ZM78.5778 48.9843V52.5021C78.6373 52.509 78.6812 52.5169 78.7241 52.5169C79.8625 52.5169 81.0009 52.5258 82.1393 52.5061C82.4349 52.5011 82.7383 52.434 83.0212 52.3432C83.7723 52.1013 84.1596 51.5543 84.1625 50.7852C84.1654 50.0042 83.7606 49.396 83.027 49.165C82.6817 49.0564 82.31 48.9912 81.9491 48.9833C80.8917 48.9596 79.8342 48.9744 78.7758 48.9744C78.7182 48.9744 78.6597 48.9803 78.5778 48.9853V48.9843ZM78.6002 43.8739C78.5836 43.9223 78.5709 43.943 78.5709 43.9638C78.567 44.879 78.5651 45.7933 78.5602 46.7085C78.5602 46.8546 78.6509 46.8507 78.7524 46.8507C79.7523 46.8477 80.7522 46.8576 81.7511 46.8369C82.0008 46.8319 82.2613 46.7608 82.4934 46.6641C83.0856 46.4173 83.3811 45.8575 83.3226 45.1624C83.2699 44.5433 82.9187 44.0892 82.2798 43.9776C81.7501 43.8848 81.2009 43.8897 80.6595 43.8779C79.9766 43.8631 79.2938 43.8739 78.6012 43.8739H78.6002Z" fill="#005296"/>
<path d="M56.4487 41.6593C56.7062 41.6593 56.9637 41.6573 57.2203 41.6593C57.59 41.6632 57.7861 41.7867 57.8885 42.151C58.0543 42.7434 58.188 43.3437 58.3363 43.941C58.8289 45.9285 59.3449 47.911 60.1965 49.78C60.4238 50.2776 60.6931 50.7594 60.9838 51.2215C61.4549 51.9708 62.051 51.959 62.5348 51.2156C63.2216 50.1621 63.6683 48.997 63.9873 47.7896C64.4351 46.0914 64.8194 44.3764 65.233 42.6693C65.2838 42.461 65.3394 42.2527 65.4135 42.0513C65.512 41.7866 65.7149 41.6593 65.9949 41.6583C66.5314 41.6583 67.0689 41.6553 67.6055 41.6583C68.0776 41.6603 68.3293 41.9683 68.2454 42.4491C68.1683 42.8954 68.0796 43.3387 67.9957 43.784C67.6855 45.4397 67.3313 47.0846 66.8046 48.687C66.2768 50.2934 65.6057 51.8326 64.6614 53.2376C64.2176 53.8981 63.6947 54.4786 62.9338 54.7758C61.5876 55.3011 60.178 54.9131 59.2279 53.749C58.4875 52.8417 57.9587 51.804 57.4681 50.7456C56.6477 48.9793 56.0555 47.132 55.6136 45.2344C55.401 44.325 55.2147 43.4088 55.0244 42.4936C54.9142 41.9604 55.163 41.6593 55.6966 41.6573C55.9463 41.6573 56.197 41.6573 56.4467 41.6573L56.4487 41.6593Z" fill="#005296"/>
<path d="M70.249 48.1786C70.249 46.2365 70.249 44.2955 70.248 42.3534C70.248 42.1313 70.2588 41.9101 70.4627 41.7788C70.5622 41.7146 70.6919 41.6672 70.809 41.6652C71.3894 41.6534 71.9698 41.6573 72.5512 41.6613C72.8799 41.6633 73.0985 41.8844 73.115 42.2191C73.118 42.2784 73.115 42.3386 73.115 42.3978C73.115 46.2662 73.115 50.1345 73.115 54.0038C73.115 54.5517 72.9336 54.7324 72.3863 54.7334C71.8937 54.7334 71.4011 54.7334 70.9085 54.7334C70.4451 54.7334 70.25 54.5419 70.25 54.0729C70.248 52.1091 70.25 50.1453 70.249 48.1806V48.1786Z" fill="#005296"/>
<path d="M100.638 36.5786C100.164 37.3339 99.8233 38.1751 99.2136 38.8435C98.7776 39.3213 98.1972 39.5 97.5943 39.6313C96.9846 39.7637 96.3759 39.8979 95.7682 40.0342C95.7057 40.048 95.6472 40.0786 95.5672 40.1092C95.7506 40.6957 95.9359 41.2654 96.1067 41.84C96.2179 42.2162 96.3379 42.5943 96.3993 42.9793C96.4764 43.4671 96.3769 43.9459 96.1457 44.3823C95.8033 45.029 95.4414 45.6658 95.056 46.3639C94.898 45.9551 94.7614 45.6076 94.6298 45.2581C94.1859 44.0861 93.7401 42.9162 93.306 41.7403C93.2094 41.4776 93.1353 41.2012 93.0933 40.9247C93.026 40.4795 93.1041 40.0529 93.3362 39.659C93.5957 39.2186 93.8493 38.7744 94.0981 38.3281C94.4288 37.7357 94.9614 37.4474 95.5926 37.3378C96.9358 37.1038 98.283 36.8886 99.6282 36.6674C99.9521 36.6141 100.276 36.5667 100.601 36.5164C100.613 36.5371 100.626 36.5568 100.639 36.5776L100.638 36.5786Z" fill="#E47125"/>
<path d="M90.6984 46.2138C90.637 46.1161 90.5696 46.0223 90.515 45.9216C90.2146 45.3697 89.9102 44.8197 89.6195 44.2619C89.2595 43.5718 89.3639 42.8698 89.5902 42.1668C89.7853 41.5606 89.9795 40.9544 90.1668 40.3452C90.2555 40.0569 90.2233 40.048 89.919 39.9838C89.16 39.8239 88.4021 39.6551 87.6509 39.4635C86.9388 39.2819 86.4589 38.7931 86.096 38.1711C85.8238 37.7041 85.5517 37.2371 85.2844 36.7681C85.2551 36.7158 85.258 36.6447 85.2463 36.5825C85.3068 36.5776 85.3702 36.5608 85.4288 36.5697C85.9058 36.6428 86.3828 36.7208 86.8598 36.7987C87.3505 36.8787 87.8412 36.9587 88.3318 37.0387C88.7435 37.1058 89.1581 37.1611 89.5668 37.243C89.9746 37.325 90.4019 37.3793 90.7755 37.5471C91.0769 37.6824 91.3744 37.9253 91.5608 38.1988C91.9295 38.7408 92.2241 39.3342 92.5411 39.9108C92.8065 40.3926 92.7411 40.906 92.5743 41.3819C92.1587 42.5706 91.6983 43.7426 91.2554 44.9214C91.0945 45.3499 90.9306 45.7784 90.7686 46.2069L90.6984 46.2138Z" fill="#EA8823"/>
<path d="M88.1699 63.2303C88.6323 63.332 89.0811 63.4307 89.56 63.5354C89.5288 63.6232 89.4996 63.7082 89.4605 63.8187C89.1913 63.7506 88.9308 63.6815 88.6694 63.6193C88.1719 63.5008 87.6754 63.3784 87.1759 63.2708C86.3263 63.0871 85.7253 62.4069 85.618 61.5301C85.5537 61.0108 85.5839 60.5073 85.7663 60.0185C86.2755 58.6541 87.9719 58.2818 88.9474 59.3195C89.324 59.7204 89.481 60.22 89.5103 60.758C89.5522 61.5331 89.4215 62.2598 88.8089 62.8028C88.6255 62.9647 88.4002 63.0792 88.1709 63.2293L88.1699 63.2303ZM85.9009 61.1619C85.9361 61.3297 85.9692 61.6269 86.0609 61.9053C86.297 62.6152 86.855 63.0378 87.5251 63.0496C88.1865 63.0615 88.7543 62.6616 89.0138 61.9695C89.2781 61.2645 89.2586 60.5606 88.9289 59.8774C88.3904 58.7587 87.0657 58.817 86.4706 59.4587C86.0619 59.9001 85.939 60.451 85.9009 61.1619Z" fill="#005296"/>
<path d="M55.0098 58.8288C55.1668 58.7943 55.2849 58.7992 55.3873 58.9592C56.1784 60.2012 56.9793 61.4364 57.7763 62.6735C57.788 62.6912 57.8026 62.708 57.8338 62.7475V58.8279H58.1011V63.2214C57.9353 63.2915 57.8221 63.251 57.7197 63.0901C56.9325 61.854 56.1374 60.6238 55.3444 59.3916C55.3297 59.3689 55.3083 59.3511 55.2712 59.3107V63.2352C55.1951 63.2402 55.1132 63.2461 55.0098 63.253V58.8298V58.8288Z" fill="#005296"/>
<path d="M61.4305 60.5517C61.4383 60.3799 61.4442 60.2417 61.451 60.0876H61.7242C61.7242 60.2733 61.7261 60.45 61.7242 60.6257C61.7125 61.5025 61.7144 62.3802 61.6822 63.256C61.652 64.0833 61.1379 64.5869 60.3136 64.5948C60.0131 64.5977 59.7088 64.5187 59.4113 64.4546C59.2035 64.4101 59.182 64.2788 59.3235 64.113C59.8951 64.3726 60.4902 64.5365 61.0335 64.0883C61.4608 63.7358 61.4071 63.2125 61.3915 62.6616C61.1525 62.9647 60.8999 63.1553 60.5672 63.2105C59.8502 63.331 59.2601 62.9746 59.0201 62.2736C58.7655 61.5291 59.0172 60.6781 59.5907 60.2515C60.06 59.903 60.976 59.9109 61.3466 60.4885C61.3574 60.5053 61.3808 60.5142 61.4305 60.5507V60.5517ZM61.4091 61.6101H61.3993C61.3993 61.5281 61.3993 61.4462 61.3993 61.3643C61.3974 60.7926 61.1008 60.4085 60.5692 60.2901C60.0931 60.1834 59.5966 60.447 59.3888 60.9328C59.1996 61.3741 59.1908 61.8303 59.3625 62.2785C59.5488 62.7672 59.9419 63.0081 60.4502 62.9706C60.9038 62.9371 61.2696 62.6112 61.374 62.1215C61.4091 61.9566 61.3983 61.7819 61.4081 61.6111L61.4091 61.6101Z" fill="#005296"/>
<path d="M83.0172 62.7258C82.7792 62.9854 82.5178 63.1681 82.1705 63.2184C81.5647 63.3053 81.0487 63.0486 80.7599 62.5006C80.3873 61.7937 80.558 60.835 81.1492 60.3216C81.6632 59.8744 82.4573 59.9119 82.9216 60.4056C82.9558 60.4421 82.9889 60.4786 83.0299 60.523C83.1489 60.3749 82.9343 59.9771 83.385 60.0926C83.3752 60.2634 83.3587 60.4381 83.3577 60.6119C83.3528 61.386 83.3577 62.16 83.346 62.9341C83.3421 63.1621 83.3118 63.3932 83.2631 63.6163C83.1362 64.1959 82.7363 64.498 82.1861 64.5859C81.8086 64.6461 81.4242 64.6234 81.0614 64.4634C80.8272 64.3598 80.8214 64.344 80.9726 64.1149C81.5276 64.3716 82.0993 64.5217 82.6397 64.1218C83.105 63.7772 83.0367 63.2392 83.0163 62.7267L83.0172 62.7258ZM83.108 61.6121C83.0865 61.6061 83.0641 61.6012 83.0426 61.5953C83.0426 61.4837 83.0504 61.3721 83.0416 61.2616C82.9987 60.7235 82.6807 60.37 82.1607 60.2772C81.712 60.1972 81.2126 60.4816 81.0282 60.9357C80.8633 61.3396 80.8399 61.7582 80.9677 62.1758C81.1023 62.6142 81.3882 62.9045 81.8496 62.9627C82.2749 63.016 82.6573 62.8817 82.8602 62.4898C82.9968 62.2262 83.0289 61.9073 83.1089 61.613L83.108 61.6121Z" fill="#005296"/>
<path d="M70.7749 58.573C70.9778 58.5467 71.0796 58.6263 71.0802 58.812C71.0802 59.3905 71.0802 59.9681 71.1329 60.5802C71.1905 60.5092 71.2422 60.4321 71.3065 60.367C71.6587 60.0096 72.0879 59.9247 72.5435 60.0856C73.0098 60.2505 73.2293 60.6365 73.2429 61.1193C73.2615 61.8174 73.2478 62.5154 73.2478 63.2322H72.962C72.9581 63.1463 72.9522 63.0614 72.9512 62.9755C72.9405 62.3594 72.9512 61.7413 72.9142 61.1262C72.882 60.5783 72.5298 60.2584 72.0557 60.285C71.5319 60.3137 71.0919 60.7293 71.0841 61.2259C71.0744 61.8134 71.0812 62.4009 71.0812 62.9883C71.0812 63.1772 70.9794 63.2579 70.7759 63.2302V58.573H70.7749Z" fill="#005296"/>
<path d="M104.567 61.6407C104.547 62.4937 104.961 63.0061 105.676 63.0121C105.987 63.015 106.297 62.9568 106.631 62.9252C106.741 63.0851 106.738 63.1453 106.518 63.1829C106.16 63.2431 105.79 63.3142 105.434 63.2816C104.954 63.2381 104.601 62.9449 104.393 62.4927C104.086 61.8292 104.216 60.9446 104.707 60.4144C105.09 59.9997 105.576 59.9257 106.082 60.0787C106.58 60.2288 106.8 60.6435 106.869 61.1361C106.956 61.7562 106.922 61.6338 106.428 61.6387C105.893 61.6446 105.356 61.6397 104.82 61.6397C104.741 61.6397 104.662 61.6397 104.568 61.6397L104.567 61.6407ZM106.534 61.3524C106.579 60.7274 106.239 60.2979 105.682 60.2703C105.157 60.2446 104.662 60.603 104.593 61.3524H106.534Z" fill="#005296"/>
<path d="M96.5086 61.5983C96.5086 62.4967 96.0676 63.1079 95.3184 63.2787C94.4727 63.4722 93.6552 62.8699 93.5635 61.9991C93.503 61.4205 93.5782 60.8874 93.9986 60.452C94.4503 59.983 94.9995 59.907 95.5799 60.1104C96.1603 60.3138 96.4286 60.7847 96.4978 61.383C96.5076 61.464 96.5056 61.5459 96.5086 61.5973V61.5983ZM96.1954 61.5094C96.1603 61.382 96.1193 61.153 96.0325 60.9447C95.853 60.5162 95.5194 60.2792 95.056 60.2703C94.6073 60.2624 94.2522 60.4619 94.0532 60.8706C93.7694 61.4511 93.7791 62.0347 94.142 62.5846C94.4854 63.1039 95.2492 63.1908 95.7145 62.785C96.0725 62.472 96.1847 62.0653 96.1954 61.5094Z" fill="#005296"/>
<path d="M76.2464 63.2441C75.8914 63.3438 76.0513 63.0042 75.9674 62.8215C75.8914 62.8926 75.8319 62.9499 75.7694 63.0061C75.4465 63.2964 75.0671 63.3675 74.6603 63.2697C74.3052 63.1848 74.0867 62.936 74.0311 62.5737C73.9706 62.1788 74.1277 61.8589 74.4457 61.6288C74.8271 61.3524 75.2768 61.3188 75.7245 61.2813C75.7899 61.2754 75.8562 61.2724 75.9538 61.2665C75.9528 60.9525 75.9431 60.6425 75.6719 60.444C75.2358 60.1261 74.7949 60.295 74.352 60.4875C74.3218 60.4243 74.2906 60.3611 74.2506 60.2782C74.711 60.0047 75.187 59.9168 75.6836 60.1093C76.0504 60.2515 76.2299 60.5694 76.2406 60.9476C76.2611 61.7039 76.2464 62.4611 76.2464 63.2421V63.2441ZM75.9577 61.5745C75.5304 61.536 75.1412 61.5646 74.7734 61.7394C74.5042 61.8678 74.3549 62.0889 74.3559 62.39C74.3559 62.6389 74.4408 62.858 74.6827 62.9745C75.2007 63.2243 75.906 62.8215 75.9557 62.241C75.9743 62.0277 75.9587 61.8125 75.9587 61.5745H75.9577Z" fill="#005296"/>
<path d="M64.7247 63.2411C64.3715 63.3329 64.5432 62.9982 64.4418 62.8333C64.3823 62.8876 64.3276 62.937 64.273 62.9883C63.9482 63.2885 63.5628 63.3694 63.1473 63.2727C62.801 63.1927 62.5805 62.9518 62.5161 62.6033C62.4459 62.2222 62.5825 61.9013 62.8868 61.6614C63.1687 61.4382 63.5024 61.3573 63.8477 61.3168C64.036 61.2951 64.2252 61.2822 64.4349 61.2635C64.4418 60.9317 64.4125 60.6108 64.1277 60.4223C63.7014 60.1389 63.2702 60.2939 62.8361 60.4894C62.8049 60.4282 62.7737 60.365 62.7434 60.3048C63.117 59.9809 63.8828 59.9158 64.2837 60.1675C64.5549 60.3374 64.71 60.599 64.7178 60.9051C64.7393 61.6762 64.7247 62.4473 64.7247 63.2421V63.2411ZM64.434 61.5784C63.9784 61.5281 63.515 61.5962 63.2243 61.7492C62.9405 61.8983 62.7854 62.2192 62.8468 62.5322C62.9063 62.8373 63.1083 63.0308 63.4263 63.0426C63.7023 63.0535 63.9589 62.9804 64.1725 62.779C64.5315 62.4394 64.433 62.0079 64.4349 61.5794L64.434 61.5784Z" fill="#005296"/>
<path d="M92.7451 63.2362H92.4768C92.469 63.0753 92.4612 62.9183 92.4515 62.711C92.2095 62.9914 91.9803 63.1977 91.6593 63.2747C90.9794 63.4367 90.3756 63.0625 90.3161 62.3624C90.2556 61.6457 90.2712 60.922 90.2693 60.2002C90.2693 59.983 90.4458 60.0985 90.5853 60.0689C90.5853 60.1726 90.5834 60.2585 90.5853 60.3444C90.599 60.9832 90.5785 61.6249 90.637 62.2588C90.6897 62.8383 90.9882 63.0496 91.5433 63.0141C92.0066 62.9845 92.4095 62.5649 92.4163 62.083C92.4261 61.4581 92.4193 60.8331 92.4202 60.2081C92.4202 60.1726 92.4261 60.136 92.429 60.1035C92.7304 60.0324 92.747 60.0442 92.748 60.3246C92.75 61.2399 92.7519 62.1551 92.7529 63.0704C92.7529 63.1207 92.748 63.1711 92.7451 63.2343V63.2362Z" fill="#005296"/>
<path d="M66.0973 63.2372H65.7783V60.0906H66.0368C66.0466 60.2495 66.0573 60.4065 66.07 60.606C66.19 60.4776 66.269 60.37 66.3685 60.292C66.746 59.9958 67.1694 59.9237 67.6093 60.1093C68.0395 60.291 68.2415 60.6603 68.2532 61.1154C68.2707 61.8135 68.258 62.5125 68.258 63.2372C68.1712 63.2411 68.0883 63.2461 67.9654 63.252C67.9654 63.1483 67.9664 63.0634 67.9654 62.9785C67.9556 62.3545 67.9732 61.7276 67.9264 61.1065C67.8854 60.5507 67.5284 60.2515 67.0484 60.2871C66.5148 60.3266 66.1041 60.7314 66.0983 61.2458C66.0905 61.9003 66.0963 62.5549 66.0963 63.2382L66.0973 63.2372Z" fill="#005296"/>
<path d="M77.6112 63.2234C77.2942 63.2747 77.2893 63.2708 77.2883 62.9914C77.2854 62.0692 77.2825 61.1471 77.2805 60.2249C77.2805 60.1825 77.2864 60.139 77.2903 60.0837H77.5624V60.5626L77.6522 60.6268C77.6736 60.5754 77.6834 60.5142 77.7175 60.4727C78.0502 60.0669 78.5721 59.909 79.0442 60.0669C79.4842 60.2141 79.768 60.6198 79.7788 61.1727C79.7924 61.855 79.7817 62.5372 79.7817 63.2343H79.4851C79.4851 62.9815 79.4891 62.7386 79.4851 62.4957C79.4773 62.0357 79.491 61.5726 79.4471 61.1165C79.3954 60.5715 79.1418 60.3296 78.6687 60.2871C78.2326 60.2476 77.7956 60.5497 77.6649 60.994C77.6297 61.1125 77.6151 61.2419 77.6141 61.3663C77.6093 61.9823 77.6122 62.5984 77.6122 63.2244L77.6112 63.2234Z" fill="#005296"/>
<path d="M102.59 63.2134C102.286 63.2875 102.266 63.2717 102.266 62.9853C102.266 61.7798 102.266 60.5743 102.266 59.3698V59.0795H100.826C100.819 58.9857 100.814 58.9166 100.809 58.8287H104.033C104.038 58.8949 104.042 58.965 104.05 59.0687C103.656 59.0687 103.277 59.0687 102.896 59.0687C102.692 59.0687 102.59 59.1743 102.59 59.3856C102.59 60.5832 102.59 61.7818 102.59 62.9794V63.2144V63.2134Z" fill="#005296"/>
<path d="M99.4232 62.8699C99.4496 62.947 99.472 63.0141 99.5022 63.1029C98.9423 63.3468 98.3911 63.4159 97.84 63.1326C97.3103 62.8601 97.0781 62.3842 97.0596 61.8046C97.0313 60.9476 97.4108 60.3503 98.1317 60.1005C98.518 59.9662 98.913 59.984 99.3003 60.1094C99.5452 60.1884 99.5432 60.1943 99.4066 60.4392C98.7228 60.215 98.0556 60.1449 97.5922 60.8568C97.2576 61.3702 97.2976 62.1462 97.6732 62.5945C98.159 63.174 98.7735 63.0723 99.4232 62.8699Z" fill="#005296"/>
<path d="M63.7267 58.9967C63.4399 59.1665 63.4926 59.67 62.9805 59.6296C63.1892 59.3166 63.3687 59.0273 63.5765 58.7617C63.6077 58.7212 63.8194 58.7499 63.8691 58.8121C64.0672 59.0569 64.235 59.3274 64.4242 59.6049C64.2379 59.6641 64.1081 59.6464 64.0145 59.4647C63.9306 59.3018 63.8223 59.1517 63.7258 58.9977L63.7267 58.9967Z" fill="#005296"/>
<path d="M94.4053 59.6028C94.5653 59.3313 94.7106 59.0746 94.8657 58.8248C94.9545 58.6817 95.1388 58.6678 95.2266 58.8021C95.3954 59.0588 95.5505 59.3244 95.7202 59.6028C95.531 59.669 95.411 59.6463 95.3291 59.4666C95.2569 59.3086 95.1593 59.1635 95.0501 58.9729C94.9437 59.1615 94.8501 59.3076 94.7779 59.4636C94.7018 59.6275 94.5945 59.6769 94.4053 59.6038V59.6028Z" fill="#005296"/>
<path d="M105.661 58.967C105.556 59.1516 105.461 59.2928 105.393 59.4458C105.322 59.6078 105.223 59.6769 105.01 59.6078C105.185 59.3155 105.346 59.0243 105.536 58.7537C105.562 58.7162 105.782 58.7448 105.827 58.807C106.01 59.0539 106.16 59.3264 106.331 59.6048C106.135 59.6749 106.013 59.6305 105.929 59.4518C105.857 59.2997 105.766 59.1556 105.661 58.967Z" fill="#005296"/>
<path d="M75.3566 59.6601C75.2688 59.6187 75.1586 59.5989 75.0962 59.5328C74.8591 59.284 74.6377 59.0194 74.4065 58.7577C74.743 58.6669 74.8143 58.6916 74.985 58.9552C75.1215 59.1655 75.2562 59.3758 75.3917 59.5861L75.3566 59.6601Z" fill="#005296"/>
<path d="M95.6121 58.9967C95.7311 58.7716 95.8276 58.5287 95.9798 58.3293C96.0462 58.2424 96.2266 58.2443 96.3759 58.2463C96.1252 58.5089 96.0666 58.9483 95.6121 58.9967Z" fill="#005296"/>
<path d="M107 58.2926C106.728 58.5128 106.665 58.9492 106.188 59.0558C106.34 58.7695 106.44 58.5227 106.594 58.3173C106.656 58.2354 106.835 58.2443 106.961 58.2117C106.974 58.2393 106.987 58.266 107 58.2936V58.2926Z" fill="#005296"/>
<path d="M87.3759 32.6777C88.2597 32.7112 89.1484 32.5839 90.0274 32.7794C90.6546 32.9186 91.1004 33.3352 91.516 33.7963C91.9364 34.2623 92.3578 34.7264 92.7812 35.1894C92.8241 35.2368 92.8807 35.2723 92.947 35.3266C93.3548 34.8705 93.7469 34.4203 94.1508 33.9819C94.4151 33.6946 94.6766 33.3994 94.9751 33.1516C95.3526 32.8386 95.8111 32.6836 96.2998 32.6648C97.0246 32.6372 97.7494 32.6323 98.5405 32.6165C98.2713 32.96 98.044 33.2553 97.8128 33.5475C97.0373 34.5259 96.2637 35.5073 95.4804 36.4798C95.3058 36.697 95.1068 36.9014 94.8922 37.0772C94.5468 37.3605 94.144 37.5076 93.6904 37.5037C93.1841 37.4987 92.6768 37.5017 92.1705 37.5096C91.4984 37.5195 90.9833 37.1996 90.5707 36.704C89.6928 35.6485 88.8304 34.5802 87.9622 33.5159C87.7535 33.2602 87.5486 33.0005 87.3428 32.7428L87.3759 32.6787V32.6777Z" fill="#F1AD1D"/>
</g>
<defs>
<clipPath id="clip0_854_11188">
<rect width="52" height="32" fill="white" transform="translate(55 32.6165)"/>
</clipPath>
</defs>
</svg>
