<svg width="160" height="97" viewBox="0 0 160 97" fill="none" xmlns="http://www.w3.org/2000/svg">
<rect y="0.616455" width="160" height="96" rx="24" fill="#F1F3F5"/>
<g clip-path="url(#clip0_854_11182)">
<path d="M118.39 36.6165H119.398C121.357 36.732 123.277 37.4733 124.774 38.744C126.55 40.2169 127.731 42.3926 128 44.6838V46.9077C127.866 47.8704 127.597 48.8138 127.184 49.6995C126.752 49.4973 126.339 49.2663 125.898 49.1026C125.437 48.939 124.995 48.7368 124.534 48.5828C123.565 48.2362 122.566 48.0148 121.558 47.8126C121.558 46.253 121.558 44.6838 121.558 43.1243C121.395 43.0954 121.232 43.0665 121.069 43.0665C120.042 43.0665 119.014 43.0665 117.987 43.0665C117.392 43.0665 116.806 43.0473 116.221 43.0954C116.192 43.5382 116.182 43.9811 116.202 44.4335C116.173 45.5599 116.202 46.6863 116.182 47.8126C115.558 47.9474 114.915 48.0437 114.301 48.2266C113.264 48.4961 112.266 48.8812 111.296 49.324C111.056 49.4299 110.845 49.584 110.595 49.6514C110.49 49.5166 110.442 49.3625 110.374 49.2085C109.99 48.2362 109.77 47.1965 109.722 46.1568C109.626 44.241 110.154 42.2964 111.219 40.6983C112.275 39.081 113.878 37.8391 115.683 37.1748C116.547 36.8571 117.469 36.6742 118.39 36.6165Z" fill="#0E7CD0"/>
<path d="M32 48.5732C33.0176 48.5732 34.0352 48.5539 35.0528 48.5924C35.984 51.4228 36.9248 54.2531 37.8848 57.0738C38.9408 54.2531 39.968 51.4228 40.9952 48.5924C41.8208 48.5539 42.6368 48.5924 43.4624 48.5732C43.3664 48.8909 43.232 49.1989 43.1072 49.507C41.6576 53.146 40.208 56.7753 38.7584 60.4143C37.952 60.4528 37.1456 60.4432 36.3392 60.4143C35.1008 57.0545 33.8624 53.6947 32.624 50.3349C32.4224 49.7573 32.1824 49.1989 32 48.6213V48.5732Z" fill="#B80711"/>
<path d="M101.821 48.5731C102.57 48.5731 103.318 48.5731 104.067 48.5731C104.125 48.5827 104.269 48.5346 104.269 48.6501C104.307 49.2758 104.278 49.9016 104.288 50.5274C104.288 51.8174 104.269 53.1074 104.298 54.3974C105.133 53.6272 105.872 52.7512 106.698 51.9618C106.794 51.8559 106.957 51.8944 107.082 51.8848C107.907 51.8848 108.733 51.8751 109.558 51.8944C109.203 52.3276 108.762 52.6934 108.368 53.0881C108.013 53.4154 107.686 53.7716 107.341 54.099C106.938 54.5129 106.506 54.898 106.131 55.3216C106.285 55.6104 106.506 55.8511 106.698 56.1206C107.59 57.3047 108.474 58.4888 109.357 59.673C109.539 59.9233 109.741 60.1543 109.894 60.4335C109.088 60.472 108.282 60.4431 107.475 60.4527C107.312 60.4527 107.158 60.4624 107.005 60.4335C106.928 60.3854 106.88 60.2987 106.832 60.2313C106.218 59.2012 105.584 58.1808 104.95 57.1603C104.73 56.8234 104.547 56.4672 104.307 56.1495C104.269 57.5743 104.307 59.0087 104.288 60.4335C103.472 60.4624 102.646 60.4624 101.83 60.4335C101.792 59.105 101.83 57.7668 101.811 56.4383C101.811 53.8198 101.802 51.2012 101.811 48.5923L101.821 48.5731Z" fill="#0E7CD0"/>
<path d="M111.21 50.8066C113.36 49.661 115.77 49.0352 118.199 48.9197C121.079 48.8042 123.987 49.4781 126.541 50.8258C125.495 52.4817 123.863 53.7524 122.039 54.4263C120.003 55.1869 117.699 55.1676 115.664 54.3974C114.8 54.0701 113.975 53.6177 113.255 53.04C112.458 52.4143 111.747 51.6634 111.21 50.797V50.8066Z" fill="#B80711"/>
<path d="M55.5296 49.8632C56.3552 49.8439 57.1712 49.738 57.9968 49.7188C58.016 50.4311 57.9968 51.1435 58.0064 51.8656C58.6592 51.9137 59.312 51.8656 59.9648 51.8848C59.9936 52.3565 59.9744 52.8186 59.984 53.2904C59.3216 53.2904 58.6592 53.2904 58.0064 53.2904C58.0064 54.6478 58.0064 56.0148 58.0064 57.3722C58.016 57.8246 58.0544 58.2964 58.2848 58.7007C58.4384 58.9703 58.7744 59.0473 59.072 59.028C59.3984 59.0088 59.696 58.8451 59.9936 58.72C60.1472 59.1628 60.3296 59.596 60.4544 60.0581C59.8016 60.3565 59.1104 60.578 58.4 60.6261H57.8336C57.3632 60.5876 56.8928 60.4528 56.5088 60.1736C56.0864 59.8656 55.7888 59.4035 55.6736 58.8932C55.568 58.3926 55.5296 57.8824 55.5392 57.3722C55.5392 56.0148 55.5392 54.6574 55.5392 53.3C55.1552 53.2711 54.7712 53.2904 54.3872 53.3C54.368 52.8283 54.368 52.3469 54.3872 51.8752C54.7712 51.8752 55.1552 51.9137 55.5296 51.8559C55.5296 51.1917 55.5296 50.537 55.5296 49.8728V49.8632Z" fill="#B80711"/>
<path d="M67.8465 52.472C68.6049 51.8752 69.6129 51.5863 70.5729 51.7115C71.1585 51.7596 71.7537 51.9618 72.1953 52.3661C72.6273 52.7608 72.8961 53.3192 72.9921 53.8872C73.0689 54.3782 73.1073 54.8788 73.0977 55.3697C73.0977 57.0545 73.0977 58.7392 73.0977 60.4143C72.2817 60.4239 71.4657 60.4335 70.6593 60.4143C70.6497 59.1916 70.6305 57.969 70.6593 56.7368C70.6209 55.9762 70.7073 55.2061 70.5441 54.4552C70.4577 54.0605 70.1889 53.7043 69.8049 53.5502C69.3729 53.3866 68.8929 53.4155 68.4609 53.5502C68.0481 53.685 67.7313 54.0316 67.5873 54.4359C67.4529 54.8114 67.4433 55.2253 67.4337 55.62C67.4337 57.2181 67.4337 58.8162 67.4337 60.4046C66.6177 60.4046 65.8017 60.4046 64.9857 60.4046C64.9377 60.1351 64.9761 59.8655 64.9665 59.596C64.9665 58.1423 64.9761 56.6886 64.9473 55.235C64.9569 54.1086 64.9665 52.9823 64.9665 51.8559C65.7825 51.8366 66.5985 51.8463 67.4145 51.8366C67.4433 52.1447 67.4145 52.4528 67.4337 52.7608C67.5777 52.6549 67.7217 52.5394 67.8561 52.4335L67.8465 52.472Z" fill="#B80711"/>
<path d="M95.5425 52.2314C96.3009 51.7501 97.2513 51.5864 98.1345 51.7308C98.5473 51.8078 98.9505 51.9234 99.2961 52.164C99.7953 52.501 100.141 53.0208 100.294 53.5984C100.496 54.3782 100.438 55.1869 100.467 55.9859C100.467 57.4685 100.467 58.9414 100.467 60.424C99.7281 60.4432 98.9793 60.4528 98.2401 60.424C98.1633 60.424 98.0865 60.424 98.0097 60.4047C98.0001 58.7874 98.0097 57.1604 98.0097 55.5431C98.0001 55.158 97.9713 54.7633 97.8753 54.3879C97.7793 54.0028 97.4817 53.6658 97.0977 53.5503C96.6753 53.4155 96.2145 53.4444 95.8017 53.5792C95.2929 53.7525 94.9473 54.2531 94.8609 54.7633C94.7649 55.312 94.7745 55.8704 94.7937 56.4191C94.7937 57.7477 94.7937 59.0858 94.7937 60.4143C93.9777 60.4432 93.1521 60.4432 92.3361 60.4143C92.2881 58.7296 92.3361 57.0545 92.3169 55.3698C92.3265 54.2049 92.2977 53.0401 92.3361 51.8849C93.1521 51.8656 93.9681 51.8656 94.7841 51.8849C94.7937 52.1833 94.7841 52.4817 94.7937 52.7802C95.0529 52.6165 95.2737 52.3855 95.5425 52.2314Z" fill="#0E7CD0"/>
<path d="M42.9727 51.8848C43.7887 51.8655 44.6047 51.8655 45.4207 51.8848V59.6249C45.4207 59.8944 45.4495 60.1544 45.4303 60.4239C44.9887 60.4528 44.5375 60.4335 44.0959 60.4432C43.7215 60.4432 43.3471 60.4528 42.9631 60.4239C42.9631 57.5743 42.9631 54.7344 42.9631 51.8848H42.9727Z" fill="#B80711"/>
<path d="M61.1265 51.8944C61.9521 51.8463 62.7681 51.8944 63.5937 51.8848C63.6033 52.4047 63.6321 52.9245 63.6033 53.4444C63.6033 55.7741 63.6033 58.0942 63.6033 60.4239C62.7873 60.4432 61.9617 60.4528 61.1457 60.4239C61.1457 59.3168 61.1265 58.2001 61.1361 57.093C61.1361 55.8608 61.1649 54.6285 61.1361 53.3963C61.1169 52.8957 61.1361 52.3951 61.1265 51.9041V51.8944Z" fill="#B80711"/>
<path d="M48.6944 52.0196C49.5872 51.6442 50.5952 51.5864 51.536 51.7886C52.304 51.9522 53.0048 52.4143 53.4272 53.0882C53.9552 53.9161 54.1472 54.9077 54.2048 55.88C54.2048 56.0533 54.224 56.2458 54.1376 56.3999C54.0608 56.5154 53.9072 56.525 53.7824 56.525C52.1216 56.525 50.4608 56.525 48.8 56.525C48.8192 57.0641 48.9632 57.6225 49.2896 58.0557C49.6544 58.5563 50.2592 58.8644 50.8736 58.9125C51.7568 58.9992 52.6208 58.6815 53.36 58.2097C53.6288 58.6718 53.888 59.1339 54.1088 59.6153C53.1776 60.1544 52.1504 60.5298 51.0656 60.6069H50.336C49.5296 60.5491 48.7232 60.318 48.0608 59.8367C47.1296 59.1724 46.4576 58.1424 46.2752 57.016C46.0928 55.9378 46.1792 54.7729 46.7168 53.8006C47.1584 53.0112 47.8592 52.3662 48.6944 52.0196ZM49.3568 53.5792C48.9824 54.0028 48.8864 54.5804 48.8288 55.1291C49.856 55.1291 50.8736 55.1291 51.9008 55.1291C51.92 54.6863 51.8528 54.2242 51.6512 53.8295C51.4592 53.454 51.0656 53.1845 50.6432 53.1652C50.1824 53.1267 49.6736 53.223 49.3568 53.5792Z" fill="#B80711"/>
<path d="M74.4608 48.5731H77.3312C78.0704 48.5731 78.8 48.5539 79.5392 48.6405C80.1824 48.7079 80.8544 48.8715 81.3728 49.2855C81.9872 49.7476 82.2752 50.537 82.2464 51.2879C82.2464 51.9811 81.9872 52.6934 81.4688 53.1748C81.1328 53.531 80.6816 53.7332 80.2592 53.9738C80.6816 54.0605 81.1232 54.1182 81.5072 54.3493C82.112 54.6766 82.6112 55.2157 82.8032 55.88C83.0336 56.6309 83.0048 57.4492 82.736 58.1904C82.3904 59.0569 81.6128 59.6922 80.7584 60.0292C79.616 60.4528 78.3776 60.4528 77.1776 60.4431C76.2752 60.4431 75.3632 60.4624 74.4608 60.4335C74.4608 57.5936 74.4608 54.7536 74.4608 51.904C74.4608 50.7969 74.4512 49.6898 74.48 48.5827L74.4608 48.5731ZM77.0144 50.306C77.024 51.336 77.0048 52.3565 77.0144 53.3866C77.7344 53.4251 78.5216 53.3673 79.1168 52.9245C79.6736 52.5298 79.9232 51.7693 79.7024 51.1243C79.6064 50.8354 79.376 50.5948 79.1072 50.46C78.8288 50.3252 78.512 50.3156 78.2048 50.2963C77.8112 50.2963 77.408 50.2867 77.0144 50.306ZM77.0144 55.1194C77.024 55.5238 76.9952 55.9185 77.0048 56.3228C77.0432 57.1218 76.9856 57.9305 77.024 58.7295C77.7536 58.7488 78.5216 58.8162 79.2128 58.537C79.7696 58.306 80.2016 57.7572 80.24 57.1507C80.2784 56.7271 80.24 56.2747 80 55.9089C79.7504 55.4949 79.28 55.2735 78.8192 55.1868C78.224 55.0809 77.6192 55.1002 77.0144 55.1194Z" fill="#0E7CD0"/>
<path d="M84.7999 52.3854C85.9423 51.7308 87.3151 51.519 88.6015 51.7789C89.3503 51.9137 90.0703 52.3373 90.4831 52.9823C90.9151 53.6177 90.9727 54.4071 90.9631 55.1484C90.9631 56.1207 90.9631 57.1026 90.9631 58.075C90.9631 58.874 91.0879 59.6634 91.3375 60.4143C90.5503 60.4432 89.7631 60.4143 88.9855 60.4336C88.8991 60.4143 88.7455 60.4624 88.7071 60.3469C88.6399 60.0677 88.6111 59.7693 88.5439 59.4901C88.2559 59.7212 87.9871 59.9907 87.6607 60.1736C87.2575 60.4239 86.7967 60.5587 86.3263 60.6165H85.7599C85.0111 60.5587 84.3007 60.1351 83.8879 59.4997C83.4751 58.874 83.3791 58.0653 83.5807 57.3433C83.7247 56.8331 84.0223 56.3806 84.4255 56.0437C85.1071 55.4468 85.9711 55.1099 86.8351 54.8596C87.3823 54.7055 87.9487 54.6285 88.4959 54.4649C88.3807 54.099 88.2175 53.7236 87.9007 53.5022C87.5263 53.2326 87.0271 53.1941 86.5855 53.2904C85.9519 53.4155 85.4239 53.8006 84.9343 54.1857C84.6751 53.8584 84.4543 53.5118 84.2143 53.1748C84.1663 53.0882 84.0703 53.0112 84.0991 52.9053C84.3007 52.7031 84.5695 52.5491 84.8095 52.3951L84.7999 52.3854ZM86.5951 56.6502C86.3263 56.8042 86.1055 57.0256 85.9711 57.3048C85.7599 57.7669 85.8847 58.3638 86.2975 58.6718C86.5279 58.8547 86.8351 58.8644 87.1135 58.8259C87.6127 58.7296 88.0735 58.383 88.2943 57.9209C88.5631 57.3241 88.5919 56.6502 88.5535 56.0052C87.8815 56.1303 87.1903 56.294 86.5951 56.6405V56.6502Z" fill="#0E7CD0"/>
<path d="M111.91 57.6128C112.41 57.478 112.976 57.6128 113.36 57.9786C113.878 58.46 113.965 59.336 113.562 59.9233C113.302 60.318 112.842 60.5394 112.381 60.5779C111.901 60.5779 111.402 60.395 111.104 60.0099C110.653 59.4516 110.672 58.5562 111.181 58.0364C111.382 57.8342 111.632 57.6898 111.91 57.6128ZM112.112 57.8631C111.766 57.9209 111.44 58.1423 111.277 58.4504C110.96 58.9895 111.133 59.7789 111.68 60.1062C112.083 60.3661 112.64 60.3372 113.024 60.0484C113.494 59.6922 113.629 58.9702 113.341 58.4504C113.11 58.0268 112.602 57.7861 112.122 57.8631H112.112Z" fill="#B80711"/>
<path d="M111.718 58.2001C112.064 58.2001 112.419 58.152 112.755 58.2483C113.082 58.3927 113.11 58.9799 112.755 59.1147C112.698 59.1436 112.64 59.1628 112.592 59.1917C112.736 59.442 112.918 59.6731 113.043 59.933C112.938 59.933 112.822 59.9426 112.726 59.9137C112.554 59.702 112.448 59.4324 112.275 59.211C112.189 59.1821 112.102 59.2013 112.016 59.1917C112.016 59.442 111.997 59.6827 111.997 59.933C111.901 59.933 111.814 59.933 111.718 59.933C111.718 59.3458 111.709 58.7681 111.718 58.1905V58.2001ZM111.997 58.4697C111.997 58.6237 111.997 58.7874 112.006 58.9414C112.189 58.9414 112.371 58.9607 112.544 58.9125C112.726 58.8548 112.736 58.5756 112.573 58.489C112.39 58.4312 112.189 58.4601 111.997 58.4697Z" fill="#B80711"/>
</g>
<defs>
<clipPath id="clip0_854_11182">
<rect width="96" height="24" fill="white" transform="translate(32 36.6165)"/>
</clipPath>
</defs>
</svg>
