<svg width="20" height="20" viewBox="0 0 20 20" fill="none" xmlns="http://www.w3.org/2000/svg">
<path d="M2.8379 0H17.1621C18.7294 0 20 1.3443 20 3.00249V16.9975C20 18.6557 18.7294 20 17.1621 20H2.8379C1.2706 20 0 18.6557 0 16.9975V3.00249C0 1.3443 1.2706 0 2.8379 0Z" fill="white"/>
<path d="M3.58075 17.4484C3.50256 17.4118 3.44509 17.3703 3.53741 17.2882C3.59393 17.2427 3.65517 17.2011 3.7164 17.1596C4.28822 16.77 4.82519 16.3437 5.1794 15.7157C5.47615 15.1935 5.4281 14.886 5.05694 14.5012C2.98631 12.3275 2.07818 9.72845 2.53224 6.65768C2.78942 4.92499 3.54495 3.4257 4.64526 2.12421C5.30941 1.336 6.09884 0.698107 6.96365 0.167027C7.0164 0.135379 7.08988 0.12549 7.0993 0.0434047C7.0814 -0.0020882 7.05126 0.0117575 7.02488 0.0117575C5.5534 0.0117575 4.08192 -0.0198896 2.61514 0.0206584C1.20866 0.0661513 -0.00469658 1.20743 1.36682e-05 2.84418C0.00849212 7.62489 1.36682e-05 12.4066 1.36682e-05 17.1922C1.36682e-05 18.6777 1.07866 19.9198 2.48891 19.9752C3.6806 20.0257 4.87324 19.9841 6.06964 19.9802C6.15725 19.9851 6.24392 19.9891 6.33153 19.9891H12.6367C14.209 19.9891 15.7803 19.998 17.3526 19.9891C18.8109 19.9891 19.9941 18.7519 19.9941 17.2249V17.1972V14.5151C19.9941 14.4508 20.0157 14.3826 19.9762 14.3133C19.898 14.3183 19.8669 14.3865 19.8236 14.433C18.9767 15.327 17.9762 16.047 16.8806 16.5553C14.1948 17.7975 11.4619 17.8845 8.68948 16.8857C8.44926 16.7937 8.18737 16.7848 7.93867 16.8491C7.57221 16.945 7.20952 17.0597 6.84683 17.1744C5.78137 17.5216 4.69331 17.6768 3.58075 17.4484ZM6.74603 9.7235C6.82046 9.62262 6.86002 9.56329 6.90335 9.50395C7.47518 8.74343 8.047 7.98191 8.61977 7.21645C8.78557 6.99689 8.95137 6.77141 9.05688 6.50636C9.17935 6.20374 9.0484 5.9199 8.75166 5.80913C8.62071 5.7676 8.48129 5.7498 8.34092 5.7587C7.56373 5.75375 6.78183 5.75375 6.00464 5.7587C5.89536 5.7587 5.78608 5.77254 5.68152 5.80023C5.43658 5.86452 5.28868 6.12561 5.34992 6.3867C5.39325 6.56076 5.52419 6.69822 5.69094 6.73976C5.7955 6.76745 5.90478 6.7813 6.01406 6.77635C6.48603 6.7813 6.96176 6.77635 7.43279 6.7813C7.48554 6.7813 7.55054 6.74471 7.59011 6.82679C7.55054 6.88217 7.51192 6.93657 7.47235 6.987C6.79596 7.88499 6.12334 8.78892 5.446 9.68691C5.2802 9.91141 5.19259 10.1587 5.31506 10.4346C5.43753 10.7105 5.68623 10.7599 5.93964 10.7787C6.14029 10.7926 6.34566 10.7837 6.55103 10.7837C7.25851 10.7837 7.96128 10.7886 8.66876 10.7787C9.04463 10.7738 9.24529 10.5355 9.20572 10.1695C9.17558 9.88075 8.98717 9.72943 8.63767 9.72449C8.02063 9.71955 7.40547 9.7235 6.74603 9.7235ZM11.8114 7.31238C11.266 6.81294 10.6631 6.78031 10.0734 7.14722C9.35739 7.58731 9.0955 8.30729 9.18217 9.14099C9.26507 9.92031 9.5882 10.5572 10.3654 10.8183C10.8496 10.9835 11.2999 10.9241 11.6974 10.5849C11.802 10.4979 11.8331 10.5157 11.9066 10.6126C12.0507 10.8054 12.2994 10.8786 12.518 10.7916C12.7365 10.7224 12.8807 10.5117 12.8807 10.2734C12.8854 9.35659 12.8891 8.43981 12.8807 7.52303C12.8759 7.15612 12.5491 6.92272 12.208 6.99591C12.0206 7.03744 11.916 7.17095 11.8114 7.31238ZM14.8373 9.01342C14.8194 10.1596 15.7238 11.026 16.8589 10.9063C17.9027 10.7965 18.5791 9.97569 18.5443 8.81562C18.5094 7.6694 17.6974 6.88613 16.5839 6.92272C15.5401 6.95536 14.8024 7.83555 14.8373 9.01342ZM14.4529 8.10158C14.4529 7.38161 14.4577 6.66658 14.4529 5.9466C14.4529 5.57969 14.2306 5.35025 13.8981 5.35519C13.575 5.36014 13.3611 5.58859 13.3564 5.94166C13.3517 6.15725 13.3564 6.36791 13.3564 6.5835V10.2279C13.3564 10.5117 13.5222 10.7599 13.7408 10.8193C14.0422 10.9063 14.3521 10.7184 14.4303 10.4019C14.4435 10.3466 14.452 10.2922 14.4482 10.2328C14.4577 9.52175 14.4529 8.81167 14.4529 8.10158Z" fill="#0067FC"/>
<path d="M10.0001 9.08327C9.9948 8.38966 10.3697 7.97179 10.9 8.00148C11.1289 8.01103 11.3431 8.12451 11.4796 8.31648C11.7526 8.68556 11.7526 9.30493 11.4796 9.67826C11.2171 10.0325 10.7152 10.1057 10.3602 9.84053C10.3014 9.79598 10.2479 9.74189 10.1996 9.67826C10.0778 9.50644 10.0095 9.29963 10.0001 9.08327ZM15.791 8.98994C15.791 8.38011 16.1607 7.97285 16.6868 8.00148C16.9157 8.00679 17.1299 8.12451 17.2664 8.31117C17.5436 8.6845 17.5436 9.31872 17.2612 9.6878C16.9881 10.0367 16.482 10.0961 16.1365 9.82037C16.083 9.78113 16.0389 9.73235 16 9.67826C15.8551 9.47675 15.7868 9.236 15.791 8.98994Z" fill="#FDFEFE"/>
</svg>
