<svg width="160" height="97" viewBox="0 0 160 97" fill="none" xmlns="http://www.w3.org/2000/svg">
<rect y="0.616455" width="160" height="96" rx="24" fill="#F1F3F5"/>
<g clip-path="url(#clip0_808_13231)">
<path d="M63.4119 45.6539C63.0858 45.3178 62.6717 45.1488 62.1682 45.1488C61.428 45.1488 60.8878 45.5076 60.548 46.2242C59.8222 45.3635 58.8303 44.9336 57.5728 44.9336C56.0631 44.9336 54.793 45.5219 53.7644 46.6974C52.7362 47.8733 52.2222 49.3077 52.2222 50.9997C52.2222 52.6918 52.7362 54.1257 53.7644 55.302C54.793 56.4781 56.0631 57.0656 57.5728 57.0656C58.8303 57.0656 59.8222 56.6358 60.548 55.7746C60.8878 56.4921 61.428 56.8502 62.1682 56.8502C62.6717 56.8502 63.0858 56.6821 63.4119 56.3448C63.7373 56.0087 63.8998 55.5961 63.8998 55.1081V46.8909C63.8998 46.4036 63.7373 45.9912 63.4119 45.6539ZM59.8041 53.0372C59.382 53.5863 58.8004 53.8604 58.061 53.8604C57.3203 53.8604 56.7398 53.5863 56.3181 53.0372C55.8967 52.4874 55.6855 51.8086 55.6855 50.9995C55.6855 50.1908 55.8967 49.5118 56.3181 48.9622C56.7398 48.4132 57.3203 48.1388 58.061 48.1388C58.8004 48.1388 59.382 48.4132 59.8041 48.9622C60.226 49.5118 60.437 50.1908 60.437 50.9995C60.437 51.8084 60.226 52.4874 59.8041 53.0372Z" fill="#086DFF"/>
<path d="M67.8208 56.3448C67.495 56.6821 67.0802 56.8499 66.5778 56.8499C66.074 56.8499 65.6595 56.6821 65.3341 56.3448C65.008 56.0082 64.8455 55.5954 64.8455 55.1078V40.4028C64.8455 39.9154 65.008 39.5026 65.3341 39.1658C65.6595 38.8287 66.074 38.6606 66.5778 38.6606C67.0802 38.6606 67.495 38.8287 67.8208 39.1658C68.1465 39.5026 68.309 39.9154 68.309 40.4028V55.108C68.309 55.5954 68.1465 56.0082 67.8208 56.3448Z" fill="#086DFF"/>
<path d="M79.2943 46.6974C78.1845 45.5219 76.7709 44.9336 75.0534 44.9336C73.3364 44.9336 71.9348 45.5145 70.847 46.676C69.7585 47.8375 69.2146 49.2786 69.2146 50.9995C69.2146 52.7201 69.7585 54.1612 70.847 55.323C71.9348 56.4845 73.3364 57.0656 75.0534 57.0656C76.7709 57.0656 78.1845 56.4778 79.2943 55.302C80.3601 54.1543 80.893 52.7204 80.893 50.9997C80.893 49.2786 80.3603 47.8449 79.2943 46.6974ZM76.7968 53.0372C76.3747 53.5863 75.7936 53.8604 75.0534 53.8604C74.313 53.8604 73.7324 53.5863 73.311 53.0372C72.8889 52.4874 72.6779 51.8086 72.6779 50.9995C72.6779 50.1908 72.8889 49.5118 73.311 48.9622C73.7324 48.4132 74.313 48.1388 75.0534 48.1388C75.7936 48.1388 76.3747 48.4132 76.7968 48.9622C77.2187 49.5118 77.4289 50.1908 77.4289 50.9995C77.4289 51.8084 77.219 52.4874 76.7968 53.0372Z" fill="#086DFF"/>
<path d="M50.3049 45.3404C51.5281 43.7469 52.1404 42.6732 52.1404 42.1207C52.1404 40.8425 51.3435 40.2034 49.7495 40.2034H41.3423C40.6818 40.2034 40.1709 40.361 39.8084 40.6759C39.4464 40.9915 39.265 41.4007 39.265 41.9045C39.265 42.4092 39.4464 42.8188 39.8084 43.1339C40.1709 43.449 40.6818 43.6065 41.3423 43.6065H47.1163L39.724 53.2482C39.241 53.8791 38.9995 54.4383 38.9995 54.9269C38.9995 56.3285 39.9176 57.0295 41.7532 57.0295H50.4254C51.8109 57.0295 52.5032 56.4425 52.5032 55.2684C52.5032 54.0948 51.8109 53.5077 50.4254 53.5077H44.0483L50.3049 45.3404Z" fill="#086DFF"/>
<path d="M92.0012 43.574H89.6809V48.4423H92.0012C92.6983 48.4423 93.2635 48.2126 93.6957 47.7534C94.1279 47.2941 94.344 46.7125 94.344 46.008C94.344 45.3043 94.1276 44.7222 93.6957 44.2629C93.2637 43.8037 92.6981 43.574 92.0012 43.574Z" fill="#0BCB7B"/>
<path d="M103.577 48.1526C102.841 48.1526 102.263 48.4253 101.844 48.9716C101.425 49.5182 101.215 50.1931 101.215 50.9975C101.215 51.8022 101.425 52.4776 101.844 53.0244C102.263 53.57 102.841 53.8429 103.577 53.8429C104.313 53.8429 104.891 53.57 105.311 53.0244C105.731 52.4776 105.94 51.8022 105.94 50.9975C105.94 50.1931 105.731 49.5182 105.311 48.9716C104.891 48.425 104.313 48.1526 103.577 48.1526Z" fill="#0BCB7B"/>
<path d="M119.968 36.6165H86.3302C85.2077 36.6165 84.2981 37.5349 84.2981 38.6678V58.5651C84.2981 59.698 85.2079 60.6165 86.3302 60.6165H112.885C112.604 60.3485 112.464 60.0348 112.464 59.6753C112.464 59.3819 112.529 59.0739 112.66 58.7519L113.912 55.9401L110.449 47.2107C110.347 46.9617 110.297 46.6905 110.297 46.3971C110.297 46.0161 110.456 45.6933 110.776 45.4295C111.095 45.1657 111.429 45.034 111.778 45.034C112.547 45.034 113.07 45.4076 113.346 46.1553L115.502 52.114L117.811 46.1553C118.102 45.4076 118.624 45.034 119.38 45.034C119.728 45.034 120.062 45.1657 120.382 45.4295C120.701 45.6933 120.861 46.0161 120.861 46.3971C120.861 46.6905 120.81 46.9617 120.708 47.2107L115.579 59.7851C115.438 60.1365 115.269 60.4131 115.073 60.6165H119.968C121.09 60.6165 122 59.698 122 58.5651V38.6678C121.999 37.5349 121.09 36.6165 119.968 36.6165ZM96.2092 50.0037C95.1473 50.9836 93.8129 51.4735 92.2057 51.4735H89.6808V55.2393C89.6808 55.8061 89.5214 56.2461 89.2029 56.5595C88.8844 56.8736 88.4747 57.0303 87.975 57.0303C87.4742 57.0303 87.0647 56.8736 86.7465 56.5595C86.4277 56.2461 86.2688 55.8061 86.2688 55.2393V42.3342C86.2688 41.1401 86.8601 40.5429 88.043 40.5429H92.0698C93.7528 40.5429 95.1439 41.0522 96.2439 42.0699C97.3429 43.0883 97.8927 44.4087 97.8927 46.0311C97.8922 47.6694 97.331 48.993 96.2092 50.0037ZM109.384 55.0836C109.384 55.5687 109.222 55.9788 108.899 56.3134C108.575 56.6488 108.163 56.8161 107.662 56.8161C106.926 56.8161 106.388 56.4603 106.051 55.7461C105.328 56.6026 104.342 57.03 103.091 57.03C101.59 57.03 100.327 56.4459 99.3041 55.276C98.2811 54.1066 97.77 52.6799 97.77 50.997C97.77 49.3145 98.2814 47.8878 99.3041 46.7186C100.327 45.5495 101.59 44.9644 103.091 44.9644C104.342 44.9644 105.328 45.3918 106.051 46.2478C106.388 45.5351 106.926 45.1783 107.662 45.1783C108.163 45.1783 108.574 45.3464 108.899 45.6807C109.222 46.0166 109.384 46.4264 109.384 46.9111V55.0836Z" fill="#0BCB7B"/>
</g>
<defs>
<clipPath id="clip0_808_13231">
<rect width="83" height="24" fill="white" transform="matrix(-1 0 0 1 122 36.6165)"/>
</clipPath>
</defs>
</svg>
