<svg width="69" height="24" viewBox="0 0 69 24" fill="none" xmlns="http://www.w3.org/2000/svg">
<path d="M8 22.3199C7.72 22.3199 7.42998 22.2499 7.16998 22.1099C6.59998 21.8099 6.25 21.2099 6.25 20.5699V19.15C3.23 18.84 1.25 16.6199 1.25 13.4399V7.43994C1.25 3.99994 3.56 1.68994 7 1.68994H17C20.44 1.68994 22.75 3.99994 22.75 7.43994V13.4399C22.75 16.8799 20.44 19.1899 17 19.1899H13.23L8.96997 22.03C8.67997 22.22 8.34 22.3199 8 22.3199ZM7 3.17993C4.42 3.17993 2.75 4.84993 2.75 7.42993V13.43C2.75 16.01 4.42 17.68 7 17.68C7.41 17.68 7.75 18.02 7.75 18.43V20.56C7.75 20.69 7.83 20.75 7.88 20.78C7.93001 20.81 8.03001 20.84 8.14001 20.77L12.59 17.81C12.71 17.73 12.86 17.68 13.01 17.68H17.01C19.59 17.68 21.26 16.01 21.26 13.43V7.42993C21.26 4.84993 19.59 3.17993 17.01 3.17993H7Z" fill="#797D85"/>
<path d="M11.9998 12.11C11.5898 12.11 11.2498 11.77 11.2498 11.36V11.15C11.2498 9.99002 12.0998 9.42001 12.4198 9.20001C12.7898 8.95001 12.9098 8.78002 12.9098 8.52002C12.9098 8.02002 12.4998 7.60999 11.9998 7.60999C11.4998 7.60999 11.0898 8.02002 11.0898 8.52002C11.0898 8.93002 10.7498 9.27002 10.3398 9.27002C9.92984 9.27002 9.58984 8.93002 9.58984 8.52002C9.58984 7.19002 10.6698 6.10999 11.9998 6.10999C13.3298 6.10999 14.4098 7.19002 14.4098 8.52002C14.4098 9.66002 13.5698 10.23 13.2598 10.44C12.8698 10.7 12.7498 10.87 12.7498 11.15V11.36C12.7498 11.78 12.4098 12.11 11.9998 12.11Z" fill="#797D85"/>
<path d="M12 14.6C11.58 14.6 11.25 14.26 11.25 13.85C11.25 13.44 11.59 13.1 12 13.1C12.41 13.1 12.75 13.44 12.75 13.85C12.75 14.26 12.42 14.6 12 14.6Z" fill="#797D85"/>
<path d="M37.328 18V6.72H44.56V8.048H38.992V11.664H44.192V12.992H38.992V18H37.328ZM44.3475 18L49.3715 6.72H50.7955L55.8995 18H54.1875L52.7955 14.8L53.4995 15.248H46.6675L47.4195 14.8L46.0275 18H44.3475ZM50.0595 8.544L47.6275 14.288L47.2435 13.92H52.9235L52.6035 14.288L50.1235 8.544H50.0595ZM65.1078 21.072C64.7771 20.8693 64.4411 20.608 64.0998 20.288C63.7691 19.968 63.4544 19.6107 63.1558 19.216C62.8678 18.832 62.6171 18.4373 62.4038 18.032L63.7798 17.472C64.0571 18.0267 64.4144 18.528 64.8518 18.976C65.2998 19.4347 65.7584 19.824 66.2278 20.144L65.1078 21.072ZM56.7878 12.352C56.7878 11.168 56.9958 10.144 57.4118 9.28C57.8278 8.416 58.4304 7.74933 59.2198 7.28C60.0198 6.81067 60.9691 6.576 62.0678 6.576C63.1558 6.576 64.0944 6.81067 64.8837 7.28C65.6731 7.74933 66.2811 8.416 66.7078 9.28C67.1451 10.144 67.3638 11.1627 67.3638 12.336C67.3638 13.52 67.1451 14.5493 66.7078 15.424C66.2811 16.288 65.6678 16.96 64.8678 17.44C64.0784 17.9093 63.1451 18.144 62.0678 18.144C60.9691 18.144 60.0251 17.9093 59.2358 17.44C58.4464 16.96 57.8384 16.288 57.4118 15.424C56.9958 14.5493 56.7878 13.5253 56.7878 12.352ZM58.5318 12.352C58.5318 13.7173 58.8304 14.784 59.4278 15.552C60.0251 16.32 60.9051 16.704 62.0678 16.704C63.1984 16.704 64.0731 16.3253 64.6918 15.568C65.3104 14.8 65.6198 13.728 65.6198 12.352C65.6198 10.976 65.3104 9.90933 64.6918 9.152C64.0838 8.39467 63.2091 8.016 62.0678 8.016C60.9051 8.016 60.0251 8.39467 59.4278 9.152C58.8304 9.90933 58.5318 10.976 58.5318 12.352Z" fill="#797D85"/>
</svg>
