<svg width="160" height="97" viewBox="0 0 160 97" fill="none" xmlns="http://www.w3.org/2000/svg">
<rect y="0.616455" width="160" height="96" rx="24" fill="#F1F3F5"/>
<path fill-rule="evenodd" clip-rule="evenodd" d="M36.0002 55.9346V43.5549C36.0002 43.1607 36.1549 42.8152 36.4222 42.5345C36.7032 42.2451 37.0326 42.1099 37.435 42.1099H38.81V47.2553H44.4137V42.1099H47.255V55.9346H44.4137V49.7858H38.81V55.9346H36.0002Z" fill="#C8242B"/>
<path fill-rule="evenodd" clip-rule="evenodd" d="M51.4261 53.4467H53.2352C54.5347 53.4467 55.4996 53.1017 56.1126 52.4045C56.7009 51.7587 57.0043 50.6334 57.0043 49.0232C57.0043 47.4643 56.7291 46.343 56.1608 45.6039C55.6234 44.8807 54.7769 44.5095 53.595 44.5095H51.4261V53.4467ZM48.6531 55.9346V43.5548C48.6531 43.1607 48.785 42.8152 49.066 42.5345C49.3589 42.2451 49.6911 42.1012 50.1017 42.1012H53.595C55.6932 42.1012 57.288 42.6845 58.3319 43.7927C59.3841 44.9827 59.8989 46.7224 59.8989 49.0232C59.8989 50.2557 59.713 51.3668 59.3308 52.3528C58.9007 53.3791 58.3377 54.1663 57.6403 54.6964C57.061 55.1611 56.4248 55.4756 55.7585 55.6619C55.1035 55.8578 54.1431 55.9346 52.8302 55.9346H48.6531Z" fill="#C8242B"/>
<path fill-rule="evenodd" clip-rule="evenodd" d="M70.4227 48.4511C70.9454 48.1966 71.3642 47.8304 71.6487 47.3772C71.9467 46.8953 72.0849 46.3149 72.0849 45.6039C72.0849 44.5095 71.722 43.634 70.9741 43.0048C70.2397 42.4014 69.1509 42.1012 67.7505 42.1012H62.7066C62.3263 42.1012 61.9808 42.2451 61.7024 42.5345C61.4127 42.8152 61.2827 43.1607 61.2827 43.5548V55.9346H67.5477C69.1368 55.9346 70.3718 55.5805 71.2551 54.8574C72.11 54.101 72.532 53.0588 72.532 51.7301C72.532 50.894 72.3522 50.2249 72.0087 49.7063C71.6345 49.1734 71.106 48.749 70.4227 48.4511ZM63.995 44.5095H67.1908C67.9438 44.5095 68.4756 44.6372 68.7483 44.847C69.064 45.079 69.227 45.4617 69.227 45.9718C69.227 46.4817 69.064 46.8536 68.7483 47.0964C68.4142 47.3378 67.925 47.4563 67.2211 47.4563H63.995V44.5095ZM69.064 53.0049C68.6559 53.3161 68.0789 53.4467 67.342 53.4467H63.995V49.8312H67.3085C68.1332 49.8312 68.7062 49.9584 69.064 50.2282C69.4238 50.5286 69.615 51.0041 69.615 51.6298C69.615 52.2853 69.4238 52.7328 69.064 53.0049Z" fill="#57595B"/>
<path fill-rule="evenodd" clip-rule="evenodd" d="M92.7121 45.6404C91.7248 45.0424 90.6082 44.734 89.4155 44.734C88.2505 44.7759 87.1881 45.1105 86.2143 45.7367C85.2633 46.3521 84.7734 47.5702 84.7734 49.3859V55.9346H87.6375V48.831C87.6375 48.1875 87.8234 47.7176 88.197 47.4224C88.5799 47.1388 88.9935 46.9893 89.4997 46.9893C89.9831 46.9893 90.4307 47.1388 90.8192 47.4224C91.2186 47.7176 91.4124 48.1875 91.4124 48.831V54.5714C91.4124 54.9686 91.5387 55.3227 91.7976 55.5662C92.0684 55.8153 92.3999 55.9346 92.7963 55.9346H94.2309V49.3859C94.2309 47.513 93.711 46.2811 92.7121 45.6404Z" fill="#57595B"/>
<path fill-rule="evenodd" clip-rule="evenodd" d="M82.1661 45.4928C81.3812 44.9827 80.2033 44.7169 78.6306 44.7169C77.2269 44.7169 76.1496 45.0394 75.3845 45.6405C74.7178 46.1923 74.3242 46.8759 74.2174 47.7176H77.0243C77.1562 47.4224 77.3901 47.2185 77.708 47.1166C78.0062 47.0031 78.3576 46.9493 78.7546 46.9493C79.1142 46.9493 79.5162 47.0065 79.961 47.1395C80.3802 47.2553 80.6021 47.5131 80.6021 47.9232C80.6021 48.4511 79.9838 48.8114 78.7546 48.9787C78.4952 49.0003 78.2683 49.0319 78.0732 49.0771C77.8764 49.1196 77.7109 49.1367 77.587 49.1367C76.5187 49.3017 75.6292 49.6266 74.9488 50.112C74.2509 50.5961 73.9131 51.4011 73.9131 52.5346C73.9131 53.7499 74.2816 54.623 75.0439 55.1611C75.8146 55.6768 76.6979 55.9346 77.708 55.9346C78.902 55.9346 80.0054 55.8264 80.9957 55.1761C81.053 55.3347 81.1348 55.4739 81.2412 55.5943C81.4659 55.8585 81.7674 55.9799 82.1268 55.9799H83.3816V51.4463V51.353V47.7509C83.3816 46.7819 82.9738 46.0257 82.1661 45.4928ZM80.6476 51.3186C80.6476 52.0755 80.428 52.6731 79.9668 53.1017C79.5282 53.5401 78.906 53.7499 78.1272 53.7499C77.6432 53.7499 77.2804 53.6479 77.0243 53.4221C76.7798 53.186 76.65 52.8714 76.65 52.4498C76.65 52.1632 76.7519 51.8602 76.9452 51.5679C77.1562 51.353 77.5335 51.1799 78.0397 51.0385L79.0021 50.8316C79.7136 50.6786 80.2483 50.5026 80.6476 50.321V51.3186Z" fill="#57595B"/>
<path fill-rule="evenodd" clip-rule="evenodd" d="M101.32 49.3407L105.066 44.7169H101.75L98.3886 49.0003V45.2468V43.4299C98.3886 43.0925 98.2504 42.775 98.0008 42.5148C97.7335 42.2313 97.4155 42.1012 97.0435 42.1012H95.6182V55.9346H98.3886V53.3613V51.8836C98.3886 51.6739 98.5314 51.5084 98.8187 51.4011C99.1116 51.2792 99.4547 51.5914 99.8574 52.3248L101.797 55.9346H105.115L101.32 49.3407Z" fill="#57595B"/>
<path fill-rule="evenodd" clip-rule="evenodd" d="M111.612 38.6768L111.665 38.6522C111.667 38.6607 111.659 38.6724 111.638 38.6724L111.612 38.6768Z" fill="#F7A81A"/>
<path fill-rule="evenodd" clip-rule="evenodd" d="M111.466 38.7019L111.619 38.6302L111.654 38.6437C111.671 38.6437 111.671 38.6723 111.638 38.6723L111.466 38.7019Z" fill="#F7A81A"/>
<path fill-rule="evenodd" clip-rule="evenodd" d="M111.665 38.6522L111.612 38.6768C111.515 38.6938 111.418 38.7104 111.319 38.7265L111.568 38.6105C111.597 38.6218 111.625 38.6332 111.654 38.6437C111.66 38.6437 111.664 38.6474 111.665 38.6522Z" fill="#F9AA18"/>
<path fill-rule="evenodd" clip-rule="evenodd" d="M111.62 38.6303L111.467 38.7017L111.196 38.7466L111.525 38.5933C111.556 38.6062 111.588 38.6184 111.62 38.6303Z" fill="#F9AC18"/>
<path fill-rule="evenodd" clip-rule="evenodd" d="M111.573 38.6124L111.333 38.7242L111.073 38.7661L111.483 38.5748C111.513 38.5878 111.543 38.6003 111.573 38.6124Z" fill="#F9AC18"/>
<path fill-rule="evenodd" clip-rule="evenodd" d="M111.525 38.5933L111.196 38.7466L110.969 38.7823L111.448 38.5592C111.473 38.5709 111.499 38.5823 111.525 38.5933Z" fill="#F9AC18"/>
<path fill-rule="evenodd" clip-rule="evenodd" d="M111.483 38.575L111.076 38.7656L110.849 38.8003L111.406 38.54C111.431 38.5522 111.457 38.5635 111.483 38.575Z" fill="#F9AC18"/>
<path fill-rule="evenodd" clip-rule="evenodd" d="M111.447 38.5592L110.969 38.7823L110.702 38.822L111.357 38.5155C111.387 38.5305 111.417 38.5453 111.447 38.5592Z" fill="#F9AC18"/>
<path fill-rule="evenodd" clip-rule="evenodd" d="M111.406 38.5402L110.85 38.8003L110.583 38.8391L111.317 38.4951C111.346 38.5106 111.376 38.5257 111.406 38.5402Z" fill="#F9AC18"/>
<path fill-rule="evenodd" clip-rule="evenodd" d="M111.358 38.5158L110.704 38.8218L110.474 38.8542L111.285 38.478C111.308 38.491 111.333 38.5035 111.358 38.5158Z" fill="#F9AE18"/>
<path fill-rule="evenodd" clip-rule="evenodd" d="M111.319 38.4965L110.589 38.8381L110.35 38.8712L111.243 38.4546C111.268 38.4687 111.294 38.483 111.319 38.4965Z" fill="#F9AE18"/>
<path fill-rule="evenodd" clip-rule="evenodd" d="M111.284 38.4778L110.474 38.8542L110.24 38.8858L111.208 38.4344C111.233 38.4494 111.259 38.4637 111.284 38.4778Z" fill="#F7AE18"/>
<path fill-rule="evenodd" clip-rule="evenodd" d="M111.243 38.4546L110.35 38.8712L110.108 38.9027L111.164 38.4077C111.19 38.4238 111.217 38.4393 111.243 38.4546Z" fill="#F7AE18"/>
<path fill-rule="evenodd" clip-rule="evenodd" d="M111.207 38.4341L110.238 38.8861L110 38.9161L111.131 38.3866C111.156 38.4027 111.181 38.4189 111.207 38.4341Z" fill="#F7AF18"/>
<path fill-rule="evenodd" clip-rule="evenodd" d="M111.164 38.4079L110.109 38.9027L109.858 38.9336L111.088 38.3591C111.113 38.3758 111.139 38.3919 111.164 38.4079Z" fill="#F7B118"/>
<path fill-rule="evenodd" clip-rule="evenodd" d="M111.131 38.3866L110 38.9161L109.784 38.9424L111.068 38.3453L111.131 38.3866Z" fill="#F7B118"/>
<path fill-rule="evenodd" clip-rule="evenodd" d="M111.088 38.3593L109.859 38.9334L109.658 38.9569L111.031 38.3188L111.088 38.3593Z" fill="#F9B116"/>
<path fill-rule="evenodd" clip-rule="evenodd" d="M111.068 38.3454L109.784 38.9424L109.546 38.9692L110.994 38.2925C111.018 38.3106 111.043 38.3281 111.068 38.3454Z" fill="#F9B116"/>
<path fill-rule="evenodd" clip-rule="evenodd" d="M111.03 38.3185L109.657 38.957L109.442 38.9804L110.961 38.2679C110.984 38.2852 111.007 38.3019 111.03 38.3185Z" fill="#F9B116"/>
<path fill-rule="evenodd" clip-rule="evenodd" d="M110.994 38.2926L109.547 38.9692L109.301 38.9952L110.92 38.2356C110.944 38.2549 110.969 38.2742 110.994 38.2926Z" fill="#F9B316"/>
<path fill-rule="evenodd" clip-rule="evenodd" d="M110.966 38.2716L109.454 38.9791L109.191 39.006L110.89 38.212C110.915 38.2323 110.94 38.2521 110.966 38.2716Z" fill="#F9B516"/>
<path fill-rule="evenodd" clip-rule="evenodd" d="M110.92 38.2357L109.301 38.9951L109.114 39.0136L110.87 38.1949L110.92 38.2357Z" fill="#F9B516"/>
<path fill-rule="evenodd" clip-rule="evenodd" d="M110.89 38.2122L109.191 39.0062L109.015 39.0228L110.84 38.1691C110.856 38.1835 110.873 38.1982 110.89 38.2122Z" fill="#F9B516"/>
<path fill-rule="evenodd" clip-rule="evenodd" d="M110.87 38.1949L109.113 39.0135L108.898 39.0332L110.809 38.1423L110.87 38.1949Z" fill="#F9B516"/>
<path fill-rule="evenodd" clip-rule="evenodd" d="M110.841 38.1699L109.012 39.0231L108.823 39.0397L110.789 38.1246L110.841 38.1699Z" fill="#F9B515"/>
<path fill-rule="evenodd" clip-rule="evenodd" d="M110.809 38.1423L108.898 39.0332L108.701 39.0498L110.753 38.0905L110.809 38.1423Z" fill="#F9B616"/>
<path fill-rule="evenodd" clip-rule="evenodd" d="M110.789 38.1248L108.824 39.0396L108.599 39.0577L110.725 38.0645C110.746 38.0849 110.767 38.105 110.789 38.1248Z" fill="#F9B616"/>
<path fill-rule="evenodd" clip-rule="evenodd" d="M110.753 38.0905L108.701 39.0499L108.491 39.0657L110.697 38.037L110.753 38.0905Z" fill="#F9B615"/>
<path fill-rule="evenodd" clip-rule="evenodd" d="M110.728 38.0673L108.607 39.0572L108.407 39.0717L110.678 38.0167L110.728 38.0673Z" fill="#F9B615"/>
<path fill-rule="evenodd" clip-rule="evenodd" d="M110.697 38.0371L108.492 39.0656L108.306 39.0782L110.644 37.9817L110.697 38.0371Z" fill="#FBB813"/>
<path fill-rule="evenodd" clip-rule="evenodd" d="M110.677 38.0164L108.407 39.0717L108.2 39.0848L110.619 37.9558C110.638 37.9764 110.658 37.9964 110.677 38.0164Z" fill="#FBB813"/>
<path fill-rule="evenodd" clip-rule="evenodd" d="M110.643 37.9815L108.306 39.0782L108.115 39.0895L110.595 37.9291L110.643 37.9815Z" fill="#FBBA13"/>
<path fill-rule="evenodd" clip-rule="evenodd" d="M110.619 37.9557L108.2 39.0848L108.019 39.0946L110.57 37.9003C110.586 37.9189 110.602 37.9375 110.619 37.9557Z" fill="#FBBA13"/>
<path fill-rule="evenodd" clip-rule="evenodd" d="M110.596 37.9291L108.116 39.0894L107.927 39.0989L110.553 37.8816L110.596 37.9291Z" fill="#F9BA13"/>
<path fill-rule="evenodd" clip-rule="evenodd" d="M110.57 37.9002L108.019 39.0946L107.843 39.1026L110.524 37.8467L110.57 37.9002Z" fill="#F9BA13"/>
<path fill-rule="evenodd" clip-rule="evenodd" d="M110.553 37.8818L107.929 39.099L107.753 39.1061L110.501 37.8195L110.553 37.8818Z" fill="#F9BC13"/>
<path fill-rule="evenodd" clip-rule="evenodd" d="M110.523 37.8464L107.843 39.1026L107.647 39.1094L110.477 37.7893L110.523 37.8464Z" fill="#F9BC13"/>
<path fill-rule="evenodd" clip-rule="evenodd" d="M110.505 37.8237L107.756 39.1058C107.687 39.1084 107.619 39.1102 107.553 39.1117L110.45 37.7555C110.468 37.7786 110.486 37.8012 110.505 37.8237Z" fill="#F9BC13"/>
<path fill-rule="evenodd" clip-rule="evenodd" d="M110.476 37.789L107.645 39.1094L107.495 39.1129L110.435 37.7351L110.476 37.789Z" fill="#F9BD11"/>
<path fill-rule="evenodd" clip-rule="evenodd" d="M110.451 37.7555L107.553 39.1117L107.405 39.1144L110.416 37.71L110.451 37.7555Z" fill="#F9BD11"/>
<path fill-rule="evenodd" clip-rule="evenodd" d="M110.435 37.7353L107.496 39.1129L107.321 39.1149L110.396 37.6827L110.435 37.7353Z" fill="#FBBD11"/>
<path fill-rule="evenodd" clip-rule="evenodd" d="M110.416 37.71L107.405 39.1144L107.239 39.1151L110.367 37.642L110.416 37.71Z" fill="#FBBD11"/>
<path fill-rule="evenodd" clip-rule="evenodd" d="M110.396 37.6828L107.322 39.1149C107.251 39.1152 107.183 39.1149 107.116 39.114L110.348 37.6145C110.364 37.6375 110.38 37.6603 110.396 37.6828Z" fill="#FBBF13"/>
<path fill-rule="evenodd" clip-rule="evenodd" d="M110.367 37.6411L107.234 39.1151L107.065 39.1133L110.328 37.5854L110.367 37.6411Z" fill="#FBBF13"/>
<path fill-rule="evenodd" clip-rule="evenodd" d="M110.348 37.6146L107.116 39.1141L106.979 39.1113L110.306 37.5515L110.348 37.6146Z" fill="#FBC115"/>
<path fill-rule="evenodd" clip-rule="evenodd" d="M110.328 37.5857L107.066 39.1132C107.011 39.112 106.958 39.1107 106.906 39.1087L110.291 37.5288L110.328 37.5857Z" fill="#FBC115"/>
<path fill-rule="evenodd" clip-rule="evenodd" d="M110.307 37.5525L106.98 39.1113L106.895 39.1084L106.814 39.1066L110.272 37.4991L110.307 37.5525Z" fill="#FBC115"/>
<path fill-rule="evenodd" clip-rule="evenodd" d="M110.291 37.5287L106.907 39.1087L106.895 39.1085C106.841 39.1076 106.787 39.106 106.735 39.1035L110.248 37.4596L110.291 37.5287Z" fill="#FDC313"/>
<path fill-rule="evenodd" clip-rule="evenodd" d="M110.272 37.4992L106.815 39.1065C106.762 39.105 106.709 39.1024 106.657 39.099L110.232 37.4333L110.272 37.4992Z" fill="#FDC313"/>
<path fill-rule="evenodd" clip-rule="evenodd" d="M110.248 37.4596L106.735 39.1034C106.678 39.1007 106.622 39.0972 106.568 39.0924L110.21 37.3953L110.248 37.4596Z" fill="#FDC311"/>
<path fill-rule="evenodd" clip-rule="evenodd" d="M110.232 37.4336L106.657 39.0991C106.612 39.0963 106.569 39.093 106.526 39.0886L110.199 37.3776L110.232 37.4336Z" fill="#FDC311"/>
<path fill-rule="evenodd" clip-rule="evenodd" d="M110.211 37.3978L106.569 39.0926C106.525 39.0888 106.482 39.0842 106.44 39.079L110.175 37.3345L110.211 37.3978Z" fill="#FDC311"/>
<path fill-rule="evenodd" clip-rule="evenodd" d="M110.199 37.3784L106.533 39.0893C106.482 39.0845 106.433 39.0787 106.384 39.0718L110.164 37.3143L110.199 37.3784Z" fill="#FDC411"/>
<path fill-rule="evenodd" clip-rule="evenodd" d="M110.175 37.3345L106.44 39.079C106.399 39.074 106.36 39.0685 106.322 39.0622L110.142 37.2753L110.175 37.3345Z" fill="#FDC411"/>
<path fill-rule="evenodd" clip-rule="evenodd" d="M110.164 37.3147L106.389 39.0722C106.344 39.0659 106.299 39.0588 106.256 39.0508L110.127 37.2457L110.164 37.3147Z" fill="#FDC611"/>
<path fill-rule="evenodd" clip-rule="evenodd" d="M110.142 37.2749L106.321 39.0622C106.279 39.0553 106.238 39.0479 106.198 39.0394L110.106 37.2047L110.142 37.2749Z" fill="#FDC611"/>
<path fill-rule="evenodd" clip-rule="evenodd" d="M110.127 37.2458L106.256 39.0508C106.221 39.0443 106.187 39.037 106.153 39.0294L110.096 37.1851L110.127 37.2458Z" fill="#FDC60F"/>
<path fill-rule="evenodd" clip-rule="evenodd" d="M110.105 37.2027L106.184 39.0362C106.152 39.0294 106.121 39.0219 106.091 39.0141L110.079 37.1516L110.105 37.2027Z" fill="#FDC60F"/>
<path fill-rule="evenodd" clip-rule="evenodd" d="M110.096 37.185L106.153 39.0293C106.113 39.02 106.073 39.0097 106.035 38.9984L110.062 37.1163L110.096 37.185Z" fill="#FDC60F"/>
<path fill-rule="evenodd" clip-rule="evenodd" d="M110.079 37.1518L106.092 39.0141C106.055 39.0044 106.019 38.9941 105.984 38.9828L110.05 37.0914L110.079 37.1518Z" fill="#FDC60E"/>
<path fill-rule="evenodd" clip-rule="evenodd" d="M110.062 37.1164L106.035 38.9985C105.999 38.9882 105.965 38.9768 105.931 38.9649L110.031 37.0515L110.062 37.1164Z" fill="#FDC60E"/>
<path fill-rule="evenodd" clip-rule="evenodd" d="M110.05 37.0914L105.984 38.9828C105.955 38.9735 105.926 38.9635 105.899 38.953L110.021 37.0281L110.05 37.0914Z" fill="#FFCA0C"/>
<path fill-rule="evenodd" clip-rule="evenodd" d="M110.031 37.0512L105.931 38.9648C105.898 38.953 105.866 38.9404 105.835 38.9269L110.005 36.991L110.031 37.0512Z" fill="#FFCA0C"/>
<path fill-rule="evenodd" clip-rule="evenodd" d="M110.021 37.0279L105.899 38.9532C105.868 38.9414 105.838 38.9289 105.809 38.9156L109.992 36.9625L110.021 37.0279Z" fill="#FFCA0A"/>
<path fill-rule="evenodd" clip-rule="evenodd" d="M110.005 36.9908L105.834 38.9266C105.811 38.9165 105.788 38.906 105.765 38.8948L109.977 36.9271L110.005 36.9908Z" fill="#FFCA0A"/>
<path fill-rule="evenodd" clip-rule="evenodd" d="M109.992 36.9623L105.808 38.9152C105.778 38.9016 105.749 38.8871 105.721 38.8718L109.961 36.8888L109.992 36.9623Z" fill="#FFCA0A"/>
<path fill-rule="evenodd" clip-rule="evenodd" d="M109.977 36.9281L105.766 38.895C105.735 38.88 105.706 38.864 105.678 38.8472L109.949 36.8584L109.977 36.9281Z" fill="#FDCA0C"/>
<path fill-rule="evenodd" clip-rule="evenodd" d="M109.961 36.8888L105.722 38.872C105.695 38.8574 105.669 38.8419 105.643 38.8256L109.933 36.8195L109.961 36.8888Z" fill="#FDCA0C"/>
<path fill-rule="evenodd" clip-rule="evenodd" d="M109.949 36.8584L105.678 38.8469C105.658 38.8353 105.639 38.8233 105.621 38.8107L109.925 36.7987L109.949 36.8584Z" fill="#FDCA0C"/>
<path fill-rule="evenodd" clip-rule="evenodd" d="M109.933 36.8195L105.643 38.8253C105.62 38.8105 105.598 38.7949 105.576 38.7788L109.911 36.7605L109.933 36.8195Z" fill="#FDCA0C"/>
<path fill-rule="evenodd" clip-rule="evenodd" d="M109.925 36.7987L105.621 38.8107C105.597 38.7946 105.574 38.7778 105.552 38.7601L109.897 36.7239L109.925 36.7987Z" fill="#FDCA0C"/>
<path fill-rule="evenodd" clip-rule="evenodd" d="M109.911 36.7621L105.583 38.7846C105.561 38.7683 105.54 38.7511 105.519 38.7333L109.885 36.6936L109.911 36.7621Z" fill="#FDCD0C"/>
<path fill-rule="evenodd" clip-rule="evenodd" d="M109.897 36.7239L105.552 38.7601C105.529 38.7418 105.507 38.7229 105.486 38.7029L109.873 36.6573L109.897 36.7239Z" fill="#FDCD0C"/>
<path fill-rule="evenodd" clip-rule="evenodd" d="M109.885 36.6931L105.519 38.7333C105.498 38.7149 105.477 38.6958 105.458 38.6758L109.861 36.6234L109.885 36.6931Z" fill="#FBCD0E"/>
<path fill-rule="evenodd" clip-rule="evenodd" d="M109.873 36.6573L105.486 38.7029C105.467 38.6851 105.448 38.6668 105.431 38.6477L109.849 36.5895L109.873 36.6573Z" fill="#FBCD0E"/>
<path fill-rule="evenodd" clip-rule="evenodd" d="M109.861 36.6232L105.457 38.6755C105.443 38.661 105.429 38.646 105.416 38.6307L109.84 36.5624L109.861 36.6232Z" fill="#FBCD0C"/>
<path fill-rule="evenodd" clip-rule="evenodd" d="M109.849 36.59L105.433 38.6497C105.417 38.632 105.401 38.6136 105.386 38.5948L109.827 36.5211L109.849 36.59Z" fill="#FBCD0C"/>
<path fill-rule="evenodd" clip-rule="evenodd" d="M109.84 36.5621L105.416 38.6309C105.4 38.6121 105.384 38.5927 105.369 38.5725L109.817 36.4902L109.84 36.5621Z" fill="#FBCD0C"/>
<path fill-rule="evenodd" clip-rule="evenodd" d="M109.826 36.5207L105.386 38.5948C105.37 38.5741 105.354 38.5524 105.339 38.5301L109.805 36.4535L109.826 36.5207Z" fill="#FBCF0C"/>
<path fill-rule="evenodd" clip-rule="evenodd" d="M109.817 36.4903L105.369 38.5727C105.353 38.5508 105.338 38.5282 105.323 38.5047L109.792 36.4117L109.817 36.4903Z" fill="#FBCF0C"/>
<path fill-rule="evenodd" clip-rule="evenodd" d="M109.804 36.4528L105.339 38.5301C105.326 38.5105 105.314 38.4902 105.302 38.4696L109.785 36.3861L109.804 36.4528Z" fill="#FDD10A"/>
<path fill-rule="evenodd" clip-rule="evenodd" d="M109.792 36.4117L105.323 38.5046C105.311 38.4848 105.299 38.4647 105.288 38.4437L109.774 36.351L109.792 36.4117Z" fill="#FDD10A"/>
<path fill-rule="evenodd" clip-rule="evenodd" d="M109.785 36.3861L105.302 38.4693C105.291 38.4506 105.281 38.4313 105.271 38.4117L109.765 36.3196L109.785 36.3861Z" fill="#FDD10A"/>
<path fill-rule="evenodd" clip-rule="evenodd" d="M109.774 36.351L105.288 38.4438C105.277 38.4229 105.266 38.4012 105.256 38.3791L109.756 36.2856L109.774 36.351Z" fill="#FBD10C"/>
<path fill-rule="evenodd" clip-rule="evenodd" d="M109.765 36.3195L105.271 38.4116C105.262 38.392 105.253 38.3719 105.244 38.3513L109.743 36.239L109.765 36.3195Z" fill="#FBD108"/>
<path fill-rule="evenodd" clip-rule="evenodd" d="M109.756 36.286L105.256 38.3786C105.246 38.3556 105.236 38.3319 105.227 38.3076L109.735 36.2104L109.756 36.286Z" fill="#FBD108"/>
<path fill-rule="evenodd" clip-rule="evenodd" d="M109.743 36.2391L105.244 38.3513C105.234 38.3284 105.226 38.3049 105.217 38.2807L109.726 36.1764L109.743 36.2391Z" fill="#FBD108"/>
<path fill-rule="evenodd" clip-rule="evenodd" d="M109.735 36.2101L105.227 38.3076C105.219 38.287 105.212 38.2662 105.206 38.2446L109.718 36.1425L109.735 36.2101Z" fill="#FBD307"/>
<path fill-rule="evenodd" clip-rule="evenodd" d="M109.726 36.1761L105.217 38.2804C105.209 38.2573 105.202 38.234 105.196 38.2097L109.708 36.1023L109.726 36.1761Z" fill="#FBD307"/>
<path fill-rule="evenodd" clip-rule="evenodd" d="M109.718 36.1423L105.205 38.2441C105.199 38.2236 105.193 38.2028 105.188 38.1815L109.702 36.0811L109.718 36.1423Z" fill="#FBD401"/>
<path fill-rule="evenodd" clip-rule="evenodd" d="M109.708 36.1022L105.196 38.2098C105.19 38.1897 105.185 38.1691 105.18 38.1481L109.693 36.0415L109.708 36.1022Z" fill="#FBD401"/>
<path fill-rule="evenodd" clip-rule="evenodd" d="M109.702 36.0814L105.188 38.182L105.175 38.1236L109.685 36.0067L109.702 36.0814Z" fill="#FBD401"/>
<path fill-rule="evenodd" clip-rule="evenodd" d="M109.693 36.0413L105.18 38.1474C105.175 38.1272 105.171 38.1065 105.167 38.0857L109.677 35.9719L109.693 36.0413Z" fill="#FBD400"/>
<path fill-rule="evenodd" clip-rule="evenodd" d="M109.685 36.0061L105.174 38.1218C105.168 38.0914 105.163 38.0605 105.158 38.0284L109.666 35.9231L109.685 36.0061Z" fill="#FBD400"/>
<path fill-rule="evenodd" clip-rule="evenodd" d="M109.677 35.9714L105.167 38.0856C105.162 38.0584 105.158 38.0304 105.155 38.0016L109.66 35.8936L109.677 35.9714Z" fill="#FBD400"/>
<path fill-rule="evenodd" clip-rule="evenodd" d="M109.666 35.9238L105.158 38.0281C105.155 38.0053 105.152 37.982 105.15 37.9586L109.653 35.861L109.666 35.9238Z" fill="#FBD600"/>
<path fill-rule="evenodd" clip-rule="evenodd" d="M109.66 35.8937L105.155 38.0017L105.147 37.9287L109.645 35.8231L109.66 35.8937Z" fill="#FBD600"/>
<path fill-rule="evenodd" clip-rule="evenodd" d="M109.653 35.8633L105.15 37.9619C105.147 37.9366 105.145 37.9109 105.144 37.8846L109.639 35.7953L109.653 35.8633Z" fill="#FBD600"/>
<path fill-rule="evenodd" clip-rule="evenodd" d="M109.645 35.8236L105.147 37.9287L105.142 37.858L109.631 35.7548L109.645 35.8236Z" fill="#FBD600"/>
<path fill-rule="evenodd" clip-rule="evenodd" d="M109.639 35.7951L105.144 37.8843L105.14 37.8066L109.623 35.714L109.639 35.7951Z" fill="#FBD800"/>
<path fill-rule="evenodd" clip-rule="evenodd" d="M109.631 35.7534L105.142 37.8507C105.141 37.8226 105.14 37.794 105.14 37.7649L109.616 35.6749L109.631 35.7534Z" fill="#FBD800"/>
<path fill-rule="evenodd" clip-rule="evenodd" d="M109.623 35.7136L105.14 37.8068L105.14 37.7597L105.14 37.7392L109.612 35.6508L109.623 35.7136Z" fill="#FBDA00"/>
<path fill-rule="evenodd" clip-rule="evenodd" d="M109.616 35.6749L105.14 37.7649V37.7597C105.14 37.7344 105.141 37.7088 105.142 37.6834L109.604 35.6044L109.616 35.6749Z" fill="#FBDA00"/>
<path fill-rule="evenodd" clip-rule="evenodd" d="M109.612 35.6507L105.14 37.7395C105.141 37.7133 105.141 37.6868 105.142 37.6602L109.597 35.5646L109.612 35.6507Z" fill="#FBDA00"/>
<path fill-rule="evenodd" clip-rule="evenodd" d="M109.604 35.6049L105.142 37.6834L105.146 37.6019L109.592 35.5332L109.604 35.6049Z" fill="#FBDA00"/>
<path fill-rule="evenodd" clip-rule="evenodd" d="M109.597 35.5644L105.142 37.6602C105.144 37.6306 105.146 37.6007 105.148 37.5709L109.586 35.4984L109.597 35.5644Z" fill="#FBDA00"/>
<path fill-rule="evenodd" clip-rule="evenodd" d="M109.592 35.5332L105.146 37.6018L105.153 37.5194L109.579 35.4572L109.592 35.5332Z" fill="#FDDB00"/>
<path fill-rule="evenodd" clip-rule="evenodd" d="M109.586 35.4976L105.148 37.5704L105.156 37.4871L109.574 35.4209L109.586 35.4976Z" fill="#FDDB00"/>
<path fill-rule="evenodd" clip-rule="evenodd" d="M109.579 35.4571L105.153 37.5213C105.155 37.4957 105.158 37.4699 105.161 37.444L109.569 35.3884L109.579 35.4571Z" fill="#FDDB00"/>
<path fill-rule="evenodd" clip-rule="evenodd" d="M109.574 35.4209L105.156 37.4871C105.16 37.4563 105.164 37.4255 105.169 37.3945L109.563 35.3502L109.574 35.4209Z" fill="#FDDB00"/>
<path fill-rule="evenodd" clip-rule="evenodd" d="M109.569 35.388L105.161 37.4444L105.173 37.3662L109.558 35.3138L109.569 35.388Z" fill="#FDDB00"/>
<path fill-rule="evenodd" clip-rule="evenodd" d="M109.563 35.3504L105.169 37.3951L105.182 37.3143L109.554 35.2782L109.563 35.3504Z" fill="#FDDB00"/>
<path fill-rule="evenodd" clip-rule="evenodd" d="M109.558 35.3138L105.173 37.3663C105.178 37.335 105.184 37.3036 105.19 37.2722L109.548 35.2356L109.558 35.3138Z" fill="#FDDB00"/>
<path fill-rule="evenodd" clip-rule="evenodd" d="M109.554 35.2787L105.182 37.3143L105.197 37.2353L109.544 35.2051L109.554 35.2787Z" fill="#FDDB00"/>
<path fill-rule="evenodd" clip-rule="evenodd" d="M109.549 35.2414L105.189 37.2755L105.21 37.1784L109.538 35.1548L109.549 35.2414Z" fill="#FDDB00"/>
<path fill-rule="evenodd" clip-rule="evenodd" d="M109.544 35.2051L105.197 37.2353C105.203 37.2051 105.21 37.1746 105.217 37.144L109.535 35.1312L109.544 35.2051Z" fill="#FDDB00"/>
<path fill-rule="evenodd" clip-rule="evenodd" d="M109.538 35.1548L105.209 37.1784L105.231 37.0884L109.528 35.0758L109.538 35.1548Z" fill="#FDDB00"/>
<path fill-rule="evenodd" clip-rule="evenodd" d="M109.535 35.1312L105.217 37.144L105.239 37.057L109.527 35.0612L109.535 35.1312Z" fill="#FDDB00"/>
<path fill-rule="evenodd" clip-rule="evenodd" d="M109.528 35.0754L105.231 37.0876L105.253 37.0079L109.522 35.0149L109.528 35.0754Z" fill="#FDDB00"/>
<path fill-rule="evenodd" clip-rule="evenodd" d="M109.527 35.0605L105.239 37.0572C105.247 37.0266 105.256 36.9958 105.265 36.9651L109.519 34.9885L109.527 35.0605Z" fill="#FDDB00"/>
<path fill-rule="evenodd" clip-rule="evenodd" d="M109.522 35.0192L105.253 37.0074L105.279 36.9166L109.515 34.946L109.522 35.0192Z" fill="#FDDB00"/>
<path fill-rule="evenodd" clip-rule="evenodd" d="M109.519 34.9885L105.265 36.965L105.293 36.8735L109.509 34.8942L109.519 34.9885Z" fill="#FDDB00"/>
<path fill-rule="evenodd" clip-rule="evenodd" d="M109.515 34.9456L105.28 36.9165L105.307 36.8303L109.507 34.8661L109.515 34.9456Z" fill="#FDDB00"/>
<path fill-rule="evenodd" clip-rule="evenodd" d="M109.509 34.8938L105.294 36.8709C105.305 36.8386 105.315 36.8063 105.327 36.7741L109.503 34.8248L109.509 34.8938Z" fill="#FDDB00"/>
<path fill-rule="evenodd" clip-rule="evenodd" d="M109.507 34.8649L105.31 36.8216L105.337 36.7453L109.501 34.8024L109.507 34.8649Z" fill="#FDDB00"/>
<path fill-rule="evenodd" clip-rule="evenodd" d="M109.503 34.825L105.327 36.7736L105.355 36.6956L109.498 34.762L109.503 34.825Z" fill="#FDDB00"/>
<path fill-rule="evenodd" clip-rule="evenodd" d="M109.501 34.8024L105.336 36.746C105.349 36.7104 105.362 36.6752 105.376 36.6394L109.495 34.7224L109.501 34.8024Z" fill="#FDDB00"/>
<path fill-rule="evenodd" clip-rule="evenodd" d="M109.498 34.762L105.354 36.6956L105.393 36.5962L109.491 34.6774L109.498 34.762Z" fill="#FDDB00"/>
<path fill-rule="evenodd" clip-rule="evenodd" d="M109.495 34.7224L105.376 36.6394L105.412 36.5489L109.488 34.6324L109.495 34.7224Z" fill="#FDDB00"/>
<path fill-rule="evenodd" clip-rule="evenodd" d="M109.491 34.6774L105.393 36.5968C105.408 36.5581 105.424 36.5193 105.441 36.4804L109.486 34.6022L109.491 34.6774Z" fill="#FDDB00"/>
<path fill-rule="evenodd" clip-rule="evenodd" d="M109.488 34.6324L105.412 36.5485L105.459 36.4381L109.483 34.5643L109.488 34.6324Z" fill="#FDDB00"/>
<path fill-rule="evenodd" clip-rule="evenodd" d="M109.486 34.6021L105.441 36.4804L105.48 36.3915L109.48 34.522L109.486 34.6021Z" fill="#FDDB00"/>
<path fill-rule="evenodd" clip-rule="evenodd" d="M109.483 34.5632L105.463 36.4298L105.506 36.3355L109.478 34.4774L109.483 34.5632Z" fill="#FDDB00"/>
<path fill-rule="evenodd" clip-rule="evenodd" d="M109.48 34.522L105.48 36.3916L105.525 36.2951L109.476 34.4485L109.48 34.522Z" fill="#FDDB00"/>
<path fill-rule="evenodd" clip-rule="evenodd" d="M109.478 34.4774L105.506 36.3355L105.554 36.2334L109.474 34.4054L109.478 34.4774Z" fill="#FDDB00"/>
<path fill-rule="evenodd" clip-rule="evenodd" d="M109.476 34.4484L105.524 36.2957L105.573 36.1957L109.472 34.3684L109.476 34.4484Z" fill="#FDDB00"/>
<path fill-rule="evenodd" clip-rule="evenodd" d="M109.474 34.4054L105.554 36.2341L105.602 36.1389L109.47 34.3265L109.474 34.4054Z" fill="#FDDB00"/>
<path fill-rule="evenodd" clip-rule="evenodd" d="M109.472 34.3685L105.573 36.1958L105.625 36.0931L109.469 34.2957L109.472 34.3685Z" fill="#FDDB00"/>
<path fill-rule="evenodd" clip-rule="evenodd" d="M109.47 34.326L105.602 36.1389L105.652 36.0429L109.467 34.2487L109.47 34.326Z" fill="#FDDB00"/>
<path fill-rule="evenodd" clip-rule="evenodd" d="M109.469 34.2958L105.624 36.096L105.689 35.9749L109.465 34.2128L109.469 34.2958Z" fill="#FDDB00"/>
<path fill-rule="evenodd" clip-rule="evenodd" d="M109.467 34.2491L105.652 36.0428L105.713 35.9311L109.464 34.1764L109.467 34.2491Z" fill="#FDDB00"/>
<path fill-rule="evenodd" clip-rule="evenodd" d="M109.465 34.2128L105.688 35.9753L105.749 35.8667L109.463 34.137L109.465 34.2128Z" fill="#FDDB00"/>
<path fill-rule="evenodd" clip-rule="evenodd" d="M109.464 34.1762L105.713 35.9307L105.77 35.8304L109.462 34.0939L109.464 34.1762Z" fill="#FDDB00"/>
<path fill-rule="evenodd" clip-rule="evenodd" d="M109.463 34.1369L105.75 35.8667L105.809 35.7647L109.461 34.0623L109.463 34.1369Z" fill="#FDDB00"/>
<path fill-rule="evenodd" clip-rule="evenodd" d="M109.462 34.0939L105.77 35.8304C105.795 35.7887 105.819 35.7467 105.845 35.7051L109.46 34.0187L109.462 34.0939Z" fill="#FDDB00"/>
<path fill-rule="evenodd" clip-rule="evenodd" d="M109.461 34.0623L105.809 35.7648L105.874 35.6572L109.459 33.9832L109.461 34.0623Z" fill="#FDDB00"/>
<path fill-rule="evenodd" clip-rule="evenodd" d="M109.46 34.0187L105.845 35.7052L105.908 35.6037L109.458 33.9512L109.46 34.0187Z" fill="#FDDB00"/>
<path fill-rule="evenodd" clip-rule="evenodd" d="M109.459 33.9917L105.872 35.6617L105.94 35.5528L109.458 33.9124L109.459 33.9917Z" fill="#FDDB00"/>
<path fill-rule="evenodd" clip-rule="evenodd" d="M109.458 33.9511L105.908 35.6037L105.98 35.4914L109.457 33.865L109.458 33.9511Z" fill="#FDDB00"/>
<path fill-rule="evenodd" clip-rule="evenodd" d="M109.458 33.9118L105.941 35.5524L106.015 35.4383L109.457 33.824L109.458 33.9118Z" fill="#FDDB00"/>
<path fill-rule="evenodd" clip-rule="evenodd" d="M109.457 33.865L105.98 35.4909L106.051 35.385L109.456 33.7963L109.457 33.865Z" fill="#FDDB00"/>
<path fill-rule="evenodd" clip-rule="evenodd" d="M109.456 33.824L106.015 35.4383C106.042 35.3977 106.069 35.3573 106.097 35.3172L109.456 33.7432L109.456 33.824Z" fill="#FDDB00"/>
<path fill-rule="evenodd" clip-rule="evenodd" d="M109.456 33.7963L106.051 35.385L106.127 35.2737L109.456 33.7246L109.456 33.7963Z" fill="#FDDB00"/>
<path fill-rule="evenodd" clip-rule="evenodd" d="M109.456 33.7481L106.095 35.3197L106.178 35.2012L109.456 33.6621L109.456 33.7481Z" fill="#FDDB00"/>
<path fill-rule="evenodd" clip-rule="evenodd" d="M109.456 33.725L106.127 35.2736L106.215 35.1507L109.456 33.6368L109.456 33.725Z" fill="#FDDB00"/>
<path fill-rule="evenodd" clip-rule="evenodd" d="M109.456 33.6621L106.178 35.2012L106.267 35.0786L109.456 33.5861L109.456 33.6621Z" fill="#FDDB00"/>
<path fill-rule="evenodd" clip-rule="evenodd" d="M109.456 33.6368L106.215 35.1506L106.308 35.0245L109.456 33.5586L109.456 33.6368Z" fill="#FDDB00"/>
<path fill-rule="evenodd" clip-rule="evenodd" d="M109.456 33.5863L106.267 35.0785L106.35 34.9682L109.456 33.5198L109.456 33.5863Z" fill="#FDDB00"/>
<path fill-rule="evenodd" clip-rule="evenodd" d="M109.456 33.5586L106.307 35.0254L106.404 34.8983L109.457 33.4878L109.456 33.5586Z" fill="#FDDB00"/>
<path fill-rule="evenodd" clip-rule="evenodd" d="M109.456 33.5199L106.353 34.9652L106.443 34.8491L109.457 33.4502L109.456 33.5199Z" fill="#FDDB00"/>
<path fill-rule="evenodd" clip-rule="evenodd" d="M109.456 33.4878L106.404 34.8984L106.509 34.7655L109.457 33.3918L109.456 33.4878Z" fill="#FDDB00"/>
<path fill-rule="evenodd" clip-rule="evenodd" d="M109.457 33.4507L106.442 34.8496C106.477 34.8053 106.512 34.7615 106.548 34.7179L109.458 33.3511L109.457 33.4507Z" fill="#FDDB00"/>
<path fill-rule="evenodd" clip-rule="evenodd" d="M109.458 33.3919L106.509 34.7658L106.602 34.6523L109.459 33.3179L109.458 33.3919Z" fill="#FDDB00"/>
<path fill-rule="evenodd" clip-rule="evenodd" d="M109.458 33.351L106.548 34.7178L106.65 34.5936L109.459 33.2792L109.458 33.351Z" fill="#FDDB00"/>
<path fill-rule="evenodd" clip-rule="evenodd" d="M109.459 33.3178L106.602 34.6525C106.636 34.6107 106.671 34.5693 106.706 34.5284L109.46 33.2521L109.459 33.3178Z" fill="#FDDB00"/>
<path fill-rule="evenodd" clip-rule="evenodd" d="M109.459 33.2782L106.651 34.5926C106.694 34.5422 106.737 34.4925 106.78 34.4432L109.461 33.1897L109.459 33.2782Z" fill="#FDDB00"/>
<path fill-rule="evenodd" clip-rule="evenodd" d="M109.46 33.2524L106.704 34.5305C106.747 34.48 106.791 34.4299 106.835 34.3805L109.461 33.1517L109.46 33.2524Z" fill="#FDDB00"/>
<path fill-rule="evenodd" clip-rule="evenodd" d="M109.461 33.1899L106.775 34.4478L106.882 34.3276L109.462 33.1221L109.461 33.1899Z" fill="#FDDB00"/>
<path fill-rule="evenodd" clip-rule="evenodd" d="M109.461 33.1516L106.835 34.3799C106.874 34.3356 106.914 34.2924 106.953 34.2491L109.462 33.0773L109.461 33.1516Z" fill="#FDDB00"/>
<path fill-rule="evenodd" clip-rule="evenodd" d="M109.462 33.1221L106.882 34.3276C106.922 34.283 106.963 34.2386 107.003 34.1952L109.463 33.0477L109.462 33.1221Z" fill="#FDDB00"/>
<path fill-rule="evenodd" clip-rule="evenodd" d="M109.462 33.0773L106.953 34.2492C106.997 34.2015 107.041 34.1542 107.085 34.1078L109.464 32.9955L109.462 33.0773Z" fill="#FDDB00"/>
<path fill-rule="evenodd" clip-rule="evenodd" d="M109.463 33.0477L107.003 34.1952C107.048 34.1474 107.092 34.1005 107.137 34.0541L109.464 32.9729L109.463 33.0477Z" fill="#FDDB00"/>
<path fill-rule="evenodd" clip-rule="evenodd" d="M109.464 32.9955L107.085 34.1078C107.137 34.0541 107.188 34.0016 107.24 33.9499L109.464 32.9087V32.9955Z" fill="#FDDB00"/>
<path fill-rule="evenodd" clip-rule="evenodd" d="M109.464 32.9729L107.137 34.0538C107.189 34.0002 107.241 33.9477 107.293 33.8961L109.463 32.8807L109.464 32.9729Z" fill="#FDDB00"/>
<path fill-rule="evenodd" clip-rule="evenodd" d="M109.464 32.9087L107.24 33.9499C107.283 33.9063 107.326 33.8636 107.369 33.8215L109.462 32.8425L109.464 32.9087Z" fill="#FDDB00"/>
<path fill-rule="evenodd" clip-rule="evenodd" d="M109.463 32.8807L107.293 33.8961C107.348 33.8422 107.402 33.7897 107.457 33.7381L109.459 32.8009C109.461 32.8204 109.463 32.847 109.463 32.8807Z" fill="#FDDB00"/>
<path fill-rule="evenodd" clip-rule="evenodd" d="M109.462 32.8424L107.372 33.8194C107.422 33.7708 107.472 33.7233 107.522 33.6769L109.453 32.7739L109.455 32.7809C109.458 32.7937 109.461 32.815 109.462 32.8424Z" fill="#FDDB00"/>
<path fill-rule="evenodd" clip-rule="evenodd" d="M109.459 32.8009L107.457 33.7378C107.509 33.6891 107.56 33.6415 107.611 33.5953L109.442 32.7412C109.447 32.7534 109.452 32.7667 109.455 32.781L109.459 32.8009Z" fill="#FDDB00"/>
<path fill-rule="evenodd" clip-rule="evenodd" d="M109.453 32.7739L107.521 33.6774C107.582 33.6206 107.643 33.5659 107.703 33.5129L109.427 32.7107C109.437 32.7287 109.447 32.7496 109.453 32.7739Z" fill="#FDDB00"/>
<path fill-rule="evenodd" clip-rule="evenodd" d="M109.442 32.7416L107.61 33.596C107.678 33.5347 107.745 33.4759 107.812 33.4192L109.399 32.6758C109.417 32.6932 109.431 32.7149 109.442 32.7416Z" fill="#FDDB00"/>
<path fill-rule="evenodd" clip-rule="evenodd" d="M109.427 32.7109L107.703 33.5134C107.774 33.4503 107.845 33.39 107.915 33.3324L109.373 32.6547C109.394 32.6688 109.412 32.6873 109.427 32.7109Z" fill="#FDDB00"/>
<path fill-rule="evenodd" clip-rule="evenodd" d="M109.399 32.6763L107.811 33.4203C107.88 33.3612 107.949 33.3045 108.016 33.251L109.339 32.6366C109.362 32.6459 109.382 32.6592 109.399 32.6763Z" fill="#FDDB00"/>
<path fill-rule="evenodd" clip-rule="evenodd" d="M109.373 32.6547L107.916 33.3324C107.994 33.2682 108.071 33.2077 108.146 33.151L109.285 32.6216C109.318 32.6272 109.348 32.638 109.373 32.6547Z" fill="#FDDB00"/>
<path fill-rule="evenodd" clip-rule="evenodd" d="M109.338 32.6364L108.017 33.2503C108.12 33.1684 108.221 33.0934 108.319 33.0256L109.193 32.6176L109.216 32.6165C109.262 32.6165 109.303 32.6224 109.338 32.6364Z" fill="#FDDB00"/>
<path fill-rule="evenodd" clip-rule="evenodd" d="M109.284 32.6216L108.146 33.151C108.26 33.0652 108.37 32.988 108.475 32.921L109.1 32.6299C109.142 32.6213 109.18 32.6165 109.216 32.6165C109.24 32.6165 109.263 32.618 109.284 32.6216Z" fill="#FDDB00"/>
<path fill-rule="evenodd" clip-rule="evenodd" d="M109.193 32.6176L108.319 33.0255C108.676 32.7766 108.985 32.6277 109.193 32.6176Z" fill="#FDDB00"/>
<path fill-rule="evenodd" clip-rule="evenodd" d="M109.11 32.6278L108.462 32.9292C108.716 32.7662 108.939 32.6606 109.11 32.6278Z" fill="#FDDB00"/>
<path fill-rule="evenodd" clip-rule="evenodd" d="M108.717 40.3959L108.636 40.8567C108.619 40.7042 108.605 40.5521 108.594 40.4005L108.717 40.3959Z" fill="#F7AE18"/>
<path fill-rule="evenodd" clip-rule="evenodd" d="M108.609 40.5898L108.643 40.3987L108.802 40.3926L108.671 41.1335C108.646 40.9519 108.625 40.7706 108.609 40.5898Z" fill="#F7AF18"/>
<path fill-rule="evenodd" clip-rule="evenodd" d="M108.636 40.8568L108.717 40.3959L108.876 40.3898L108.704 41.3611C108.678 41.1929 108.655 41.0246 108.636 40.8568Z" fill="#F7AF18"/>
<path fill-rule="evenodd" clip-rule="evenodd" d="M108.671 41.134L108.802 40.3926L108.959 40.3862L108.745 41.6057C108.717 41.4485 108.693 41.2912 108.671 41.134Z" fill="#F7B118"/>
<path fill-rule="evenodd" clip-rule="evenodd" d="M108.704 41.3577L108.875 40.3897L109.04 40.3826L108.787 41.8299C108.756 41.6726 108.728 41.5152 108.704 41.3577Z" fill="#F7B118"/>
<path fill-rule="evenodd" clip-rule="evenodd" d="M108.747 41.6135L108.963 40.3861L109.12 40.3788L108.828 42.031C108.798 41.8921 108.771 41.7527 108.747 41.6135Z" fill="#F7B118"/>
<path fill-rule="evenodd" clip-rule="evenodd" d="M108.787 41.8294L109.039 40.3826L109.204 40.3748L108.874 42.2404C108.843 42.1037 108.814 41.9666 108.787 41.8294Z" fill="#F9B316"/>
<path fill-rule="evenodd" clip-rule="evenodd" d="M108.828 42.0337L109.122 40.3785L109.285 40.3707L108.92 42.4349C108.887 42.3015 108.857 42.1678 108.828 42.0337Z" fill="#F9B316"/>
<path fill-rule="evenodd" clip-rule="evenodd" d="M108.876 42.2488L109.207 40.3745L109.353 40.3667L108.96 42.5949C108.93 42.48 108.903 42.3645 108.876 42.2488Z" fill="#F9B316"/>
<path fill-rule="evenodd" clip-rule="evenodd" d="M108.92 42.435L109.285 40.3708L109.443 40.3618L109.013 42.7962C108.981 42.6763 108.949 42.5557 108.92 42.435Z" fill="#F9B316"/>
<path fill-rule="evenodd" clip-rule="evenodd" d="M108.964 42.6104L109.358 40.3666L109.528 40.3569L109.066 42.9841C109.03 42.86 108.996 42.7355 108.964 42.6104Z" fill="#F9B316"/>
<path fill-rule="evenodd" clip-rule="evenodd" d="M109.013 42.796L109.443 40.3618L109.608 40.3523L109.115 43.1513C109.08 43.0335 109.046 42.9149 109.013 42.796Z" fill="#F9B316"/>
<path fill-rule="evenodd" clip-rule="evenodd" d="M109.066 42.9835L109.528 40.357L109.686 40.3472L109.161 43.3027C109.128 43.1967 109.096 43.0903 109.066 42.9835Z" fill="#F9B316"/>
<path fill-rule="evenodd" clip-rule="evenodd" d="M109.115 43.1513L109.608 40.3523L109.763 40.3422L109.212 43.4603C109.178 43.3579 109.146 43.2548 109.115 43.1513Z" fill="#F9B516"/>
<path fill-rule="evenodd" clip-rule="evenodd" d="M109.162 43.3038L109.687 40.3471L109.853 40.3363L109.271 43.6392C109.233 43.5281 109.197 43.4162 109.162 43.3038Z" fill="#F9B516"/>
<path fill-rule="evenodd" clip-rule="evenodd" d="M109.212 43.4595L109.762 40.3422L109.932 40.3312L109.324 43.7904C109.285 43.6809 109.248 43.5704 109.212 43.4595Z" fill="#F9B616"/>
<path fill-rule="evenodd" clip-rule="evenodd" d="M109.273 43.6437L109.854 40.3361L110.01 40.3253L109.374 43.9308C109.34 43.8356 109.306 43.74 109.273 43.6437Z" fill="#F9B616"/>
<path fill-rule="evenodd" clip-rule="evenodd" d="M109.321 43.7837L109.926 40.3315L110.094 40.3192L109.432 44.0874C109.394 43.9867 109.357 43.8856 109.321 43.7837Z" fill="#F7B616"/>
<path fill-rule="evenodd" clip-rule="evenodd" d="M109.374 43.9303L110.009 40.3255L110.178 40.313L109.486 44.2268C109.447 44.1287 109.41 44.0297 109.374 43.9303Z" fill="#F7B616"/>
<path fill-rule="evenodd" clip-rule="evenodd" d="M109.432 44.0869L110.094 40.3191L110.259 40.307L109.545 44.3755C109.506 44.28 109.469 44.1837 109.432 44.0869Z" fill="#F7B616"/>
<path fill-rule="evenodd" clip-rule="evenodd" d="M109.485 44.2261L110.178 40.313L110.336 40.3007L109.598 44.5067C109.56 44.4137 109.522 44.3204 109.485 44.2261Z" fill="#F7B616"/>
<path fill-rule="evenodd" clip-rule="evenodd" d="M109.544 44.3744L110.258 40.307L110.416 40.2941L109.65 44.6317C109.614 44.5465 109.579 44.4607 109.544 44.3744Z" fill="#F7B616"/>
<path fill-rule="evenodd" clip-rule="evenodd" d="M109.598 44.5068L110.336 40.3008L110.492 40.288L109.707 44.7628C109.67 44.6781 109.634 44.5928 109.598 44.5068Z" fill="#F9B815"/>
<path fill-rule="evenodd" clip-rule="evenodd" d="M109.65 44.6307L110.415 40.2942L110.578 40.2808L109.76 44.8826C109.723 44.7993 109.686 44.7153 109.65 44.6307Z" fill="#F9B815"/>
<path fill-rule="evenodd" clip-rule="evenodd" d="M109.707 44.7635L110.492 40.2877L110.665 40.2731L109.825 45.0255C109.785 44.9388 109.746 44.8517 109.707 44.7635Z" fill="#F9BA13"/>
<path fill-rule="evenodd" clip-rule="evenodd" d="M109.766 44.8956L110.582 40.2804L110.743 40.266L109.883 45.1493C109.843 45.0654 109.804 44.981 109.766 44.8956Z" fill="#F9BA13"/>
<path fill-rule="evenodd" clip-rule="evenodd" d="M109.825 45.025L110.665 40.2731L110.828 40.2583L109.945 45.2781C109.904 45.1948 109.865 45.11 109.825 45.025Z" fill="#F9BA13"/>
<path fill-rule="evenodd" clip-rule="evenodd" d="M109.883 45.1491L110.743 40.266L110.914 40.2505L110.008 45.4057C109.965 45.321 109.924 45.2356 109.883 45.1491Z" fill="#F9BA13"/>
<path fill-rule="evenodd" clip-rule="evenodd" d="M109.945 45.2778L110.827 40.2584L110.985 40.2437L110.055 45.498C110.017 45.4252 109.981 45.352 109.945 45.2778Z" fill="#F9BA13"/>
<path fill-rule="evenodd" clip-rule="evenodd" d="M110.008 45.4056L110.914 40.2507L111.077 40.2347L110.127 45.6391C110.087 45.5621 110.047 45.4842 110.008 45.4056Z" fill="#F9BC13"/>
<path fill-rule="evenodd" clip-rule="evenodd" d="M110.056 45.5015L110.986 40.2435L111.146 40.2277L110.178 45.735C110.137 45.658 110.096 45.5801 110.056 45.5015Z" fill="#F9BC13"/>
<path fill-rule="evenodd" clip-rule="evenodd" d="M110.127 45.6401L111.078 40.2345L111.233 40.2192L110.24 45.8496C110.202 45.7804 110.165 45.7108 110.127 45.6401Z" fill="#F9BC13"/>
<path fill-rule="evenodd" clip-rule="evenodd" d="M110.178 45.735L111.146 40.2277L111.316 40.2106L110.301 45.9584C110.259 45.8849 110.219 45.8104 110.178 45.735Z" fill="#F9BC13"/>
<path fill-rule="evenodd" clip-rule="evenodd" d="M110.245 45.8583L111.236 40.2189L111.392 40.2024L110.361 46.0643C110.322 45.9963 110.283 45.9278 110.245 45.8583Z" fill="#F9BC13"/>
<path fill-rule="evenodd" clip-rule="evenodd" d="M110.301 45.9592L111.317 40.2104L111.475 40.1936L110.422 46.1696C110.381 46.1003 110.341 46.0302 110.301 45.9592Z" fill="#F9BC13"/>
<path fill-rule="evenodd" clip-rule="evenodd" d="M110.361 46.0644L111.392 40.2024L111.558 40.1848L110.488 46.2801C110.445 46.2092 110.403 46.1372 110.361 46.0644Z" fill="#F9BC13"/>
<path fill-rule="evenodd" clip-rule="evenodd" d="M110.424 46.1727L111.476 40.1935L111.642 40.1755L110.548 46.3792C110.507 46.3114 110.465 46.2423 110.424 46.1727Z" fill="#F9BF13"/>
<path fill-rule="evenodd" clip-rule="evenodd" d="M110.488 46.2801L111.558 40.1848L111.719 40.1665L110.609 46.4753C110.568 46.4109 110.528 46.3461 110.488 46.2801Z" fill="#F9BF13"/>
<path fill-rule="evenodd" clip-rule="evenodd" d="M110.548 46.3787L111.642 40.1755L111.797 40.1577L110.67 46.5726C110.629 46.5089 110.589 46.4442 110.548 46.3787Z" fill="#F7BF16"/>
<path fill-rule="evenodd" clip-rule="evenodd" d="M110.609 46.4757L111.719 40.1664L111.883 40.1478L110.732 46.666C110.69 46.6037 110.65 46.54 110.609 46.4757Z" fill="#F7BF16"/>
<path fill-rule="evenodd" clip-rule="evenodd" d="M110.67 46.5726L111.797 40.1577L111.967 40.1379L110.803 46.7731C110.759 46.7072 110.714 46.6405 110.67 46.5726Z" fill="#F7BF16"/>
<path fill-rule="evenodd" clip-rule="evenodd" d="M110.731 46.6656L111.883 40.1479L112.051 40.1278L110.859 46.8541C110.816 46.7922 110.774 46.7293 110.731 46.6656Z" fill="#F9C115"/>
<path fill-rule="evenodd" clip-rule="evenodd" d="M110.804 46.7736L111.968 40.138L112.13 40.1182L110.927 46.9516C110.886 46.8932 110.844 46.8338 110.804 46.7736Z" fill="#F9C313"/>
<path fill-rule="evenodd" clip-rule="evenodd" d="M110.857 46.8526L112.045 40.1284L112.214 40.1079L110.985 47.0319C110.942 46.9731 110.9 46.9135 110.857 46.8526Z" fill="#F9C313"/>
<path fill-rule="evenodd" clip-rule="evenodd" d="M110.929 46.9542L112.131 40.1179L112.295 40.0977L111.053 47.1248C111.011 47.0691 110.97 47.0119 110.929 46.9542Z" fill="#F9C313"/>
<path fill-rule="evenodd" clip-rule="evenodd" d="M110.995 47.0457L112.22 40.1073L112.386 40.0861L111.137 47.2356C111.089 47.1736 111.042 47.1102 110.995 47.0457Z" fill="#F9C313"/>
<path fill-rule="evenodd" clip-rule="evenodd" d="M111.053 47.1248L112.295 40.0977L112.459 40.0765L111.184 47.2961C111.14 47.2399 111.096 47.1832 111.053 47.1248Z" fill="#F9C313"/>
<path fill-rule="evenodd" clip-rule="evenodd" d="M111.137 47.2355L112.385 40.086L112.546 40.0652L111.254 47.3854C111.215 47.3363 111.176 47.2863 111.137 47.2355Z" fill="#F9C313"/>
<path fill-rule="evenodd" clip-rule="evenodd" d="M111.183 47.2951L112.457 40.0769L112.624 40.0549L111.318 47.4626C111.273 47.4079 111.228 47.352 111.183 47.2951Z" fill="#F9C311"/>
<path fill-rule="evenodd" clip-rule="evenodd" d="M111.26 47.3929L112.55 40.0649L112.704 40.0439L111.385 47.5438C111.344 47.4944 111.302 47.4443 111.26 47.3929Z" fill="#FBC611"/>
<path fill-rule="evenodd" clip-rule="evenodd" d="M111.311 47.4548L112.619 40.0556L112.796 40.0315L111.453 47.6235C111.406 47.5688 111.359 47.5122 111.311 47.4548Z" fill="#FBC611"/>
<path fill-rule="evenodd" clip-rule="evenodd" d="M111.386 47.5443L112.704 40.044L112.87 40.0214L111.509 47.6862C111.468 47.6398 111.427 47.5925 111.386 47.5443Z" fill="#FBC611"/>
<path fill-rule="evenodd" clip-rule="evenodd" d="M111.453 47.6235L112.796 40.0315L112.948 40.0104L111.588 47.7732C111.543 47.7244 111.498 47.6747 111.453 47.6235Z" fill="#FBC611"/>
<path fill-rule="evenodd" clip-rule="evenodd" d="M111.509 47.6859L112.869 40.0215L113.04 39.9972L111.659 47.8496C111.609 47.7967 111.559 47.7418 111.509 47.6859Z" fill="#FBC611"/>
<path fill-rule="evenodd" clip-rule="evenodd" d="M111.588 47.7736L112.949 40.0101L113.111 39.9868L111.716 47.9083C111.673 47.8644 111.631 47.8196 111.588 47.7736Z" fill="#FBC80F"/>
<path fill-rule="evenodd" clip-rule="evenodd" d="M111.659 47.8496L113.04 39.9972L113.212 39.9725L111.795 47.9876C111.749 47.9427 111.704 47.897 111.659 47.8496Z" fill="#FBC80F"/>
<path fill-rule="evenodd" clip-rule="evenodd" d="M111.72 47.9127L113.113 39.9867L113.28 39.9623L111.852 48.0439C111.808 48.0015 111.764 47.9574 111.72 47.9127Z" fill="#FBC80F"/>
<path fill-rule="evenodd" clip-rule="evenodd" d="M111.795 47.9877L113.211 39.9726L113.363 39.9498L111.929 48.1166C111.884 48.0748 111.839 48.0319 111.795 47.9877Z" fill="#FBC80F"/>
<path fill-rule="evenodd" clip-rule="evenodd" d="M111.851 48.0434L113.279 39.9624L113.445 39.9375L111.996 48.1786C111.948 48.135 111.9 48.09 111.851 48.0434Z" fill="#FBC80E"/>
<path fill-rule="evenodd" clip-rule="evenodd" d="M111.929 48.1169L113.363 39.9498L113.522 39.926L112.058 48.2328C112.015 48.1954 111.972 48.1566 111.929 48.1169Z" fill="#FBCA0E"/>
<path fill-rule="evenodd" clip-rule="evenodd" d="M111.996 48.1786L113.445 39.9375L113.62 39.9108L112.144 48.306C112.095 48.265 112.045 48.2227 111.996 48.1786Z" fill="#FBCA0E"/>
<path fill-rule="evenodd" clip-rule="evenodd" d="M112.062 48.2371L113.524 39.9257L113.692 39.8994L112.196 48.3492C112.152 48.3132 112.107 48.2757 112.062 48.2371Z" fill="#FBCA0F"/>
<path fill-rule="evenodd" clip-rule="evenodd" d="M112.144 48.3063L113.62 39.9107L113.784 39.8849L112.273 48.4097C112.23 48.3766 112.187 48.3419 112.144 48.3063Z" fill="#FBCA0F"/>
<path fill-rule="evenodd" clip-rule="evenodd" d="M112.196 48.3492L113.691 39.8995L113.861 39.8729L112.346 48.4653C112.296 48.4282 112.246 48.3896 112.196 48.3492Z" fill="#FBCA0F"/>
<path fill-rule="evenodd" clip-rule="evenodd" d="M112.272 48.4089L113.771 39.8871L113.939 39.8601L112.412 48.513C112.365 48.4799 112.319 48.445 112.272 48.4089Z" fill="#FBCC0F"/>
<path fill-rule="evenodd" clip-rule="evenodd" d="M112.346 48.4653L113.861 39.873L114.032 39.8448L112.495 48.5708C112.445 48.5375 112.396 48.5021 112.346 48.4653Z" fill="#FBCC0F"/>
<path fill-rule="evenodd" clip-rule="evenodd" d="M112.412 48.5131L113.939 39.8601L114.107 39.8325L112.558 48.6112C112.509 48.5799 112.46 48.5475 112.412 48.5131Z" fill="#FBCC0F"/>
<path fill-rule="evenodd" clip-rule="evenodd" d="M112.495 48.5708L114.032 39.8448L114.191 39.8187L112.633 48.6586C112.587 48.6307 112.541 48.6015 112.495 48.5708Z" fill="#FBCC0F"/>
<path fill-rule="evenodd" clip-rule="evenodd" d="M112.557 48.611L114.107 39.8325L114.274 39.8046L112.705 48.701C112.656 48.6727 112.606 48.6426 112.557 48.611Z" fill="#FBCD0F"/>
<path fill-rule="evenodd" clip-rule="evenodd" d="M112.633 48.6586L114.191 39.8187L114.35 39.7916L112.773 48.7388C112.726 48.7135 112.68 48.6869 112.633 48.6586Z" fill="#FBCD0F"/>
<path fill-rule="evenodd" clip-rule="evenodd" d="M112.705 48.701L114.274 39.8046L114.438 39.7769L112.848 48.7785C112.801 48.7543 112.753 48.7287 112.705 48.701Z" fill="#FBCD0F"/>
<path fill-rule="evenodd" clip-rule="evenodd" d="M112.773 48.7388L114.35 39.7917L114.525 39.7617L112.928 48.8175C112.876 48.7934 112.825 48.7667 112.773 48.7388Z" fill="#FBCD0F"/>
<path fill-rule="evenodd" clip-rule="evenodd" d="M112.849 48.7785L114.441 39.7761L114.597 39.749L113.003 48.8503C112.952 48.8284 112.9 48.8044 112.849 48.7785Z" fill="#FBCD0F"/>
<path fill-rule="evenodd" clip-rule="evenodd" d="M112.928 48.8173L114.525 39.7619L114.692 39.7324L113.074 48.8796C113.025 48.8605 112.977 48.84 112.928 48.8173Z" fill="#FBCF0C"/>
<path fill-rule="evenodd" clip-rule="evenodd" d="M113.003 48.8506L114.602 39.7483L114.762 39.72L113.142 48.9056C113.096 48.889 113.05 48.8704 113.003 48.8506Z" fill="#FBCF0C"/>
<path fill-rule="evenodd" clip-rule="evenodd" d="M113.074 48.8797L114.692 39.7323L114.862 39.702L113.232 48.9352C113.179 48.9189 113.127 48.9003 113.074 48.8797Z" fill="#FDD10A"/>
<path fill-rule="evenodd" clip-rule="evenodd" d="M113.142 48.9056L114.762 39.7199L114.928 39.6898L113.304 48.956C113.25 48.9411 113.196 48.9248 113.142 48.9056Z" fill="#FDD10A"/>
<path fill-rule="evenodd" clip-rule="evenodd" d="M113.232 48.9353L114.862 39.7018L115.011 39.6747L113.375 48.9746C113.328 48.9633 113.28 48.9503 113.232 48.9353Z" fill="#FBD10C"/>
<path fill-rule="evenodd" clip-rule="evenodd" d="M113.303 48.956L114.927 39.69L115.107 39.6571L113.448 48.9901C113.4 48.9806 113.352 48.9691 113.303 48.956Z" fill="#FBD10C"/>
<path fill-rule="evenodd" clip-rule="evenodd" d="M113.375 48.9744L115.011 39.6747L115.175 39.6444L113.523 49.0027C113.474 48.995 113.424 48.9861 113.375 48.9744Z" fill="#FBD10C"/>
<path fill-rule="evenodd" clip-rule="evenodd" d="M113.448 48.99L115.106 39.6572L115.259 39.6284L113.612 49.0138C113.557 49.0081 113.503 49.0007 113.448 48.99Z" fill="#FBD108"/>
<path fill-rule="evenodd" clip-rule="evenodd" d="M113.529 49.0037L115.177 39.6439L115.345 39.6122L113.692 49.0204C113.638 49.0174 113.584 49.0117 113.529 49.0037Z" fill="#FBD108"/>
<path fill-rule="evenodd" clip-rule="evenodd" d="M113.623 49.015L115.263 39.6278L115.441 39.594L113.768 49.0228C113.719 49.0223 113.671 49.0195 113.623 49.015Z" fill="#FBD108"/>
<path fill-rule="evenodd" clip-rule="evenodd" d="M113.692 49.0204L115.345 39.6122L115.523 39.5781L113.846 49.0214C113.823 49.0218 113.801 49.0232 113.778 49.0232C113.75 49.0232 113.721 49.0219 113.692 49.0204Z" fill="#FBD307"/>
<path fill-rule="evenodd" clip-rule="evenodd" d="M113.767 49.0228L115.433 39.5957L115.588 39.5654L113.916 49.0195C113.87 49.0206 113.824 49.0232 113.778 49.0232L113.767 49.0228Z" fill="#FBD407"/>
<path fill-rule="evenodd" clip-rule="evenodd" d="M113.849 49.0213L115.524 39.5779L115.676 39.5481L114.002 49.0173C113.951 49.0196 113.9 49.0206 113.849 49.0213Z" fill="#FBD401"/>
<path fill-rule="evenodd" clip-rule="evenodd" d="M113.916 49.0195L115.588 39.5652L115.762 39.5311L114.082 49.0131C114.027 49.0163 113.971 49.018 113.916 49.0195Z" fill="#FBD401"/>
<path fill-rule="evenodd" clip-rule="evenodd" d="M114.007 49.0172L115.678 39.5479L115.839 39.5157L114.18 49.0056C114.122 49.0101 114.065 49.0146 114.007 49.0172Z" fill="#FBD400"/>
<path fill-rule="evenodd" clip-rule="evenodd" d="M114.081 49.0132L115.762 39.5312L115.93 39.4976L114.254 48.9999C114.197 49.0054 114.139 49.0097 114.081 49.0132Z" fill="#FBD400"/>
<path fill-rule="evenodd" clip-rule="evenodd" d="M114.182 49.0055L115.858 39.5118L116.011 39.4811L114.347 48.9904C114.292 48.9965 114.237 49.0012 114.182 49.0055Z" fill="#FBD600"/>
<path fill-rule="evenodd" clip-rule="evenodd" d="M114.254 48.9999L115.925 39.4984L116.095 39.464L114.418 48.9813C114.363 48.9881 114.309 48.9947 114.254 48.9999Z" fill="#FBD600"/>
<path fill-rule="evenodd" clip-rule="evenodd" d="M114.347 48.9905L116.011 39.4812L116.193 39.4437L114.52 48.9683C114.462 48.9767 114.405 48.9839 114.347 48.9905Z" fill="#FBD600"/>
<path fill-rule="evenodd" clip-rule="evenodd" d="M114.419 48.9812L116.095 39.4638L116.269 39.4279L114.587 48.9583C114.531 48.9671 114.475 48.9742 114.419 48.9812Z" fill="#FBD600"/>
<path fill-rule="evenodd" clip-rule="evenodd" d="M114.517 48.9686L116.192 39.4439L116.349 39.4113L114.67 48.9435C114.619 48.9523 114.568 48.9611 114.517 48.9686Z" fill="#FBD600"/>
<path fill-rule="evenodd" clip-rule="evenodd" d="M114.587 48.9583L116.269 39.4279L116.424 39.3953L114.75 48.9293C114.695 48.9395 114.641 48.9496 114.587 48.9583Z" fill="#FBD800"/>
<path fill-rule="evenodd" clip-rule="evenodd" d="M114.67 48.9435L116.349 39.4114L116.512 39.3768L114.83 48.9144C114.777 48.9252 114.724 48.9342 114.67 48.9435Z" fill="#FBD800"/>
<path fill-rule="evenodd" clip-rule="evenodd" d="M114.75 48.9294L116.423 39.3956L116.6 39.358L114.922 48.8938C114.864 48.9064 114.807 48.9184 114.75 48.9294Z" fill="#FBDA00"/>
<path fill-rule="evenodd" clip-rule="evenodd" d="M114.83 48.9144L116.512 39.3766L116.683 39.3402L114.997 48.8766C114.941 48.8898 114.886 48.9029 114.83 48.9144Z" fill="#FBDA00"/>
<path fill-rule="evenodd" clip-rule="evenodd" d="M114.922 48.8936L116.599 39.3582L116.763 39.3228L115.087 48.8555C115.032 48.8695 114.977 48.8813 114.922 48.8936Z" fill="#FBDA00"/>
<path fill-rule="evenodd" clip-rule="evenodd" d="M115.002 48.8754L116.684 39.3399L116.846 39.3044L115.172 48.8322C115.115 48.8475 115.059 48.862 115.002 48.8754Z" fill="#FBDA00"/>
<path fill-rule="evenodd" clip-rule="evenodd" d="M115.087 48.8555L116.763 39.3228L116.929 39.2864L115.238 48.8141C115.188 48.8284 115.138 48.8427 115.087 48.8555Z" fill="#FDDB00"/>
<path fill-rule="evenodd" clip-rule="evenodd" d="M115.172 48.8323L116.846 39.3045L117.014 39.2675L115.335 48.7869C115.281 48.8032 115.226 48.8175 115.172 48.8323Z" fill="#FDDB00"/>
<path fill-rule="evenodd" clip-rule="evenodd" d="M115.238 48.8141L116.929 39.2864L117.093 39.2496L115.415 48.7611C115.356 48.7797 115.297 48.7975 115.238 48.8141Z" fill="#FDDB00"/>
<path fill-rule="evenodd" clip-rule="evenodd" d="M115.335 48.7868L117.014 39.2673L117.176 39.2311L115.51 48.7305C115.451 48.75 115.393 48.7693 115.335 48.7868Z" fill="#FDDB00"/>
<path fill-rule="evenodd" clip-rule="evenodd" d="M115.415 48.7611L117.093 39.2497L117.267 39.2106L115.593 48.7029C115.534 48.7235 115.474 48.7423 115.415 48.7611Z" fill="#FDDB00"/>
<path fill-rule="evenodd" clip-rule="evenodd" d="M115.509 48.7308L117.176 39.2312L117.345 39.1927L115.672 48.6738C115.618 48.6934 115.564 48.7127 115.509 48.7308Z" fill="#FDDB00"/>
<path fill-rule="evenodd" clip-rule="evenodd" d="M115.593 48.7031L117.267 39.2105L117.43 39.1732L115.755 48.6431C115.701 48.6635 115.647 48.6842 115.593 48.7031Z" fill="#FDDB00"/>
<path fill-rule="evenodd" clip-rule="evenodd" d="M115.671 48.6741L117.344 39.1929L117.509 39.1552L115.848 48.6079C115.789 48.631 115.73 48.6526 115.671 48.6741Z" fill="#FDDB00"/>
<path fill-rule="evenodd" clip-rule="evenodd" d="M115.765 48.6394L117.433 39.1725L117.597 39.1343L115.939 48.5701C115.881 48.594 115.823 48.6173 115.765 48.6394Z" fill="#FDDB00"/>
<path fill-rule="evenodd" clip-rule="evenodd" d="M115.848 48.6078L117.509 39.1551L117.688 39.113L116.025 48.5345C115.966 48.5598 115.907 48.5844 115.848 48.6078Z" fill="#FDDB00"/>
<path fill-rule="evenodd" clip-rule="evenodd" d="M115.939 48.57L117.597 39.1343L117.758 39.0967L116.106 48.499C116.05 48.5236 115.995 48.5469 115.939 48.57Z" fill="#FDDB00"/>
<path fill-rule="evenodd" clip-rule="evenodd" d="M116.024 48.5347L117.68 39.1151L117.855 39.0735L116.203 48.4547C116.143 48.4821 116.084 48.5091 116.024 48.5347Z" fill="#FDDB00"/>
<path fill-rule="evenodd" clip-rule="evenodd" d="M116.106 48.4991L117.758 39.0967L117.922 39.0575L116.283 48.4176C116.224 48.4455 116.165 48.4728 116.106 48.4991Z" fill="#FDDB00"/>
<path fill-rule="evenodd" clip-rule="evenodd" d="M116.203 48.4547L117.856 39.0735L118.009 39.0367L116.363 48.3785C116.31 48.4048 116.256 48.4299 116.203 48.4547Z" fill="#FDDB00"/>
<path fill-rule="evenodd" clip-rule="evenodd" d="M116.283 48.4176L117.922 39.0575L118.109 39.0126L116.46 48.3296C116.401 48.3595 116.342 48.3893 116.283 48.4176Z" fill="#FDDB00"/>
<path fill-rule="evenodd" clip-rule="evenodd" d="M116.363 48.3785L118.009 39.0367L118.179 38.9951L116.542 48.288C116.483 48.3191 116.423 48.3491 116.363 48.3785Z" fill="#FDDB00"/>
<path fill-rule="evenodd" clip-rule="evenodd" d="M116.466 48.3267L118.11 39.0122L118.272 38.9723L116.637 48.2366C116.58 48.2674 116.523 48.2975 116.466 48.3267Z" fill="#FDDB00"/>
<path fill-rule="evenodd" clip-rule="evenodd" d="M116.543 48.2879L118.179 38.9952L118.354 38.9523L116.732 48.1846C116.669 48.2197 116.606 48.2546 116.543 48.2879Z" fill="#FDDB00"/>
<path fill-rule="evenodd" clip-rule="evenodd" d="M116.637 48.2367L118.272 38.9724L118.428 38.934L116.801 48.1467C116.746 48.1776 116.692 48.2071 116.637 48.2367Z" fill="#FDDB00"/>
<path fill-rule="evenodd" clip-rule="evenodd" d="M116.732 48.1846L118.354 38.9523L118.521 38.9105L116.906 48.0842C116.848 48.1183 116.79 48.152 116.732 48.1846Z" fill="#FDDB00"/>
<path fill-rule="evenodd" clip-rule="evenodd" d="M116.806 48.1435L118.428 38.9338L118.6 38.8909L116.978 48.0417C116.921 48.0763 116.864 48.1106 116.806 48.1435Z" fill="#FDDB00"/>
<path fill-rule="evenodd" clip-rule="evenodd" d="M116.906 48.0844L118.521 38.9107L118.686 38.8688L117.08 47.9792C117.022 48.0152 116.964 48.0499 116.906 48.0844Z" fill="#FDDB00"/>
<path fill-rule="evenodd" clip-rule="evenodd" d="M116.978 48.0419L118.598 38.8912L118.774 38.8464L117.184 47.9132C117.116 47.9571 117.047 48.0002 116.978 48.0419Z" fill="#FDDB00"/>
<path fill-rule="evenodd" clip-rule="evenodd" d="M117.081 47.9788L118.686 38.8687L118.851 38.8268L117.255 47.8682C117.197 47.906 117.139 47.9425 117.081 47.9788Z" fill="#FDDB00"/>
<path fill-rule="evenodd" clip-rule="evenodd" d="M117.184 47.9132L118.774 38.8465L118.944 38.8027L117.353 47.8023C117.297 47.8399 117.241 47.8769 117.184 47.9132Z" fill="#FDDB00"/>
<path fill-rule="evenodd" clip-rule="evenodd" d="M117.26 47.8647L118.852 38.8265L119.013 38.7845L117.434 47.7475C117.376 47.7871 117.319 47.8266 117.26 47.8647Z" fill="#FDDB00"/>
<path fill-rule="evenodd" clip-rule="evenodd" d="M117.353 47.8022L118.944 38.8027L119.109 38.7598L117.536 47.6773C117.475 47.7199 117.414 47.7613 117.353 47.8022Z" fill="#FDDB00"/>
<path fill-rule="evenodd" clip-rule="evenodd" d="M117.434 47.7475L119.014 38.7845L119.194 38.7373L117.626 47.6121C117.563 47.658 117.498 47.7032 117.434 47.7475Z" fill="#FDDB00"/>
<path fill-rule="evenodd" clip-rule="evenodd" d="M117.536 47.6773L119.109 38.7598L119.269 38.7175L117.711 47.5507C117.653 47.5936 117.595 47.6359 117.536 47.6773Z" fill="#FDDB00"/>
<path fill-rule="evenodd" clip-rule="evenodd" d="M117.626 47.6121L119.194 38.7374L119.363 38.6926L117.811 47.4766C117.749 47.5227 117.688 47.5678 117.626 47.6121Z" fill="#FDDB00"/>
<path fill-rule="evenodd" clip-rule="evenodd" d="M117.706 47.5545L119.268 38.7178L119.436 38.6731L117.904 47.4057C117.838 47.4561 117.772 47.506 117.706 47.5545Z" fill="#FDDB00"/>
<path fill-rule="evenodd" clip-rule="evenodd" d="M117.811 47.4766L119.363 38.6926L119.526 38.6487L117.988 47.3405C117.929 47.3868 117.87 47.4318 117.811 47.4766Z" fill="#FDDB00"/>
<path fill-rule="evenodd" clip-rule="evenodd" d="M117.904 47.4057L119.436 38.6731L119.611 38.6257L118.092 47.2572C118.03 47.3074 117.967 47.3571 117.904 47.4057Z" fill="#FDDB00"/>
<path fill-rule="evenodd" clip-rule="evenodd" d="M117.987 47.3414L119.521 38.65L119.693 38.6034L118.175 47.1906C118.113 47.2418 118.05 47.2919 117.987 47.3414Z" fill="#FDDB00"/>
<path fill-rule="evenodd" clip-rule="evenodd" d="M118.092 47.2572L119.611 38.6258L119.78 38.5793L118.279 47.104C118.217 47.1559 118.155 47.207 118.092 47.2572Z" fill="#FDDB00"/>
<path fill-rule="evenodd" clip-rule="evenodd" d="M118.18 47.1867L119.693 38.6035L119.864 38.5564L118.367 47.0297C118.305 47.0826 118.243 47.1353 118.18 47.1867Z" fill="#FDDB00"/>
<path fill-rule="evenodd" clip-rule="evenodd" d="M118.279 47.1039L119.781 38.5791L119.958 38.53L118.469 46.9418C118.406 46.9967 118.343 47.0507 118.279 47.1039Z" fill="#FDDB00"/>
<path fill-rule="evenodd" clip-rule="evenodd" d="M118.368 47.0292L119.864 38.5564L120.035 38.5087L118.564 46.8582C118.499 46.9159 118.434 46.9732 118.368 47.0292Z" fill="#FDDB00"/>
<path fill-rule="evenodd" clip-rule="evenodd" d="M118.466 46.9448L119.948 38.5329L120.116 38.486L118.657 46.7755C118.594 46.8327 118.53 46.8891 118.466 46.9448Z" fill="#FDDB00"/>
<path fill-rule="evenodd" clip-rule="evenodd" d="M118.562 46.8604L120.028 38.5106L120.208 38.4601L118.752 46.688C118.689 46.7463 118.626 46.8036 118.562 46.8604Z" fill="#FDDB00"/>
<path fill-rule="evenodd" clip-rule="evenodd" d="M118.657 46.7756L120.116 38.486L120.285 38.438L118.844 46.6043C118.782 46.6621 118.72 46.7192 118.657 46.7756Z" fill="#FDDB00"/>
<path fill-rule="evenodd" clip-rule="evenodd" d="M118.752 46.688L120.208 38.4601L120.367 38.4147L118.941 46.5109C118.879 46.5706 118.816 46.6297 118.752 46.688Z" fill="#FDDB00"/>
<path fill-rule="evenodd" clip-rule="evenodd" d="M118.844 46.604L120.286 38.4378L120.452 38.39L119.036 46.4209C118.972 46.4826 118.908 46.5438 118.844 46.604Z" fill="#FDDB00"/>
<path fill-rule="evenodd" clip-rule="evenodd" d="M118.951 46.5014L120.369 38.4142L120.54 38.3647L119.132 46.3263C119.072 46.3853 119.012 46.4437 118.951 46.5014Z" fill="#FDDB00"/>
<path fill-rule="evenodd" clip-rule="evenodd" d="M119.035 46.4214L120.452 38.3902L120.623 38.3408L119.232 46.2272C119.166 46.2926 119.101 46.3574 119.035 46.4214Z" fill="#FDDB00"/>
<path fill-rule="evenodd" clip-rule="evenodd" d="M119.132 46.3263L120.54 38.3648L120.705 38.3165L119.33 46.1265C119.265 46.1939 119.199 46.2604 119.132 46.3263Z" fill="#FDDB00"/>
<path fill-rule="evenodd" clip-rule="evenodd" d="M119.232 46.2265L120.623 38.3408L120.788 38.2922L119.425 46.0291C119.361 46.0954 119.297 46.1615 119.232 46.2265Z" fill="#FDDB00"/>
<path fill-rule="evenodd" clip-rule="evenodd" d="M119.331 46.1266L120.705 38.3166L120.872 38.2673L119.522 45.9282C119.459 45.995 119.395 46.0611 119.331 46.1266Z" fill="#FDDB00"/>
<path fill-rule="evenodd" clip-rule="evenodd" d="M119.425 46.0291L120.788 38.2923L120.953 38.2435L119.627 45.8154C119.56 45.8872 119.493 45.9586 119.425 46.0291Z" fill="#FDDB00"/>
<path fill-rule="evenodd" clip-rule="evenodd" d="M119.522 45.9282L120.872 38.2674L121.044 38.2163L119.718 45.718C119.653 45.7887 119.587 45.8588 119.522 45.9282Z" fill="#FDDB00"/>
<path fill-rule="evenodd" clip-rule="evenodd" d="M119.627 45.8154L120.952 38.2435L121.136 38.1885L119.825 45.5988C119.76 45.6716 119.694 45.7438 119.627 45.8154Z" fill="#FDDB00"/>
<path fill-rule="evenodd" clip-rule="evenodd" d="M119.722 45.7132L121.044 38.2161L121.217 38.1638L119.919 45.4952C119.854 45.5685 119.788 45.6412 119.722 45.7132Z" fill="#FDDB00"/>
<path fill-rule="evenodd" clip-rule="evenodd" d="M119.826 45.5978L121.138 38.1878L121.299 38.1389L120.03 45.3686C119.962 45.4457 119.895 45.522 119.826 45.5978Z" fill="#FDDB00"/>
<path fill-rule="evenodd" clip-rule="evenodd" d="M119.919 45.4951L121.217 38.1638L121.376 38.1152L120.117 45.2686C120.051 45.3446 119.985 45.4201 119.919 45.4951Z" fill="#FDDB00"/>
<path fill-rule="evenodd" clip-rule="evenodd" d="M120.03 45.3687L121.299 38.1389L121.471 38.0861L120.22 45.147C120.157 45.2213 120.094 45.2953 120.03 45.3687Z" fill="#FDDB00"/>
<path fill-rule="evenodd" clip-rule="evenodd" d="M120.124 45.2606L121.377 38.115L121.552 38.0608L120.325 45.0226C120.259 45.1026 120.191 45.1819 120.124 45.2606Z" fill="#FDDB00"/>
<path fill-rule="evenodd" clip-rule="evenodd" d="M120.22 45.1475L121.47 38.0862L121.637 38.0342L120.432 44.8932C120.362 44.9783 120.291 45.0633 120.22 45.1475Z" fill="#FDDB00"/>
<path fill-rule="evenodd" clip-rule="evenodd" d="M120.327 45.0208L121.555 38.06L121.724 38.0071L120.536 44.7656C120.467 44.8511 120.397 44.9363 120.327 45.0208Z" fill="#FDDB00"/>
<path fill-rule="evenodd" clip-rule="evenodd" d="M120.435 44.8894L121.643 38.0323L121.807 37.9807L120.638 44.6385C120.571 44.7226 120.503 44.8061 120.435 44.8894Z" fill="#FDDB00"/>
<path fill-rule="evenodd" clip-rule="evenodd" d="M120.537 44.7646L121.726 38.0066L121.901 37.9512L120.74 44.5096C120.673 44.5951 120.605 44.6801 120.537 44.7646Z" fill="#FDDB00"/>
<path fill-rule="evenodd" clip-rule="evenodd" d="M120.638 44.6385L121.807 37.9808L121.982 37.925L120.842 44.3791C120.775 44.4661 120.707 44.5525 120.638 44.6385Z" fill="#FDDB00"/>
<path fill-rule="evenodd" clip-rule="evenodd" d="M120.739 44.5116L121.898 37.952L122.062 37.8993L120.944 44.2464C120.876 44.3352 120.808 44.4236 120.739 44.5116Z" fill="#FDDB00"/>
<path fill-rule="evenodd" clip-rule="evenodd" d="M120.842 44.3789L121.982 37.9252L122.144 37.8728L121.042 44.1173C120.977 44.2049 120.91 44.2919 120.842 44.3789Z" fill="#FDDB00"/>
<path fill-rule="evenodd" clip-rule="evenodd" d="M120.944 44.2468L122.062 37.8994L122.234 37.8435L121.161 43.9576C121.089 44.0544 121.017 44.1508 120.944 44.2468Z" fill="#FDDB00"/>
<path fill-rule="evenodd" clip-rule="evenodd" d="M121.042 44.1173L122.144 37.8728L122.32 37.8154L121.261 43.8224C121.189 43.9208 121.116 44.0193 121.042 44.1173Z" fill="#FDDB00"/>
<path fill-rule="evenodd" clip-rule="evenodd" d="M121.161 43.9581L122.233 37.8435L122.404 37.7875L121.365 43.6788C121.298 43.7723 121.229 43.8653 121.161 43.9581Z" fill="#FDDB00"/>
<path fill-rule="evenodd" clip-rule="evenodd" d="M121.253 43.833L122.318 37.8159L122.497 37.7563L121.481 43.5175C121.406 43.6228 121.33 43.728 121.253 43.833Z" fill="#FDDB00"/>
<path fill-rule="evenodd" clip-rule="evenodd" d="M121.365 43.6791L122.404 37.7875L122.57 37.7321L121.572 43.3896C121.503 43.4862 121.435 43.5827 121.365 43.6791Z" fill="#FDDB00"/>
<path fill-rule="evenodd" clip-rule="evenodd" d="M121.481 43.5175L122.497 37.7564L122.662 37.7012L121.693 43.2148C121.623 43.3158 121.552 43.4167 121.481 43.5175Z" fill="#FDDB00"/>
<path fill-rule="evenodd" clip-rule="evenodd" d="M121.579 43.3792L122.571 37.7318L122.753 37.6703L121.794 43.0685C121.723 43.1721 121.651 43.2757 121.579 43.3792Z" fill="#FDDB00"/>
<path fill-rule="evenodd" clip-rule="evenodd" d="M121.688 43.2225L122.661 37.7014L122.835 37.6423L121.905 42.9043C121.834 43.0103 121.761 43.1164 121.688 43.2225Z" fill="#FDDB00"/>
<path fill-rule="evenodd" clip-rule="evenodd" d="M121.795 43.0664L122.75 37.6712L122.921 37.6123L122.016 42.7376C121.944 42.847 121.87 42.9566 121.795 43.0664Z" fill="#FDDB00"/>
<path fill-rule="evenodd" clip-rule="evenodd" d="M121.906 42.904L122.835 37.6423L122.999 37.5854L122.117 42.5852C122.048 42.6913 121.977 42.7976 121.906 42.904Z" fill="#FDDB00"/>
<path fill-rule="evenodd" clip-rule="evenodd" d="M122.017 42.7377L122.922 37.6124L123.102 37.5497L122.246 42.3874C122.171 42.5037 122.094 42.6208 122.017 42.7377Z" fill="#FDDB00"/>
<path fill-rule="evenodd" clip-rule="evenodd" d="M122.117 42.5851L122.999 37.5854L123.178 37.5228L122.346 42.2318C122.271 42.3492 122.195 42.4668 122.117 42.5851Z" fill="#FDDB00"/>
<path fill-rule="evenodd" clip-rule="evenodd" d="M122.245 42.3891L123.101 37.5499L123.254 37.4958L122.453 42.0627C122.385 42.1709 122.316 42.2799 122.245 42.3891Z" fill="#FDDB00"/>
<path fill-rule="evenodd" clip-rule="evenodd" d="M122.346 42.2319L123.178 37.5229L123.332 37.468L122.557 41.8974C122.488 42.0082 122.417 42.1199 122.346 42.2319Z" fill="#FDDB00"/>
<path fill-rule="evenodd" clip-rule="evenodd" d="M122.453 42.0627L123.254 37.4959L123.424 37.4352L122.663 41.7249C122.594 41.8368 122.524 41.9494 122.453 42.0627Z" fill="#FDDB00"/>
<path fill-rule="evenodd" clip-rule="evenodd" d="M122.557 41.8967L123.333 37.4678L123.51 37.4038L122.786 41.5229C122.711 41.6466 122.635 41.7712 122.557 41.8967Z" fill="#FDDB00"/>
<path fill-rule="evenodd" clip-rule="evenodd" d="M122.666 41.7204L123.424 37.435L123.594 37.3728L122.892 41.3467C122.818 41.4701 122.743 41.5946 122.666 41.7204Z" fill="#FDDB00"/>
<path fill-rule="evenodd" clip-rule="evenodd" d="M122.786 41.5229L123.51 37.4038L123.684 37.34L123.009 41.1493C122.937 41.2726 122.862 41.3971 122.786 41.5229Z" fill="#FDDB00"/>
<path fill-rule="evenodd" clip-rule="evenodd" d="M122.886 41.3561L123.589 37.3751L123.78 37.3037L123.139 40.9273C123.057 41.0682 122.973 41.2114 122.886 41.3561Z" fill="#FDDB00"/>
<path fill-rule="evenodd" clip-rule="evenodd" d="M123.012 41.1442L123.684 37.3396L123.856 37.2749L123.244 40.7443C123.169 40.8757 123.091 41.0093 123.012 41.1442Z" fill="#FDDB00"/>
<path fill-rule="evenodd" clip-rule="evenodd" d="M123.139 40.9272L123.781 37.3036L123.942 37.2421L123.36 40.541C123.288 40.6677 123.215 40.7966 123.139 40.9272Z" fill="#FDDB00"/>
<path fill-rule="evenodd" clip-rule="evenodd" d="M123.244 40.7443L123.856 37.2748L124.026 37.21L123.477 40.3318C123.402 40.4668 123.325 40.6042 123.244 40.7443Z" fill="#FDDB00"/>
<path fill-rule="evenodd" clip-rule="evenodd" d="M123.36 40.5409L123.942 37.2421L124.118 37.1736L123.605 40.1001C123.527 40.2438 123.445 40.3909 123.36 40.5409Z" fill="#FDDB00"/>
<path fill-rule="evenodd" clip-rule="evenodd" d="M123.477 40.3318L124.026 37.21L124.207 37.1383L123.72 39.8887C123.643 40.0326 123.561 40.1806 123.477 40.3318Z" fill="#FDDB00"/>
<path fill-rule="evenodd" clip-rule="evenodd" d="M123.605 40.1002L124.118 37.1736L124.286 37.1066L123.834 39.6772C123.761 39.8143 123.685 39.9556 123.605 40.1002Z" fill="#FDDB00"/>
<path fill-rule="evenodd" clip-rule="evenodd" d="M123.72 39.8887L124.207 37.1383C124.269 37.1139 124.327 37.0901 124.381 37.0676L123.961 39.4367C123.885 39.5825 123.805 39.733 123.72 39.8887Z" fill="#FDDB00"/>
<path fill-rule="evenodd" clip-rule="evenodd" d="M123.837 39.6711L124.289 37.1053L124.458 37.0353L124.074 39.2205C123.999 39.3651 123.921 39.5151 123.837 39.6711Z" fill="#FDDB00"/>
<path fill-rule="evenodd" clip-rule="evenodd" d="M123.962 39.4365L124.381 37.0675L124.534 37.0029L124.18 39.0162C124.111 39.1506 124.038 39.2908 123.962 39.4365Z" fill="#FDDB00"/>
<path fill-rule="evenodd" clip-rule="evenodd" d="M124.074 39.2208L124.458 37.0353L124.547 36.9975L124.632 36.9684L124.32 38.7392C124.244 38.8905 124.162 39.0519 124.074 39.2208Z" fill="#FDDB00"/>
<path fill-rule="evenodd" clip-rule="evenodd" d="M124.183 39.0096L124.534 37.0027L124.547 36.9974C124.614 36.974 124.669 36.9549 124.716 36.9442L124.443 38.4918C124.364 38.652 124.277 38.8248 124.183 39.0096Z" fill="#FDDB00"/>
<path fill-rule="evenodd" clip-rule="evenodd" d="M124.32 38.7391L124.632 36.9683C124.694 36.948 124.745 36.9351 124.788 36.9351H124.794L124.563 38.2473C124.49 38.3968 124.41 38.5612 124.32 38.7391Z" fill="#FDDB00"/>
<path fill-rule="evenodd" clip-rule="evenodd" d="M124.445 38.4896L124.717 36.944C124.743 36.9382 124.767 36.9351 124.788 36.9351H124.8C124.825 36.9351 124.848 36.9377 124.869 36.9432L124.683 38.0007C124.613 38.1447 124.534 38.3089 124.445 38.4896Z" fill="#FDDB00"/>
<path fill-rule="evenodd" clip-rule="evenodd" d="M124.562 38.2497L124.793 36.9351H124.8C124.861 36.9351 124.911 36.951 124.946 36.986L124.816 37.7209C124.748 37.8643 124.663 38.0421 124.562 38.2497Z" fill="#FDDB00"/>
<path fill-rule="evenodd" clip-rule="evenodd" d="M124.684 37.9987L124.869 36.9434C125.033 36.9866 125.067 37.2043 124.831 37.6891L124.684 37.9987Z" fill="#FDDB00"/>
<path fill-rule="evenodd" clip-rule="evenodd" d="M124.815 37.7226L124.945 36.9856C125.036 37.0759 125.024 37.2936 124.831 37.6891L124.815 37.7226Z" fill="#FDDB00"/>
<path fill-rule="evenodd" clip-rule="evenodd" d="M37.1227 59.5593C36.7707 59.7604 36.5008 60.0601 36.3097 60.4032C36.107 60.7493 36 61.0943 36 61.4598C36 61.8908 36.107 62.2683 36.2929 62.6001C36.4758 62.9392 36.7258 63.2143 37.0719 63.4016C37.3978 63.6137 37.7727 63.7013 38.1774 63.7013H38.8215V63.1466H38.1774C37.9355 63.1466 37.7021 63.0836 37.463 62.9594C37.2294 62.8207 37.0383 62.6419 36.8722 62.4012C36.7149 62.1486 36.633 61.8317 36.633 61.4598C36.633 61.214 36.6837 61.0008 36.779 60.8112C36.8526 60.5981 36.9731 60.4153 37.1313 60.2617C37.2943 60.111 37.4879 60.0004 37.7021 59.919C37.9355 59.8337 38.1662 59.7942 38.4196 59.7942H38.8215V59.2332H38.3491C37.8875 59.2332 37.4769 59.3409 37.1227 59.5593Z" fill="#57595B"/>
<path fill-rule="evenodd" clip-rule="evenodd" d="M42.1773 60.967C42.0399 60.8485 41.8791 60.7493 41.6994 60.6783C41.4999 60.6159 41.2747 60.5734 41.0464 60.5734C40.7257 60.5734 40.4474 60.6467 40.2028 60.7831C39.9719 60.9018 39.7837 61.0999 39.6567 61.3446C39.5276 61.5791 39.4485 61.8432 39.4485 62.1486C39.4485 62.3646 39.4995 62.5795 39.5693 62.7525C39.6512 62.9709 39.75 63.1382 39.8845 63.2877C40.0338 63.4389 40.1997 63.5633 40.3742 63.6338C40.5657 63.7076 40.754 63.7672 40.9764 63.7672C41.1534 63.7672 41.3057 63.7524 41.4294 63.679C41.5588 63.6338 41.6597 63.5684 41.809 63.4693V62.812C41.5952 63.0836 41.3279 63.2315 41.0355 63.2315C40.8413 63.2315 40.6612 63.1719 40.5179 63.0836C40.3521 62.9903 40.2449 62.8574 40.166 62.7037C40.0706 62.5399 40.0338 62.3646 40.0338 62.1802C40.0338 61.9876 40.0706 61.8174 40.1439 61.645C40.2223 61.4776 40.3521 61.3446 40.501 61.2564C40.6498 61.1596 40.8245 61.0999 41.0355 61.0999C41.2065 61.0999 41.3728 61.1339 41.5332 61.2105C41.6876 61.2703 41.809 61.3727 41.8958 61.5057C41.9891 61.645 42.0281 61.7893 42.0281 61.9796V63.702H42.5937V62.0351C42.5937 61.8001 42.5488 61.6042 42.487 61.4289C42.4251 61.2501 42.3125 61.0999 42.1773 60.967Z" fill="#57595B"/>
<path fill-rule="evenodd" clip-rule="evenodd" d="M47.151 60.8766C47.0467 60.7831 46.9511 60.7041 46.8104 60.6559C46.6755 60.5981 46.5401 60.5734 46.3829 60.5734C46.1914 60.5734 46.0202 60.6159 45.8599 60.6783C45.7021 60.7493 45.5757 60.8623 45.4828 61.0066C45.3763 60.8742 45.2464 60.766 45.0943 60.6783C44.9287 60.6159 44.7487 60.5734 44.5823 60.5734C44.3911 60.5734 44.1973 60.6273 44.0284 60.7098C43.8654 60.8112 43.7416 60.9275 43.6231 61.0999C43.5192 61.2564 43.4885 61.4289 43.4885 61.6042V63.702H44.048V61.7497C44.048 61.54 44.0907 61.3952 44.2001 61.2702C44.2988 61.1665 44.4331 61.0999 44.6023 61.0999C45.0012 61.0999 45.1845 61.3446 45.1845 61.8317V63.702H45.7476V61.8317C45.7476 61.3446 45.95 61.0999 46.3605 61.0999C46.5211 61.0999 46.6616 61.1665 46.7572 61.2702C46.853 61.3952 46.9144 61.54 46.9144 61.7497V63.702H47.4659V61.6042C47.4659 61.4776 47.4462 61.3446 47.3785 61.2105C47.3305 61.069 47.2548 60.967 47.151 60.8766Z" fill="#57595B"/>
<path fill-rule="evenodd" clip-rule="evenodd" d="M52.9426 61.6844C53.0214 61.5791 53.0977 61.4598 53.1705 61.3333L53.5811 60.641H52.9426L52.4108 61.54C52.3177 61.709 52.1633 61.7663 51.9272 61.7663H51.7134V59.2332H51.1423V63.702H51.7134V62.3079H52.3403C52.501 62.3079 52.6222 62.3646 52.7034 62.4523C52.7935 62.5399 52.8414 62.6878 52.8414 62.8574V63.702H53.4036V62.8064C53.4036 62.5399 53.3367 62.3273 53.2178 62.1802C53.0977 62.0386 52.9344 61.9452 52.7034 61.8964V61.8908C52.782 61.8655 52.8639 61.798 52.9426 61.6844Z" fill="#57595B"/>
<path fill-rule="evenodd" clip-rule="evenodd" d="M56.4369 62.9823C56.2928 63.1466 56.0484 63.2315 55.7501 63.2315C55.4544 63.2315 55.216 63.1267 55.0357 62.925C54.844 62.7159 54.7374 62.4804 54.7374 62.1715C54.7374 61.8477 54.844 61.5962 55.0357 61.4036C55.216 61.2105 55.4544 61.0999 55.7501 61.0999C55.9099 61.0999 56.04 61.1315 56.1386 61.1768C56.2282 61.2105 56.3377 61.2874 56.4369 61.4036L54.9176 62.2449L55.1569 62.6878L57.2268 61.5367C57.0752 61.2135 56.8891 60.9895 56.6416 60.8255C56.3833 60.6588 56.0846 60.5734 55.7501 60.5734C55.528 60.5734 55.3223 60.6129 55.1372 60.6783C54.9541 60.766 54.7771 60.8742 54.6333 61.0244C54.4818 61.1653 54.3461 61.3446 54.2708 61.5337C54.1973 61.7268 54.1555 61.9309 54.1555 62.1715C54.1555 62.407 54.1973 62.6138 54.2708 62.812C54.372 63.0103 54.4818 63.1605 54.6333 63.3191C54.7771 63.4607 54.9541 63.5684 55.1372 63.6474C55.3223 63.7076 55.528 63.7672 55.7501 63.7672C56.0342 63.7672 56.2928 63.7013 56.5266 63.5834C56.7683 63.4607 56.96 63.2877 57.0891 63.0728C57.2383 62.8481 57.3141 62.6138 57.3364 62.336L56.7683 62.2672C56.7151 62.5795 56.5995 62.812 56.4369 62.9823Z" fill="#57595B"/>
<path fill-rule="evenodd" clip-rule="evenodd" d="M55.6883 59.8338L56.0484 60.3207H56.49L55.9358 59.5593H55.4438L54.9031 60.3207H55.3223L55.6883 59.8338Z" fill="#57595B"/>
<path fill-rule="evenodd" clip-rule="evenodd" d="M56.3376 59.9701H56.7006L57.4012 59.1959H56.8242L56.3376 59.9701Z" fill="#57595B"/>
<path fill-rule="evenodd" clip-rule="evenodd" d="M58.777 59.8618H58.2083V62.7037C58.2083 63.0184 58.3015 63.263 58.4503 63.4325C58.6024 63.6143 58.8385 63.702 59.1112 63.702H59.8793V63.1604H59.19C59.0463 63.1604 58.9372 63.1381 58.8728 63.0836C58.8135 63.0184 58.777 62.9169 58.777 62.784V61.1767H59.8793V60.641H58.777V59.8618Z" fill="#57595B"/>
<path fill-rule="evenodd" clip-rule="evenodd" d="M63.5449 63.7013H64.1073V59.2332H63.5449V63.7013Z" fill="#57595B"/>
<path fill-rule="evenodd" clip-rule="evenodd" d="M66.5688 64.0646C66.4811 64.0646 66.4052 64.0842 66.3665 64.1414C66.3122 64.1838 66.282 64.2658 66.282 64.3392C66.282 64.4158 66.3122 64.4892 66.3665 64.5351C66.4052 64.5998 66.4811 64.6164 66.5688 64.6164C66.65 64.6164 66.7231 64.5998 66.7766 64.5351C66.8222 64.4892 66.8389 64.4067 66.8389 64.3392C66.8389 64.2658 66.8222 64.1838 66.7766 64.1414C66.7231 64.0842 66.65 64.0646 66.5688 64.0646Z" fill="#57595B"/>
<path fill-rule="evenodd" clip-rule="evenodd" d="M68.2143 61.0158H68.352C68.352 61.0605 68.3045 61.1315 68.2315 61.1859C68.1328 61.2341 68.0423 61.2564 67.9497 61.2564C67.8739 61.1339 67.756 61.0244 67.6176 60.9018C67.5026 60.8112 67.348 60.7207 67.1818 60.6783C67.0106 60.6129 66.8224 60.5734 66.6363 60.5734C66.4253 60.5734 66.2338 60.6129 66.0342 60.6783C65.8405 60.766 65.6798 60.8742 65.5225 61.0244C65.3653 61.1653 65.2438 61.3446 65.1768 61.5337C65.0835 61.7268 65.0325 61.9309 65.0325 62.1715C65.0325 62.407 65.0835 62.6138 65.1768 62.812C65.2438 62.9995 65.3653 63.1605 65.5225 63.3191C65.6602 63.4607 65.8286 63.5684 66.0173 63.6474C66.2338 63.7076 66.4253 63.7672 66.6363 63.7672C66.839 63.7672 67.0418 63.7076 67.2383 63.6474C67.4268 63.5684 67.6015 63.4607 67.7502 63.3191C67.8997 63.1719 68.0061 63.0103 68.079 62.812C68.1773 62.6138 68.2315 62.4012 68.2315 62.1715C68.2315 62.0351 68.2143 61.9086 68.1773 61.7744C68.1438 61.645 68.1128 61.54 68.0656 61.4598C68.2143 61.4598 68.3045 61.4203 68.4138 61.3446C68.5267 61.2564 68.5658 61.1339 68.5658 60.9848V60.5734H68.2143V61.0158ZM67.348 62.925C67.1654 63.1209 66.9315 63.2315 66.6363 63.2315C66.3325 63.2315 66.0904 63.1209 65.905 62.925C65.722 62.7072 65.6204 62.4804 65.6204 62.1715C65.6204 61.8477 65.722 61.5962 65.905 61.4036C66.0904 61.2105 66.3325 61.0999 66.6363 61.0999C66.9315 61.0999 67.1654 61.2105 67.348 61.4036C67.5472 61.5962 67.6176 61.8477 67.6176 62.1715C67.6176 62.4804 67.5472 62.7072 67.348 62.925Z" fill="#57595B"/>
<path fill-rule="evenodd" clip-rule="evenodd" d="M69.3337 63.702H69.8992V60.6411H69.3337V63.702Z" fill="#57595B"/>
<path fill-rule="evenodd" clip-rule="evenodd" d="M69.6151 59.6698C69.5172 59.6698 69.4718 59.6979 69.41 59.749C69.3655 59.8028 69.3337 59.8784 69.3337 59.9496C69.3337 60.0182 69.3655 60.075 69.41 60.1518C69.4718 60.1935 69.5172 60.2303 69.6151 60.2303C69.7024 60.2303 69.7638 60.1935 69.8091 60.1518C69.8687 60.075 69.8992 60.0182 69.8992 59.9496C69.8992 59.8619 69.8687 59.8028 69.8091 59.749C69.7638 59.6979 69.7024 59.6698 69.6151 59.6698Z" fill="#57595B"/>
<path fill-rule="evenodd" clip-rule="evenodd" d="M73.5815 60.2617H73.9302L74.636 59.4961H74.0537L73.5815 60.2617Z" fill="#57595B"/>
<path fill-rule="evenodd" clip-rule="evenodd" d="M73.7554 63.702H74.3237V60.6411H73.7554V63.702Z" fill="#57595B"/>
<path fill-rule="evenodd" clip-rule="evenodd" d="M76.5182 60.7494C76.3328 60.8113 76.1525 60.9019 76.0115 61.0416C75.8511 61.1855 75.7389 61.3446 75.6405 61.5367C75.5587 61.7268 75.5144 61.9309 75.5144 62.1716C75.5144 62.4804 75.6014 62.7525 75.7419 62.9824C75.8994 63.2144 76.1018 63.4017 76.3328 63.5202C76.5661 63.6338 76.8078 63.702 77.0558 63.702H77.6064V63.1605H77.1507C76.8783 63.1605 76.6308 63.0837 76.4256 62.9055C76.2032 62.7073 76.1048 62.4804 76.1048 62.1716C76.1048 61.9675 76.1525 61.7889 76.2481 61.645C76.3465 61.4777 76.487 61.3694 76.6445 61.2874C76.8021 61.2106 76.9681 61.1768 77.1507 61.1768H77.6064V60.6411H77.0558C76.8783 60.6411 76.698 60.6784 76.5182 60.7494Z" fill="#57595B"/>
<path fill-rule="evenodd" clip-rule="evenodd" d="M79.6852 60.5733C79.5169 60.5733 79.373 60.5981 79.2382 60.6588C79.0977 60.7207 78.98 60.8112 78.9037 60.9018V59.2332H78.3298V63.702H78.9037V61.9142C78.9037 61.6844 78.9652 61.4776 79.1147 61.3446C79.2529 61.1854 79.4327 61.0999 79.6437 61.0999C80.1499 61.0999 80.4025 61.3727 80.4025 61.9142V63.702H80.9593V61.9142C80.9593 61.0244 80.5237 60.5733 79.6852 60.5733Z" fill="#57595B"/>
<path fill-rule="evenodd" clip-rule="evenodd" d="M85.6239 60.7494C85.4236 60.8113 85.2689 60.9019 85.1114 61.0416C84.963 61.1855 84.8441 61.3446 84.7599 61.5367C84.6615 61.7268 84.625 61.9309 84.625 62.1716C84.625 62.4804 84.712 62.7525 84.8525 62.9824C85.0107 63.2144 85.2131 63.4017 85.4401 63.5202C85.6795 63.6338 85.9298 63.702 86.155 63.702H86.7033V63.1605H86.2706C85.9749 63.1605 85.7416 63.0837 85.5192 62.9055C85.3082 62.7073 85.2154 62.4804 85.2154 62.1716C85.2154 61.9675 85.2633 61.7889 85.3622 61.645C85.4629 61.4777 85.6067 61.3694 85.7416 61.2874C85.9133 61.2106 86.0817 61.1768 86.2706 61.1768H86.7033V60.6411H86.155C85.9749 60.6411 85.8035 60.6784 85.6239 60.7494Z" fill="#57595B"/>
<path fill-rule="evenodd" clip-rule="evenodd" d="M90.0401 60.967C89.9045 60.8485 89.7442 60.7493 89.5446 60.6783C89.3585 60.6159 89.1424 60.5734 88.8949 60.5734C88.5855 60.5734 88.2954 60.6467 88.0765 60.7831C87.8227 60.9018 87.6431 61.0999 87.5247 61.3446C87.3763 61.5791 87.3137 61.8432 87.3137 62.1486C87.3137 62.3646 87.3563 62.5795 87.4377 62.7525C87.4998 62.9709 87.6096 63.1382 87.7471 63.2877C87.8883 63.4389 88.0509 63.5633 88.2398 63.6338C88.4194 63.7076 88.6134 63.7672 88.8251 63.7672C89.0019 63.7672 89.1766 63.7524 89.2715 63.679C89.3955 63.6338 89.5332 63.5684 89.6486 63.4693V62.812C89.4404 63.0836 89.1817 63.2315 88.8865 63.2315C88.7011 63.2315 88.5292 63.1719 88.358 63.0836C88.2226 62.9903 88.0872 62.8574 88.0144 62.7037C87.9304 62.5399 87.8792 62.3646 87.8792 62.1802C87.8792 61.9876 87.9304 61.8174 88.0065 61.645C88.0872 61.4776 88.2056 61.3446 88.358 61.2564C88.5122 61.1596 88.6925 61.0999 88.8865 61.0999C89.0754 61.0999 89.2266 61.1339 89.3813 61.2105C89.536 61.2703 89.6486 61.3727 89.7584 61.5057C89.8433 61.645 89.8994 61.7893 89.8994 61.9796V63.702H90.4507V62.0351C90.4507 61.8001 90.4137 61.6042 90.3437 61.4289C90.2818 61.2501 90.1662 61.0999 90.0401 60.967Z" fill="#57595B"/>
<path fill-rule="evenodd" clip-rule="evenodd" d="M93.9158 61.0158C93.7672 60.8742 93.6011 60.766 93.4066 60.6783C93.2154 60.6129 93.0216 60.5734 92.802 60.5734C92.5973 60.5734 92.3998 60.6129 92.203 60.6783C92.0176 60.766 91.8601 60.8742 91.6882 61.0244C91.5386 61.1653 91.4237 61.3446 91.339 61.5337C91.2578 61.7268 91.2185 61.9309 91.2185 62.1715C91.2185 62.407 91.2578 62.6138 91.339 62.812C91.4237 62.9995 91.5386 63.1605 91.6882 63.3191C91.8401 63.4607 92.0113 63.5684 92.203 63.6474C92.3998 63.7076 92.5973 63.7672 92.802 63.7672C93.0216 63.7672 93.2268 63.7076 93.4094 63.6474C93.6176 63.5684 93.7695 63.4607 93.9158 63.3191C94.0682 63.1719 94.1801 63.0103 94.2643 62.812C94.3492 62.6138 94.3969 62.4012 94.3969 62.1715C94.3969 61.9452 94.3492 61.7268 94.2643 61.5337C94.1801 61.3333 94.0682 61.1596 93.9158 61.0158ZM93.525 62.925C93.3252 63.1209 93.1005 63.2315 92.802 63.2315C92.5124 63.2315 92.2651 63.1209 92.0818 62.925C91.8992 62.7072 91.7975 62.4804 91.7975 62.1715C91.7975 61.8477 91.8992 61.5962 92.0818 61.4036C92.2651 61.2105 92.5124 61.0999 92.802 61.0999C93.1005 61.0999 93.3252 61.2105 93.525 61.4036C93.7109 61.5962 93.8121 61.8477 93.8121 62.1715C93.8121 62.4804 93.7109 62.7072 93.525 62.925Z" fill="#57595B"/>
<path fill-rule="evenodd" clip-rule="evenodd" d="M100.057 60.7493C99.8575 60.6273 99.6232 60.5734 99.3734 60.5734C99.1261 60.5734 98.9065 60.6273 98.709 60.7493C98.5129 60.8485 98.3575 61.0158 98.2364 61.2105C98.1249 61.4203 98.0681 61.6501 98.0681 61.9142V63.702H98.6362V61.9142C98.6362 61.7664 98.6532 61.6042 98.729 61.5057C98.7939 61.3727 98.8951 61.2846 98.9963 61.2105C99.1168 61.1339 99.2466 61.0999 99.3734 61.0999C99.503 61.0999 99.6323 61.1339 99.7477 61.2105C99.8682 61.2846 99.9587 61.3727 100.02 61.5057C100.096 61.6042 100.119 61.7664 100.119 61.9142V63.702H100.69V61.9142C100.69 61.6501 100.633 61.4203 100.521 61.2105C100.405 61.0158 100.257 60.8485 100.057 60.7493Z" fill="#57595B"/>
<path fill-rule="evenodd" clip-rule="evenodd" d="M102.932 60.5733C102.769 60.5733 102.619 60.5981 102.476 60.6588C102.336 60.7207 102.231 60.8112 102.141 60.9018V59.2332H101.57V63.702H102.141V61.9142C102.141 61.6844 102.22 61.4776 102.372 61.3446C102.501 61.1854 102.687 61.0999 102.903 61.0999C103.395 61.0999 103.64 61.3727 103.64 61.9142V63.702H104.2V61.9142C104.2 61.0244 103.776 60.5733 102.932 60.5733Z" fill="#57595B"/>
<path fill-rule="evenodd" clip-rule="evenodd" d="M107.694 60.967C107.559 60.8485 107.387 60.7493 107.202 60.6783C106.993 60.6159 106.799 60.5734 106.563 60.5734C106.228 60.5734 105.962 60.6467 105.708 60.7831C105.477 60.9018 105.295 61.0999 105.16 61.3446C105.041 61.5791 104.971 61.8432 104.971 62.1486C104.971 62.3646 105.002 62.5795 105.092 62.7525C105.145 62.9709 105.255 63.1382 105.404 63.2877C105.548 63.4389 105.688 63.5633 105.877 63.6338C106.074 63.7076 106.262 63.7672 106.473 63.7672C106.662 63.7672 106.811 63.7524 106.934 63.679C107.058 63.6338 107.173 63.5684 107.319 63.4693V62.812C107.097 63.0836 106.833 63.2315 106.538 63.2315C106.347 63.2315 106.17 63.1719 106.012 63.0836C105.86 62.9903 105.751 62.8574 105.663 62.7037C105.573 62.5399 105.536 62.3646 105.536 62.1802C105.536 61.9876 105.573 61.8174 105.663 61.645C105.741 61.4776 105.86 61.3446 106.012 61.2564C106.164 61.1596 106.344 61.0999 106.543 61.0999C106.726 61.0999 106.873 61.1339 107.03 61.2105C107.173 61.2703 107.319 61.3727 107.402 61.5057C107.497 61.645 107.55 61.7893 107.55 61.9796V63.702H108.107V62.0351C108.107 61.8001 108.065 61.6042 107.981 61.4289C107.93 61.2501 107.832 61.0999 107.694 60.967Z" fill="#57595B"/>
<path fill-rule="evenodd" clip-rule="evenodd" d="M106.543 59.848L106.909 60.3465H107.336L106.799 59.5787H106.304L105.756 60.3465H106.189L106.543 59.848Z" fill="#57595B"/>
<path fill-rule="evenodd" clip-rule="evenodd" d="M107.194 59.9701H107.557L108.248 59.1959H107.677L107.194 59.9701Z" fill="#57595B"/>
<path fill-rule="evenodd" clip-rule="evenodd" d="M110.718 61.1767V60.641H109.609V59.8618H109.058V62.7037C109.058 63.0184 109.129 63.263 109.3 63.4325C109.455 63.6143 109.68 63.702 109.964 63.702H110.718V63.1604H110.031C109.891 63.1604 109.781 63.1381 109.728 63.0836C109.641 63.0184 109.609 62.9169 109.609 62.784V61.1767H110.718Z" fill="#57595B"/>
</svg>
