<svg width="81" height="24" viewBox="0 0 81 24" fill="none" xmlns="http://www.w3.org/2000/svg">
<path d="M12 18.75C11.59 18.75 11.25 18.41 11.25 18V15C11.25 14.59 11.59 14.25 12 14.25C12.41 14.25 12.75 14.59 12.75 15V18C12.75 18.41 12.41 18.75 12 18.75Z" fill="#797D85"/>
<path d="M17.6 22.5599H6.39996C4.57996 22.5599 2.91996 21.1599 2.61996 19.3699L1.28996 11.3999C1.06996 10.1599 1.67996 8.56994 2.66996 7.77994L9.59996 2.22994C10.94 1.14994 13.05 1.15994 14.4 2.23994L21.33 7.77994C22.31 8.56994 22.91 10.1599 22.71 11.3999L21.38 19.3599C21.08 21.1299 19.38 22.5599 17.6 22.5599ZM11.99 2.92994C11.46 2.92994 10.93 3.08994 10.54 3.39994L3.60996 8.95994C3.04996 9.40994 2.64996 10.4499 2.76996 11.1599L4.09996 19.1199C4.27996 20.1699 5.32996 21.0599 6.39996 21.0599H17.6C18.67 21.0599 19.72 20.1699 19.9 19.1099L21.23 11.1499C21.34 10.4499 20.94 9.38994 20.39 8.94994L13.46 3.40994C13.06 3.08994 12.52 2.92994 11.99 2.92994Z" fill="#797D85"/>
<path d="M37.328 18V6.72H38.992V11.584H45.328V6.72H46.992V18H45.328V12.976H38.992V18H37.328ZM52.9525 18.144C52.1525 18.144 51.4592 17.9787 50.8725 17.648C50.2858 17.3067 49.8325 16.8267 49.5125 16.208C49.1925 15.5787 49.0325 14.832 49.0325 13.968C49.0325 13.104 49.1925 12.3627 49.5125 11.744C49.8325 11.1147 50.2858 10.6347 50.8725 10.304C51.4592 9.96267 52.1525 9.792 52.9525 9.792C53.7525 9.792 54.4458 9.96267 55.0325 10.304C55.6298 10.6347 56.0885 11.1147 56.4085 11.744C56.7392 12.3627 56.9045 13.104 56.9045 13.968C56.9045 14.832 56.7392 15.5787 56.4085 16.208C56.0885 16.8267 55.6298 17.3067 55.0325 17.648C54.4458 17.9787 53.7525 18.144 52.9525 18.144ZM52.9525 16.88C53.6565 16.88 54.2165 16.6347 54.6325 16.144C55.0485 15.6533 55.2565 14.928 55.2565 13.968C55.2565 13.008 55.0485 12.288 54.6325 11.808C54.2165 11.3173 53.6565 11.072 52.9525 11.072C52.2592 11.072 51.7045 11.3173 51.2885 11.808C50.8725 12.288 50.6645 13.008 50.6645 13.968C50.6645 14.928 50.8672 15.6533 51.2725 16.144C51.6885 16.6347 52.2485 16.88 52.9525 16.88ZM58.7934 18V11.872C58.7934 11.5627 58.7774 11.248 58.7454 10.928C58.724 10.5973 58.6974 10.2667 58.6654 9.936H60.2334L60.3774 11.632H60.1854C60.4094 11.0453 60.7507 10.592 61.2094 10.272C61.6787 9.952 62.2387 9.792 62.8894 9.792C63.5507 9.792 64.0894 9.952 64.5054 10.272C64.932 10.5813 65.2254 11.0613 65.3854 11.712H65.1294C65.3427 11.1253 65.7054 10.6613 66.2174 10.32C66.7294 9.968 67.3214 9.792 67.9934 9.792C68.8894 9.792 69.5614 10.0533 70.0094 10.576C70.4574 11.0987 70.6814 11.9093 70.6814 13.008V18H69.0654V13.088C69.0654 12.384 68.9427 11.8773 68.6974 11.568C68.4627 11.248 68.0787 11.088 67.5454 11.088C66.9267 11.088 66.436 11.3013 66.0734 11.728C65.7107 12.1547 65.5294 12.7307 65.5294 13.456V18H63.9134V13.088C63.9134 12.384 63.7907 11.8773 63.5454 11.568C63.3107 11.248 62.9267 11.088 62.3934 11.088C61.7747 11.088 61.2894 11.3013 60.9374 11.728C60.5854 12.1547 60.4094 12.7307 60.4094 13.456V18H58.7934ZM76.7245 18.144C75.4232 18.144 74.3992 17.776 73.6525 17.04C72.9058 16.304 72.5325 15.2853 72.5325 13.984C72.5325 13.1413 72.6925 12.4053 73.0125 11.776C73.3432 11.1467 73.7965 10.6613 74.3725 10.32C74.9592 9.968 75.6365 9.792 76.4045 9.792C77.1618 9.792 77.7965 9.952 78.3085 10.272C78.8205 10.592 79.2098 11.0453 79.4765 11.632C79.7432 12.208 79.8765 12.8907 79.8765 13.68V14.192H73.7965V13.264H78.7725L78.5005 13.472C78.5005 12.672 78.3192 12.0533 77.9565 11.616C77.6045 11.168 77.0925 10.944 76.4205 10.944C75.6738 10.944 75.0978 11.2053 74.6925 11.728C74.2872 12.24 74.0845 12.9493 74.0845 13.856V14.016C74.0845 14.9653 74.3138 15.68 74.7725 16.16C75.2418 16.64 75.9032 16.88 76.7565 16.88C77.2258 16.88 77.6632 16.816 78.0685 16.688C78.4845 16.5493 78.8792 16.3253 79.2525 16.016L79.7805 17.12C79.4072 17.4507 78.9538 17.7067 78.4205 17.888C77.8872 18.0587 77.3218 18.144 76.7245 18.144Z" fill="#797D85"/>
</svg>
