<svg width="160" height="97" viewBox="0 0 160 97" fill="none" xmlns="http://www.w3.org/2000/svg">
<rect y="0.616455" width="160" height="96" rx="24" fill="#F1F3F5"/>
<g clip-path="url(#clip0_854_11186)">
<path fill-rule="evenodd" clip-rule="evenodd" d="M93.7778 42.1823L84.6032 32.6157L79.9995 37.3993L84.6032 42.1823L79.9995 46.9647L84.6032 51.7172L93.7778 42.1823ZM79.9995 37.3993L75.4275 42.1823L79.9995 46.9647L75.4275 51.7172L66.2224 42.1823L75.4275 32.6157L79.9995 37.3993Z" fill="#EC2027"/>
<mask id="mask0_854_11186" style="mask-type:luminance" maskUnits="userSpaceOnUse" x="46" y="57" width="43" height="8">
<path d="M46 57.8107H88.2312V64.6166H46V57.8107Z" fill="white"/>
</mask>
<g mask="url(#mask0_854_11186)">
<path fill-rule="evenodd" clip-rule="evenodd" d="M76.7343 64.6166V63.1658C77.209 63.1658 77.5646 62.9804 77.8921 62.6413C78.1884 62.2705 78.3369 61.8388 78.3369 61.2838C78.3369 60.7594 78.1884 60.3276 77.8921 59.9568C77.5646 59.5873 77.1791 59.4317 76.7343 59.4317V57.951C77.1791 57.951 77.5946 58.0438 77.9813 58.1974C78.3962 58.3828 78.7524 58.6304 79.0499 58.9377C79.3762 59.2476 79.5839 59.5873 79.7623 60.019C79.9114 60.4197 79.9994 60.821 79.9994 61.2838C79.9994 61.7467 79.9114 62.1778 79.7623 62.5797C79.6139 62.9804 79.3762 63.3518 79.0499 63.6591C78.7524 63.9683 78.3962 64.216 77.9813 64.369C77.5946 64.555 77.1791 64.6166 76.7343 64.6166ZM88.0766 64.4617H86.532L86.1465 61.7156C86.1465 61.5302 86.1166 61.2838 86.0872 61.068C86.0573 60.821 86.0573 60.574 86.0273 60.2959C85.998 60.5429 85.9094 60.8819 85.7909 61.2838C85.7909 61.3765 85.761 61.4381 85.761 61.4692L84.9294 64.4617H83.8015L82.9694 61.4692C82.9694 61.4381 82.94 61.3765 82.9101 61.2838C82.791 60.8819 82.7317 60.5429 82.7024 60.2959C82.673 60.5429 82.6419 60.7594 82.6419 61.0057C82.6126 61.2527 82.5838 61.4692 82.5539 61.7156L82.1971 64.4617H80.6525L81.5733 58.106H83.237L84.1565 61.3765C84.1565 61.4076 84.1865 61.4381 84.1865 61.4991C84.2763 61.7772 84.3355 62.0248 84.3655 62.2413C84.3655 62.1175 84.3948 61.9937 84.4247 61.8699C84.4528 61.7156 84.4846 61.5619 84.5439 61.3765L85.4933 58.106H87.1259L88.0766 64.4617ZM47.3662 64.4617V59.5873H46V58.106H50.3942V59.5873H49.0286V64.4617H47.3662ZM76.7343 57.951V59.4317C76.2596 59.4317 75.9021 59.5873 75.5753 59.9568C75.2789 60.2959 75.1299 60.7594 75.1299 61.2838C75.1299 61.8388 75.2789 62.2705 75.5753 62.6413C75.8728 62.9804 76.2596 63.1658 76.7343 63.1658V64.6166C76.2877 64.6166 75.8728 64.555 75.4861 64.369C75.0706 64.216 74.7144 63.9683 74.4174 63.6591C74.0912 63.3518 73.8535 62.9804 73.7044 62.5797C73.5272 62.1778 73.4674 61.7467 73.4674 61.2838C73.4674 60.821 73.5272 60.4197 73.7044 60.019C73.8535 59.6171 74.0912 59.2476 74.4174 58.9377C74.7144 58.6304 75.0706 58.3828 75.4861 58.1974C75.8728 58.0438 76.2877 57.951 76.7343 57.951ZM51.2264 64.4617V58.106H54.9686V59.4933H52.8601V60.6051H54.8489V61.9632H52.8601V63.0426H54.9686V64.4617H51.2264ZM60.5212 58.353V60.2343C60.283 59.9879 60.0746 59.7714 59.8382 59.6489C59.5987 59.5257 59.3622 59.4635 59.0952 59.4635C58.6205 59.4635 58.2337 59.6489 57.9362 59.9879C57.6398 60.3276 57.4914 60.7594 57.4914 61.3149C57.4914 61.8388 57.6398 62.2413 57.9362 62.5797C58.2637 62.9201 58.6492 63.1042 59.0952 63.1042C59.3622 63.1042 59.5987 63.0426 59.8382 62.9201C60.0746 62.795 60.283 62.5797 60.5212 62.3327V64.216C60.2536 64.369 59.9854 64.4617 59.719 64.5239C59.4526 64.5855 59.2143 64.6166 58.9467 64.6166C58.5899 64.6166 58.2936 64.5855 57.996 64.4928C57.729 64.4312 57.4614 64.2776 57.2238 64.1233C56.7796 63.8141 56.4228 63.4134 56.1851 62.9201C55.948 62.4254 55.8289 61.901 55.8289 61.2838C55.8289 60.7892 55.8888 60.3581 56.0372 59.9568C56.1851 59.5549 56.4228 59.1854 56.749 58.8762C57.0166 58.5682 57.3429 58.3212 57.729 58.1676C58.0852 58.0133 58.4708 57.951 58.9467 57.951C59.2143 57.951 59.4526 57.9822 59.719 58.0438C59.9854 58.106 60.2536 58.1974 60.5212 58.353ZM61.4707 64.4617V58.106H63.1344V60.574H65.3608V58.106H67.0227V64.4617H65.3608V61.8699H63.1344V64.4617H61.4707ZM72.7843 58.353V60.2343C72.5466 59.9879 72.3089 59.7714 72.1018 59.6489C71.8635 59.5257 71.6259 59.4635 71.3576 59.4635C70.8841 59.4635 70.4974 59.6489 70.201 59.9879C69.9035 60.3276 69.755 60.7594 69.755 61.3149C69.755 61.8388 69.9035 62.2413 70.201 62.5797C70.4974 62.9201 70.8841 63.1042 71.3576 63.1042C71.6259 63.1042 71.8635 63.0426 72.1018 62.9201C72.3089 62.795 72.5466 62.5797 72.7843 62.3327V64.216C72.5167 64.369 72.2491 64.4617 71.9827 64.5239C71.7151 64.5855 71.4481 64.6166 71.1805 64.6166C70.8542 64.6166 70.5573 64.5855 70.2609 64.4928C69.9927 64.4312 69.7251 64.2776 69.4886 64.1233C69.0127 63.8141 68.6864 63.4134 68.4188 62.9201C68.1817 62.4254 68.0632 61.901 68.0632 61.2838C68.0632 60.7892 68.1524 60.3581 68.2997 59.9568C68.4481 59.5549 68.6864 59.1854 68.9827 58.8762C69.2803 58.5682 69.606 58.3212 69.9634 58.1676C70.3501 58.0133 70.7357 57.951 71.1805 57.951C71.4481 57.951 71.7151 57.9822 71.9827 58.0438C72.2491 58.106 72.5167 58.1974 72.7843 58.353Z" fill="#EC2027"/>
</g>
<mask id="mask1_854_11186" style="mask-type:luminance" maskUnits="userSpaceOnUse" x="88" y="57" width="26" height="8">
<path d="M88.8569 57.9733H114V64.475H88.8569V57.9733Z" fill="white"/>
</mask>
<g mask="url(#mask1_854_11186)">
<path fill-rule="evenodd" clip-rule="evenodd" d="M97.2224 63.3207V62.0864H98.0546L97.4307 59.9879C97.4014 59.9263 97.3715 59.8336 97.3403 59.6787C97.3116 59.5549 97.2523 59.3708 97.2224 59.1542V58.106H98.2623L100.371 64.4617H98.7077L98.382 63.3207H97.2224ZM100.964 64.4617V58.106H102.568L104.884 61.3765C104.913 61.4381 105.003 61.5918 105.092 61.7772C105.21 61.9937 105.328 62.2089 105.447 62.487C105.419 62.2413 105.389 61.9937 105.359 61.8083C105.359 61.5918 105.328 61.4076 105.328 61.2527V58.106H106.933V64.4617H105.328L103.013 61.1911C102.983 61.1295 102.895 60.9746 102.805 60.7892C102.685 60.574 102.597 60.3276 102.479 60.0806C102.509 60.3276 102.538 60.574 102.538 60.7892C102.568 60.9746 102.568 61.16 102.568 61.3149V64.4617H100.964ZM108.269 64.4617V58.106H109.903V61.0057L111.862 58.106H113.791L111.535 61.2222L113.999 64.4617H111.922L109.903 61.6241V64.4617H108.269ZM91.1951 60.6355C91.4022 60.6051 91.5812 60.574 91.6704 60.5124C91.8176 60.4197 91.9075 60.2343 91.9075 60.019C91.9075 59.7714 91.8476 59.6171 91.6991 59.4933C91.5812 59.4317 91.4327 59.4019 91.1951 59.3708V58.106C91.5812 58.106 91.8775 58.1352 92.0853 58.1675C92.3535 58.2285 92.5899 58.2901 92.7983 58.4139C93.0054 58.5377 93.1838 58.7225 93.3029 58.9377C93.4221 59.1542 93.4814 59.4019 93.4814 59.6787C93.4814 60.0495 93.3921 60.3581 93.2137 60.5428C93.0366 60.7594 92.739 60.9448 92.3535 61.0362C92.7983 61.0679 93.1551 61.2222 93.3921 61.5302C93.6304 61.8083 93.7477 62.1778 93.7477 62.6413C93.7477 62.9804 93.6897 63.2896 93.54 63.5372C93.4221 63.814 93.2137 63.9994 92.9467 64.1537C92.739 64.2775 92.5019 64.3385 92.1751 64.4014C91.9679 64.4312 91.6405 64.4617 91.1951 64.4617V63.1658C91.5213 63.1658 91.7596 63.1042 91.9075 63.0115C92.0853 62.92 92.1751 62.7346 92.1751 62.487C92.1751 62.2413 92.0853 62.0553 91.9368 61.9321C91.7883 61.8388 91.5513 61.7772 91.1951 61.7772V60.6355ZM97.2224 58.106V59.1542C97.2224 59.1238 97.2224 59.1238 97.2224 59.1238C97.1631 59.2781 97.1332 59.4317 97.1039 59.5873C97.0752 59.7098 97.044 59.8641 96.986 59.9879L96.3909 62.0864H97.2224V63.3207H96.0353L95.7078 64.4617H94.0453L96.1532 58.106H97.2224ZM90.5114 60.6355H90.8682C90.9873 60.6355 91.0765 60.6355 91.1951 60.6355V61.7772C91.1645 61.7772 91.1346 61.7772 91.1065 61.7772H90.5114V63.1658H91.0765C91.1065 63.1658 91.1645 63.1658 91.1951 63.1658V64.4617C91.0454 64.4617 90.8969 64.4617 90.6898 64.4617H88.968V58.106H90.6598C90.8682 58.106 91.016 58.106 91.1951 58.106V59.3708C91.1065 59.3708 90.9873 59.3708 90.8682 59.3708H90.5114V60.6355Z" fill="#221F20"/>
</g>
<path fill-rule="evenodd" clip-rule="evenodd" d="M93.0054 50.8841C93.0647 50.8841 93.0946 50.853 93.1246 50.853C93.1551 50.8225 93.1838 50.7616 93.1838 50.6994C93.1838 50.6378 93.1551 50.5762 93.1246 50.5451C93.0946 50.5451 93.0647 50.514 93.0054 50.514V50.4219C93.0946 50.4219 93.1551 50.4524 93.1838 50.4835C93.2437 50.5451 93.273 50.6067 93.273 50.6994C93.273 50.7914 93.2437 50.853 93.1838 50.8841C93.1551 50.9457 93.0946 50.9768 93.0054 50.9768V50.8841ZM93.0054 51.7172C93.4221 51.7172 93.7777 51.3775 93.7777 50.9146C93.7777 50.4835 93.4221 50.1438 93.0054 50.1438V50.2054C93.3922 50.2054 93.7178 50.514 93.7178 50.9146C93.7178 51.3476 93.3922 51.6556 93.0054 51.6556V51.7172ZM93.0054 51.1006V50.9768L93.3622 51.4702H93.2437L93.0054 51.1006ZM92.8576 50.514V50.8841H92.9468C92.9761 50.8841 92.9761 50.8841 93.0054 50.8841V51.1006L92.9175 50.9768H92.8576V51.4702H92.769V50.4219H92.9468C92.9761 50.4219 92.9761 50.4219 93.0054 50.4219V50.514C92.9761 50.514 92.9761 50.514 92.9468 50.514H92.8576ZM93.0054 50.1438C92.59 50.1438 92.2344 50.4835 92.2344 50.9146C92.2344 51.3775 92.59 51.7172 93.0054 51.7172V51.6556C92.6199 51.6556 92.2924 51.3476 92.2924 50.9146C92.2924 50.514 92.6199 50.2054 93.0054 50.2054V50.1438Z" fill="#EC2027"/>
</g>
<defs>
<clipPath id="clip0_854_11186">
<rect width="68" height="32" fill="white" transform="translate(46 32.6165)"/>
</clipPath>
</defs>
</svg>
