<svg width="160" height="97" viewBox="0 0 160 97" fill="none" xmlns="http://www.w3.org/2000/svg">
<rect y="0.616455" width="160" height="96" rx="24" fill="#F1F3F5"/>
<path fill-rule="evenodd" clip-rule="evenodd" d="M65.5653 56.267H65.1596C65.1337 56.267 65.1078 56.2755 65.0991 56.2926C65.0819 56.3096 65.0732 56.3267 65.0732 56.3523V58.8006C65.0732 58.8262 65.0646 58.8433 65.0473 58.8433C65.0301 58.8433 65.0214 58.8347 65.0128 58.8091L63.9164 56.4205C63.8905 56.3608 63.8646 56.3267 63.8301 56.3011C63.7955 56.284 63.761 56.267 63.7092 56.267H63.1999C63.1481 56.267 63.1049 56.284 63.0704 56.3182C63.0358 56.3523 63.0186 56.4035 63.0186 56.4461V59.6196C63.0186 59.6452 63.0272 59.6708 63.0445 59.6878C63.0617 59.7049 63.0876 59.7134 63.1049 59.7134H63.502C63.5279 59.7134 63.5452 59.7049 63.5624 59.6878C63.5797 59.6708 63.5883 59.6452 63.5883 59.6196V57.2821C63.5883 57.2565 63.597 57.248 63.6056 57.248C63.6229 57.248 63.6401 57.2565 63.6488 57.2821L64.6934 59.5428C64.7279 59.6196 64.7624 59.6622 64.8056 59.6793C64.8488 59.6964 64.9092 59.7049 64.9783 59.7049H65.4531C65.5049 59.7049 65.5481 59.6878 65.5912 59.6537C65.6258 59.6196 65.643 59.5769 65.643 59.5257V56.3437C65.643 56.3182 65.6344 56.2926 65.6171 56.284C65.6085 56.2755 65.5912 56.267 65.5653 56.267Z" fill="#582E91"/>
<path fill-rule="evenodd" clip-rule="evenodd" d="M68.6906 56.4718C68.6474 56.4462 68.5784 56.412 68.4834 56.3694C68.3884 56.3267 68.2762 56.3011 68.1553 56.267C68.0345 56.2414 67.905 56.2244 67.7668 56.2244C67.5942 56.2244 67.4388 56.2414 67.292 56.2841C67.1453 56.3267 66.9985 56.395 66.869 56.5059C66.7309 56.6083 66.6273 56.7618 66.5496 56.9495C66.4719 57.1372 66.4287 57.376 66.4287 57.6575V58.3315C66.4287 58.5874 66.4719 58.8092 66.5496 58.9969C66.6273 59.1846 66.7309 59.3296 66.8604 59.449C66.9899 59.5599 67.128 59.6452 67.2748 59.6879C67.4129 59.7391 67.5596 59.7561 67.6978 59.7561C67.8186 59.7561 67.9481 59.7561 68.0949 59.7476C68.2417 59.7391 68.3625 59.7305 68.4575 59.722C68.5525 59.7135 68.6388 59.6964 68.7165 59.6793C68.7769 59.6623 68.8028 59.6282 68.8028 59.5684V58.0073C68.8028 57.9817 68.7942 57.9561 68.7769 57.9391C68.7596 57.922 68.7337 57.9135 68.7165 57.9135H68.2503C68.2244 57.9135 68.2071 57.922 68.1899 57.9391C68.1726 57.9561 68.164 57.9817 68.164 58.0073V59.1931C68.0172 59.2016 67.8618 59.2101 67.6978 59.2101C67.5337 59.2101 67.3956 59.1419 67.2748 58.9969C67.1539 58.8604 67.0935 58.6386 67.0935 58.3315V57.649C67.0935 57.3334 67.1539 57.103 67.2748 56.9751C67.3956 56.8471 67.5769 56.7789 67.8273 56.7789C67.9827 56.7789 68.1381 56.8045 68.2935 56.8471C68.4489 56.8898 68.5784 56.9324 68.6992 56.9836C68.7769 57.0092 68.8201 56.9921 68.8201 56.9154V56.5997C68.7942 56.5571 68.7596 56.5144 68.6906 56.4718Z" fill="#582E91"/>
<path fill-rule="evenodd" clip-rule="evenodd" d="M70.3998 56.0282C70.4257 56.0282 70.443 56.0282 70.4603 56.0196C70.4775 56.0111 70.4862 55.994 70.5121 55.9684L70.8487 55.5931L71.1854 55.9684C71.1941 55.977 71.2027 55.9855 71.22 56.0026C71.2286 56.0111 71.2459 56.0196 71.2545 56.0282C71.2631 56.0367 71.2804 56.0367 71.2977 56.0367H71.6862C71.7121 56.0367 71.7293 56.0282 71.7293 56.0026C71.7293 55.9855 71.7207 55.9684 71.7121 55.9514L71.2804 55.3969C71.2545 55.3713 71.2372 55.3457 71.22 55.3457C71.2027 55.3372 71.1854 55.3372 71.1595 55.3372H70.5466C70.5207 55.3372 70.4948 55.3457 70.4862 55.3457C70.4775 55.3542 70.4516 55.3713 70.4257 55.4054L69.9941 55.9599C69.9854 55.9684 69.9768 55.9855 69.9768 56.0111C69.9768 56.0282 69.9941 56.0452 70.02 56.0452H70.3998V56.0282Z" fill="#582E91"/>
<path fill-rule="evenodd" clip-rule="evenodd" d="M72.2733 59.6196L71.505 56.7021C71.4187 56.3865 71.2028 56.2244 70.8489 56.2244C70.4949 56.2244 70.2791 56.3865 70.1927 56.7021L69.4244 59.6196C69.4244 59.6282 69.4244 59.6282 69.4244 59.6367C69.4244 59.6367 69.4244 59.6452 69.4158 59.6452C69.4158 59.6708 69.4244 59.6879 69.4417 59.7049C69.4589 59.722 69.4762 59.722 69.5021 59.722H70.0028C70.0201 59.722 70.046 59.7135 70.0633 59.6964C70.0805 59.6793 70.0892 59.6623 70.0978 59.6452L70.3136 58.758H71.3927L71.6086 59.6452C71.6172 59.6623 71.6258 59.6879 71.6431 59.6964C71.6604 59.7135 71.6776 59.722 71.6949 59.722H72.1956C72.2215 59.722 72.2388 59.7135 72.2561 59.7049C72.2733 59.6879 72.282 59.6708 72.282 59.6452C72.282 59.6367 72.282 59.6367 72.282 59.6367C72.2733 59.6282 72.2733 59.6196 72.2733 59.6196ZM70.4345 58.2291L70.7712 56.8471C70.7798 56.8215 70.7884 56.7959 70.7971 56.7874C70.8057 56.7789 70.823 56.7703 70.8402 56.7703C70.8661 56.7703 70.8834 56.7789 70.892 56.7874C70.9007 56.7959 70.9093 56.813 70.9179 56.8471L71.2546 58.2291H70.4345Z" fill="#582E91"/>
<path fill-rule="evenodd" clip-rule="evenodd" d="M75.4502 56.267H75.0444C75.0185 56.267 75.0012 56.2755 74.9753 56.2926C74.9581 56.3096 74.9495 56.3267 74.9495 56.3523V58.8006C74.9495 58.8262 74.9408 58.8433 74.9236 58.8433C74.9063 58.8433 74.8977 58.8347 74.889 58.8091L73.7926 56.4205C73.7667 56.3608 73.7408 56.3267 73.7063 56.3011C73.6804 56.284 73.6372 56.267 73.5854 56.267H73.0761C73.0243 56.267 72.9811 56.284 72.9466 56.3182C72.912 56.3523 72.8948 56.4035 72.8948 56.4461V59.6196C72.8948 59.6452 72.9034 59.6708 72.9207 59.6878C72.9379 59.7049 72.9638 59.7134 72.9811 59.7134H73.3869C73.4128 59.7134 73.43 59.7049 73.4473 59.6878C73.4646 59.6708 73.4732 59.6452 73.4732 59.6196V57.2821C73.4732 57.2565 73.4818 57.248 73.4991 57.248C73.5164 57.248 73.5336 57.2565 73.5423 57.2821L74.5869 59.5428C74.6214 59.6196 74.6559 59.6622 74.6991 59.6793C74.7423 59.6964 74.8027 59.7049 74.8718 59.7049H75.3466C75.3984 59.7049 75.4415 59.6878 75.4761 59.6537C75.5106 59.6196 75.5279 59.5769 75.5279 59.5257V56.3437C75.5279 56.3182 75.5192 56.2926 75.502 56.284C75.502 56.2755 75.4761 56.267 75.4502 56.267Z" fill="#582E91"/>
<path fill-rule="evenodd" clip-rule="evenodd" d="M80.3537 56.267H79.8875C79.8617 56.267 79.8444 56.2755 79.8185 56.2926C79.8012 56.3096 79.7926 56.3352 79.7926 56.3523V57.6319H78.4545V56.3523C78.4545 56.3267 78.4458 56.3096 78.4286 56.2926C78.4113 56.2755 78.3854 56.267 78.3595 56.267H77.8933C77.8674 56.267 77.8501 56.2755 77.8242 56.2926C77.807 56.3096 77.7983 56.3352 77.7983 56.3523V59.6281C77.7983 59.6537 77.807 59.6793 77.8242 59.6964C77.8415 59.7134 77.8674 59.7219 77.8847 59.7219H78.3509C78.3768 59.7219 78.394 59.7134 78.4199 59.6964C78.4372 59.6793 78.4458 59.6537 78.4458 59.6281V58.2035H79.784V59.6281C79.784 59.6537 79.7926 59.6793 79.8098 59.6964C79.8271 59.7134 79.853 59.7219 79.8789 59.7219H80.3451C80.371 59.7219 80.3883 59.7134 80.4142 59.6964C80.4314 59.6793 80.4401 59.6537 80.4401 59.6281V56.3523C80.4401 56.3267 80.4314 56.3011 80.4142 56.284C80.4055 56.2755 80.3796 56.267 80.3537 56.267Z" fill="#582E91"/>
<path fill-rule="evenodd" clip-rule="evenodd" d="M83.928 59.6196L83.1597 56.7021C83.0733 56.3865 82.8575 56.2244 82.5036 56.2244C82.1496 56.2244 81.9338 56.3865 81.8474 56.7021L81.0791 59.6196C81.0791 59.6282 81.0791 59.6282 81.0791 59.6367V59.6452C81.0791 59.6708 81.0877 59.6879 81.105 59.7049C81.1223 59.722 81.1395 59.722 81.1654 59.722H81.6662C81.6834 59.722 81.7093 59.7135 81.7266 59.6964C81.7438 59.6793 81.7525 59.6623 81.7611 59.6452L81.9769 58.758H83.0647L83.2805 59.6452C83.2805 59.6623 83.2978 59.6879 83.3151 59.6964C83.3323 59.7135 83.3496 59.722 83.3669 59.722H83.8676C83.8935 59.722 83.9108 59.7135 83.928 59.7049C83.9453 59.6879 83.9539 59.6708 83.9539 59.6452C83.9539 59.6367 83.9539 59.6367 83.9539 59.6367C83.928 59.6282 83.928 59.6196 83.928 59.6196ZM82.0892 58.2291L82.4259 56.8471C82.4345 56.8215 82.4431 56.7959 82.4518 56.7874C82.4604 56.7789 82.4777 56.7703 82.4949 56.7703C82.5122 56.7703 82.5295 56.7789 82.5467 56.7874C82.5554 56.7959 82.564 56.813 82.5726 56.8471L82.9093 58.2291H82.0892Z" fill="#582E91"/>
<path fill-rule="evenodd" clip-rule="evenodd" d="M82.4688 55.9684C82.4774 55.977 82.4947 55.9855 82.5033 56.0026C82.512 56.0111 82.5206 56.0196 82.5379 56.0282C82.5465 56.0367 82.5638 56.0367 82.581 56.0367H82.9868C83.0127 56.0367 83.0299 56.0282 83.0299 56.0026C83.0299 55.9855 83.0213 55.9684 83.0127 55.9514L82.5724 55.3969C82.5465 55.3713 82.5292 55.3457 82.512 55.3457C82.4947 55.3372 82.4774 55.3372 82.4515 55.3372H81.9422C81.9076 55.3372 81.8904 55.3457 81.8904 55.3713C81.8904 55.3798 81.899 55.3969 81.9076 55.4054L82.4688 55.9684Z" fill="#582E91"/>
<path fill-rule="evenodd" clip-rule="evenodd" d="M87.1049 56.267H86.6991C86.6732 56.267 86.6473 56.2755 86.6387 56.2926C86.6214 56.3096 86.6128 56.3267 86.6128 56.3523V58.8006C86.6128 58.8262 86.6041 58.8433 86.5869 58.8433C86.5696 58.8433 86.561 58.8347 86.5524 58.8091L85.4559 56.4205C85.43 56.3608 85.4042 56.3267 85.3696 56.3011C85.3437 56.284 85.3006 56.267 85.2488 56.267H84.7394C84.6876 56.267 84.6444 56.284 84.6099 56.3182C84.5754 56.3523 84.5581 56.4035 84.5581 56.4461V59.6196C84.5581 59.6452 84.5667 59.6708 84.5926 59.6878C84.6099 59.7049 84.6358 59.7134 84.6531 59.7134H85.0502C85.0761 59.7134 85.0934 59.7049 85.1106 59.6878C85.1279 59.6708 85.1365 59.6452 85.1365 59.6196V57.2821C85.1365 57.2565 85.1452 57.248 85.1624 57.248C85.1797 57.248 85.197 57.2565 85.2056 57.2821L86.2502 59.5428C86.2847 59.6196 86.3193 59.6622 86.3624 59.6793C86.4056 59.6964 86.4574 59.7049 86.5351 59.7049H87.0099C87.0617 59.7049 87.1049 59.6878 87.148 59.6537C87.1826 59.6196 87.1998 59.5769 87.1998 59.5257V56.3437C87.1998 56.3182 87.1912 56.2926 87.1739 56.284C87.1567 56.2755 87.1308 56.267 87.1049 56.267Z" fill="#582E91"/>
<path fill-rule="evenodd" clip-rule="evenodd" d="M90.2301 56.4718C90.187 56.4462 90.1179 56.412 90.0229 56.3694C89.928 56.3267 89.8157 56.3011 89.6949 56.267C89.574 56.2414 89.4445 56.2244 89.3064 56.2244C89.1337 56.2244 88.9783 56.2414 88.8316 56.2841C88.6848 56.3267 88.538 56.395 88.4086 56.5059C88.2704 56.6083 88.1668 56.7618 88.0891 56.9495C88.0114 57.1372 87.9683 57.376 87.9683 57.6575V58.3315C87.9683 58.5874 88.0028 58.8092 88.0891 58.9969C88.1668 59.1846 88.2704 59.3296 88.3999 59.449C88.5294 59.5599 88.6675 59.6452 88.8057 59.6879C88.9524 59.7391 89.0906 59.7561 89.2287 59.7561C89.3496 59.7561 89.4791 59.7561 89.6258 59.7476C89.7726 59.7391 89.8934 59.7305 89.9884 59.722C90.0834 59.7135 90.1697 59.6964 90.2474 59.6793C90.3078 59.6623 90.3337 59.6282 90.3337 59.5684V58.0073C90.3337 57.9817 90.3251 57.9561 90.3078 57.9391C90.2906 57.922 90.2647 57.9135 90.2474 57.9135H89.7812C89.7553 57.9135 89.738 57.922 89.7208 57.9391C89.7035 57.9561 89.6949 57.9817 89.6949 58.0073V59.1931C89.5481 59.2016 89.3927 59.2101 89.2287 59.2101C89.0647 59.2101 88.9265 59.1419 88.8057 58.9969C88.6848 58.8604 88.6244 58.6386 88.6244 58.3315V57.649C88.6244 57.3334 88.6848 57.103 88.8057 56.9751C88.9265 56.8471 89.1078 56.7789 89.3582 56.7789C89.5136 56.7789 89.669 56.8045 89.8244 56.8471C89.9798 56.8898 90.1093 56.9324 90.2301 56.9836C90.3078 57.0092 90.3424 56.9921 90.3424 56.9154V56.5997C90.3337 56.5571 90.2992 56.5144 90.2301 56.4718Z" fill="#582E91"/>
<path fill-rule="evenodd" clip-rule="evenodd" d="M94.797 56.267H92.4919C92.466 56.267 92.4401 56.2755 92.4229 56.2926C92.4056 56.3096 92.397 56.3352 92.397 56.3523V56.7191C92.397 56.7447 92.4056 56.7618 92.4229 56.7788C92.4401 56.7959 92.466 56.8044 92.4919 56.8044H93.3121V59.6281C93.3121 59.6537 93.3207 59.6793 93.338 59.6964C93.3552 59.7134 93.3811 59.7219 93.3984 59.7219H93.8646C93.8905 59.7219 93.9078 59.7134 93.9337 59.6964C93.9509 59.6793 93.9596 59.6537 93.9596 59.6281V56.8044H94.7797C94.8056 56.8044 94.8315 56.7959 94.8488 56.7873C94.866 56.7703 94.8747 56.7532 94.8747 56.7276V56.3608C94.8747 56.3352 94.866 56.3096 94.8488 56.2926C94.8401 56.2755 94.8229 56.267 94.797 56.267Z" fill="#582E91"/>
<path fill-rule="evenodd" clip-rule="evenodd" d="M96.0919 56.267H95.6257C95.5998 56.267 95.5826 56.2755 95.5567 56.2926C95.5394 56.3096 95.5308 56.3352 95.5308 56.3523V59.6281C95.5308 59.6537 95.5394 59.6793 95.5567 59.6964C95.5739 59.7134 95.5998 59.7219 95.6171 59.7219H96.0833C96.1092 59.7219 96.1264 59.7134 96.1523 59.6964C96.1696 59.6793 96.1782 59.6537 96.1782 59.6281V56.3523C96.1782 56.3267 96.1696 56.3096 96.1523 56.2926C96.1437 56.2755 96.1178 56.267 96.0919 56.267Z" fill="#582E91"/>
<path fill-rule="evenodd" clip-rule="evenodd" d="M99.01 56.2926C98.751 56.25 98.4489 56.2244 98.1122 56.2244C97.8877 56.2244 97.6978 56.25 97.5424 56.3011C97.387 56.3523 97.2575 56.4462 97.1625 56.5912C97.0676 56.7362 97.0244 56.9239 97.0244 57.1798V58.8007C97.0244 59.0481 97.0676 59.2443 97.1625 59.3893C97.2575 59.5258 97.3784 59.6282 97.5424 59.6793C97.6978 59.7305 97.8964 59.7561 98.1122 59.7561C98.2503 59.7561 98.3539 59.7561 98.4143 59.7476C98.4748 59.7476 98.5611 59.7391 98.6561 59.7305C98.7597 59.722 98.8287 59.7135 98.8805 59.7049C98.9323 59.6964 98.9669 59.6879 99.0014 59.6879C99.0618 59.6793 99.0964 59.6452 99.0964 59.594V59.2955C99.0964 59.2699 99.0877 59.2443 99.0705 59.2272C99.0532 59.2101 99.0273 59.2016 99.0014 59.2016H98.0431C97.905 59.2016 97.81 59.176 97.7582 59.1163C97.7064 59.0566 97.6719 58.9542 97.6719 58.8007V58.195H98.9496C98.9755 58.195 98.9928 58.1864 99.01 58.1694C99.0273 58.1523 99.0359 58.1267 99.0359 58.1011V57.7684C99.0359 57.7428 99.0273 57.7173 99.01 57.7002C98.9928 57.6831 98.9669 57.6746 98.941 57.6746H97.6633V57.1713C97.6633 57.0177 97.6892 56.9154 97.7496 56.8556C97.8014 56.7959 97.905 56.7703 98.0345 56.7703H98.9928C99.0187 56.7703 99.0446 56.7618 99.0618 56.7447C99.0791 56.7277 99.0877 56.7021 99.0877 56.6765V56.3779C99.0877 56.3438 99.0791 56.3182 99.0705 56.3097C99.0705 56.3097 99.0532 56.3011 99.01 56.2926Z" fill="#582E91"/>
<path fill-rule="evenodd" clip-rule="evenodd" d="M97.3522 56.0196H97.7407C97.7666 56.0196 97.7839 56.0111 97.8012 56.0111C97.8098 56.0025 97.8271 55.9855 97.853 55.9599L98.1897 55.5845L98.5263 55.9599C98.535 55.9684 98.5436 55.977 98.5609 55.994C98.5695 56.0025 98.5868 56.0111 98.5954 56.0196C98.604 56.0281 98.6213 56.0281 98.6386 56.0281H99.0271C99.053 56.0281 99.0702 56.0196 99.0702 55.994C99.0702 55.977 99.0616 55.9599 99.053 55.9428L98.6213 55.3883C98.5954 55.3627 98.5781 55.3371 98.5609 55.3371C98.5436 55.3286 98.5263 55.3286 98.4918 55.3286H97.8789C97.853 55.3286 97.8271 55.3286 97.8184 55.3371C97.8012 55.3457 97.7839 55.3627 97.758 55.3969L97.3263 55.9514C97.3177 55.9599 97.3091 55.977 97.3091 56.0025C97.3091 56.0111 97.3177 56.0196 97.3522 56.0196Z" fill="#582E91"/>
<path fill-rule="evenodd" clip-rule="evenodd" d="M102.446 56.267H102.04C102.014 56.267 101.997 56.2755 101.98 56.2926C101.962 56.3096 101.954 56.3267 101.954 56.3523V58.8006C101.954 58.8262 101.945 58.8433 101.928 58.8433C101.911 58.8433 101.902 58.8347 101.885 58.8091L100.788 56.4205C100.762 56.3608 100.737 56.3267 100.702 56.3011C100.676 56.284 100.633 56.267 100.581 56.267H100.072C100.02 56.267 99.9768 56.284 99.9423 56.3182C99.9077 56.3523 99.8818 56.4035 99.8818 56.4461V59.6196C99.8818 59.6452 99.8905 59.6708 99.9164 59.6878C99.9336 59.7049 99.9595 59.7134 99.9854 59.7134H100.383C100.408 59.7134 100.426 59.7049 100.443 59.6878C100.46 59.6708 100.469 59.6452 100.469 59.6196V57.2821C100.469 57.2565 100.478 57.248 100.495 57.248C100.512 57.248 100.529 57.2565 100.538 57.2821L101.583 59.5428C101.617 59.6196 101.652 59.6622 101.695 59.6793C101.738 59.6964 101.798 59.7049 101.867 59.7049H102.342C102.394 59.7049 102.437 59.6878 102.48 59.6537C102.515 59.6196 102.532 59.5769 102.532 59.5257V56.3437C102.532 56.3182 102.524 56.2926 102.506 56.284C102.498 56.2755 102.472 56.267 102.446 56.267Z" fill="#582E91"/>
<path fill-rule="evenodd" clip-rule="evenodd" d="M106.849 56.4803C106.599 56.3097 106.27 56.2329 105.865 56.2329C105.511 56.2329 105.2 56.25 104.941 56.2926C104.889 56.3012 104.855 56.3182 104.829 56.3353C104.803 56.3523 104.794 56.3865 104.794 56.4291V59.6282C104.794 59.6538 104.803 59.6794 104.82 59.6964C104.837 59.7135 104.863 59.722 104.881 59.722H105.355C105.381 59.722 105.399 59.7135 105.416 59.6964C105.433 59.6794 105.442 59.6538 105.442 59.6282V58.4168C105.476 58.4168 105.502 58.4168 105.528 58.4168C105.554 58.4168 105.606 58.4253 105.692 58.4253C105.778 58.4253 105.83 58.4339 105.856 58.4339C106.262 58.4339 106.581 58.3485 106.832 58.1779C107.082 58.0073 107.211 57.7258 107.211 57.3419V57.2993C107.22 56.9239 107.099 56.6509 106.849 56.4803ZM106.573 57.3419C106.573 57.4699 106.547 57.5722 106.504 57.6576C106.452 57.7429 106.383 57.8026 106.279 57.8367C106.175 57.8794 106.037 57.8964 105.873 57.8964C105.744 57.8964 105.606 57.8879 105.45 57.8794V56.7703C105.58 56.7533 105.718 56.7533 105.873 56.7533C106.115 56.7533 106.296 56.7959 106.409 56.8812C106.521 56.9666 106.581 57.1031 106.581 57.2993V57.3419H106.573Z" fill="#582E91"/>
<path fill-rule="evenodd" clip-rule="evenodd" d="M110.457 56.267H109.991C109.965 56.267 109.948 56.2755 109.922 56.2926C109.905 56.3096 109.896 56.3352 109.896 56.3523V57.6319H108.558V56.3523C108.558 56.3267 108.55 56.3096 108.532 56.2926C108.515 56.2755 108.489 56.267 108.463 56.267H107.997C107.971 56.267 107.954 56.2755 107.928 56.2926C107.911 56.3096 107.902 56.3352 107.902 56.3523V59.6281C107.902 59.6537 107.911 59.6793 107.937 59.6964C107.954 59.7134 107.98 59.7219 107.997 59.7219H108.463C108.489 59.7219 108.506 59.7134 108.524 59.6964C108.541 59.6793 108.55 59.6537 108.55 59.6281V58.2035H109.888V59.6281C109.888 59.6537 109.896 59.6793 109.914 59.6964C109.931 59.7134 109.957 59.7219 109.974 59.7219H110.44C110.466 59.7219 110.492 59.7134 110.509 59.6964C110.527 59.6793 110.535 59.6537 110.535 59.6281V56.3523C110.535 56.3267 110.527 56.3011 110.509 56.284C110.509 56.2755 110.483 56.267 110.457 56.267Z" fill="#582E91"/>
<path fill-rule="evenodd" clip-rule="evenodd" d="M113.35 56.3779C113.151 56.2755 112.909 56.2244 112.65 56.2244C112.383 56.2244 112.15 56.2755 111.951 56.3779C111.752 56.4803 111.588 56.6338 111.476 56.8556C111.364 57.0689 111.303 57.3504 111.303 57.6746V58.2974C111.303 58.6301 111.364 58.903 111.476 59.1163C111.588 59.3381 111.744 59.4917 111.951 59.594C112.15 59.6964 112.383 59.7476 112.65 59.7476C112.909 59.7476 113.142 59.6964 113.35 59.594C113.548 59.4917 113.712 59.3296 113.824 59.1163C113.937 58.903 113.997 58.6215 113.997 58.2974V57.6746C113.997 57.3419 113.937 57.0689 113.824 56.8556C113.712 56.6424 113.557 56.4803 113.35 56.3779ZM113.332 58.3059C113.332 58.613 113.28 58.8348 113.168 58.9798C113.056 59.1248 112.883 59.1931 112.65 59.1931C112.417 59.1931 112.244 59.1248 112.132 58.9798C112.02 58.8348 111.968 58.613 111.968 58.3059V57.6831C111.968 57.376 112.02 57.1542 112.132 57.0092C112.244 56.8642 112.417 56.7959 112.65 56.7959C112.883 56.7959 113.056 56.8642 113.168 57.0092C113.28 57.1542 113.332 57.376 113.332 57.6831V58.3059Z" fill="#582E91"/>
<path fill-rule="evenodd" clip-rule="evenodd" d="M117.312 56.267H116.906C116.88 56.267 116.863 56.2755 116.846 56.2926C116.829 56.3096 116.82 56.3267 116.82 56.3523V58.8006C116.82 58.8262 116.811 58.8433 116.794 58.8433C116.777 58.8433 116.768 58.8347 116.751 58.8091L115.654 56.4205C115.629 56.3608 115.603 56.3267 115.568 56.3011C115.534 56.284 115.499 56.267 115.447 56.267H114.938C114.886 56.267 114.843 56.284 114.808 56.3182C114.774 56.3523 114.757 56.4035 114.757 56.4461V59.6196C114.757 59.6452 114.765 59.6708 114.782 59.6878C114.8 59.7049 114.826 59.7134 114.843 59.7134H115.24C115.266 59.7134 115.283 59.7049 115.3 59.6878C115.318 59.6708 115.326 59.6452 115.326 59.6196V57.2821C115.326 57.2565 115.335 57.248 115.352 57.248C115.37 57.248 115.387 57.2565 115.395 57.2821L116.44 59.5428C116.475 59.6196 116.509 59.6622 116.552 59.6793C116.595 59.6964 116.656 59.7049 116.725 59.7049H117.2C117.252 59.7049 117.295 59.6878 117.329 59.6537C117.364 59.6196 117.381 59.5769 117.381 59.5257V56.3437C117.381 56.3182 117.372 56.2926 117.355 56.284C117.364 56.2755 117.338 56.267 117.312 56.267Z" fill="#582E91"/>
<path fill-rule="evenodd" clip-rule="evenodd" d="M119.004 56.9751C119.125 56.8471 119.306 56.7789 119.557 56.7789C119.712 56.7789 119.868 56.8045 120.023 56.8471C120.178 56.8898 120.308 56.9324 120.429 56.9836C120.506 57.0092 120.55 56.9921 120.55 56.9154V56.5997C120.55 56.5571 120.515 56.5144 120.446 56.4718C120.403 56.4462 120.325 56.412 120.239 56.3694C120.144 56.3267 120.04 56.3011 119.911 56.267C119.79 56.2414 119.66 56.2244 119.522 56.2244C119.358 56.2244 119.194 56.2414 119.047 56.2841C118.901 56.3267 118.754 56.395 118.624 56.5059C118.486 56.6083 118.383 56.7618 118.305 56.9495C118.227 57.1372 118.184 57.376 118.184 57.6575V58.3315C118.184 58.5874 118.219 58.8092 118.305 58.9969C118.383 59.1846 118.486 59.3296 118.616 59.449C118.745 59.5599 118.883 59.6452 119.03 59.6879C119.177 59.7391 119.315 59.7561 119.453 59.7561C119.574 59.7561 119.704 59.7561 119.85 59.7476C119.997 59.7391 120.118 59.7305 120.213 59.722C120.308 59.7135 120.394 59.6964 120.472 59.6793C120.532 59.6623 120.558 59.6282 120.558 59.5684V58.0073C120.558 57.9817 120.55 57.9561 120.532 57.9391C120.515 57.922 120.489 57.9135 120.472 57.9135H120.006C119.98 57.9135 119.963 57.922 119.945 57.9391C119.928 57.9561 119.919 57.9817 119.919 58.0073V59.1931C119.773 59.2016 119.617 59.2101 119.453 59.2101C119.289 59.2101 119.151 59.1419 119.03 58.9969C118.909 58.8604 118.849 58.6386 118.849 58.3315V57.649C118.823 57.3334 118.883 57.1116 119.004 56.9751Z" fill="#582E91"/>
<path fill-rule="evenodd" clip-rule="evenodd" d="M68.6043 42.0461V52.6926H65.9712V42.0461H63.105V39.9646H71.4532V42.0461H68.6043Z" fill="#582E91"/>
<path fill-rule="evenodd" clip-rule="evenodd" d="M82.8834 43.9656C82.8834 44.5542 82.7798 45.1087 82.5639 45.612C82.3481 46.1239 82.0201 46.5589 81.5884 46.9258C81.1567 47.2926 80.6129 47.5826 79.974 47.7874C79.3265 47.9921 78.5841 48.0945 77.7294 48.0945C77.5222 48.0945 77.2978 48.086 77.0733 48.0689C76.8488 48.0518 76.6589 48.0348 76.5208 48.0092V52.9315H74.0085V40.4679C74.5093 40.2461 75.0877 40.0755 75.7179 39.9476C76.3567 39.8196 77.056 39.7599 77.8071 39.7599C79.456 39.7599 80.7165 40.1438 81.5798 40.903C82.4517 41.6623 82.8834 42.686 82.8834 43.9656ZM80.3625 43.9485C80.3625 42.4556 79.5251 41.7134 77.8503 41.7134C77.5999 41.7134 77.3496 41.7305 77.1078 41.7646C76.8661 41.7988 76.6675 41.8499 76.5208 41.9097V46.0642C76.797 46.1324 77.1596 46.158 77.5999 46.158C78.515 46.158 79.197 45.9618 79.6632 45.5608C80.1294 45.1769 80.3625 44.6395 80.3625 43.9485Z" fill="#582E91"/>
<path fill-rule="evenodd" clip-rule="evenodd" d="M93.7783 49.3229C93.7783 50.4319 93.3639 51.3021 92.5265 51.9419C91.6891 52.5732 90.5064 52.8973 88.961 52.8973C88.6416 52.8973 88.3136 52.8803 87.9769 52.8462C87.6402 52.812 87.3121 52.7609 87.0013 52.7011C86.6905 52.6414 86.397 52.5732 86.1208 52.4879C85.8445 52.4026 85.6114 52.3172 85.4128 52.2234V40.4424C85.8445 40.2462 86.3625 40.0841 86.9754 39.9561C87.5884 39.8367 88.2272 39.7684 88.9006 39.7684C89.6258 39.7684 90.256 39.8537 90.8085 40.0158C91.361 40.1779 91.8186 40.3997 92.1898 40.6898C92.561 40.9798 92.8459 41.321 93.0359 41.739C93.2258 42.1485 93.3208 42.6007 93.3208 43.0954C93.3208 43.5049 93.2517 43.8718 93.1222 44.2045C92.9841 44.5372 92.82 44.8357 92.6042 45.0831C92.397 45.339 92.1639 45.5438 91.9049 45.6973C91.6459 45.8594 91.3956 45.9703 91.1538 46.0215V46.0556C91.4215 46.1239 91.7064 46.2348 92.0172 46.3883C92.3193 46.5419 92.6042 46.7466 92.8632 47.0111C93.1222 47.2755 93.338 47.5997 93.5107 47.9836C93.692 48.376 93.7783 48.8196 93.7783 49.3229ZM91.8704 43.1978C91.8704 42.4983 91.62 41.9438 91.1107 41.5514C90.6013 41.159 89.8675 40.9627 88.9179 40.9627C88.5294 40.9627 88.1495 40.9883 87.7783 41.0481C87.4071 41.1078 87.1049 41.1845 86.8718 41.2784V45.595H88.7452C89.3409 45.595 89.8071 45.5608 90.1265 45.4841C90.4546 45.4073 90.7567 45.2708 91.033 45.0661C91.292 44.8784 91.4992 44.6225 91.6459 44.2898C91.7927 43.9656 91.8704 43.5988 91.8704 43.1978ZM92.2589 49.2547C92.2589 48.2907 91.8704 47.5997 91.0848 47.1646C90.938 47.0879 90.7826 47.0196 90.6359 46.9599C90.4805 46.9087 90.3251 46.8575 90.1524 46.8234C89.9797 46.7893 89.7898 46.7637 89.574 46.7466C89.3582 46.7296 89.1078 46.721 88.8143 46.721H86.8718V51.3703C87.1136 51.4642 87.433 51.5409 87.8301 51.6007C88.2186 51.6604 88.6071 51.686 88.9783 51.686C90.0402 51.686 90.8517 51.4812 91.4215 51.0632C91.974 50.6537 92.2589 50.0481 92.2589 49.2547Z" fill="#582E91"/>
<path fill-rule="evenodd" clip-rule="evenodd" d="M102.411 52.2235C102.239 52.3173 102.04 52.4026 101.807 52.4879C101.565 52.5732 101.306 52.6415 101.021 52.7012C100.737 52.7609 100.443 52.8036 100.132 52.8462C99.8214 52.8803 99.5192 52.8974 99.2257 52.8974C97.9567 52.8974 97.007 52.6415 96.3768 52.1211C95.7466 51.6007 95.4358 50.8927 95.4358 49.9969C95.4358 49.3145 95.5998 48.7685 95.9279 48.359C96.2559 47.9495 96.679 47.6254 97.2056 47.4036C97.7322 47.1818 98.3279 47.0197 99.0013 46.9258C99.6746 46.832 100.357 46.7637 101.056 46.7296V46.013C101.056 45.305 100.849 44.8272 100.443 44.5628C100.037 44.2983 99.5106 44.1704 98.8631 44.1704C98.4401 44.1704 97.9912 44.2301 97.525 44.3495C97.0588 44.469 96.6617 44.5969 96.3509 44.7505L95.9797 43.7097C96.325 43.5476 96.7739 43.4026 97.3092 43.2576C97.8444 43.1211 98.4056 43.0443 98.9926 43.0443C99.502 43.0443 99.9682 43.104 100.391 43.2149C100.814 43.3258 101.177 43.505 101.479 43.7524C101.781 43.9998 102.014 44.3154 102.17 44.7078C102.334 45.1002 102.411 45.578 102.411 46.141V52.2235ZM101.056 47.7363C100.547 47.7789 100.037 47.8216 99.5279 47.8642C99.0185 47.9069 98.561 48.0092 98.1552 48.1543C97.7495 48.2993 97.4214 48.5126 97.171 48.7941C96.9121 49.0756 96.7912 49.468 96.7912 49.9628C96.7912 50.5258 96.9898 50.9694 97.3869 51.2936C97.784 51.6263 98.3883 51.7884 99.1912 51.7884C99.5538 51.7884 99.9077 51.7543 100.27 51.6945C100.633 51.6348 100.892 51.5666 101.065 51.4813V47.7363H101.056Z" fill="#582E91"/>
<path fill-rule="evenodd" clip-rule="evenodd" d="M109.862 52.6926V46.2945C109.862 45.6547 109.663 45.1514 109.275 44.776C108.878 44.4007 108.291 44.213 107.496 44.213C107.073 44.213 106.685 44.2471 106.331 44.3068C105.977 44.3666 105.675 44.4519 105.433 44.5457V52.6841H103.914V43.6926C104.388 43.4964 104.924 43.3429 105.519 43.2149C106.115 43.0955 106.762 43.0272 107.479 43.0272C108.765 43.0272 109.741 43.3002 110.388 43.8547C111.036 44.4007 111.364 45.177 111.364 46.1751V52.7012H109.862V52.6926Z" fill="#582E91"/>
<path fill-rule="evenodd" clip-rule="evenodd" d="M118.711 52.6926L114.316 47.83H114.273V52.6926H112.814V39.6063H114.273V47.5656H114.316L118.443 43.2149H120.213L115.922 47.7021L120.472 52.6926H118.711Z" fill="#582E91"/>
<path fill-rule="evenodd" clip-rule="evenodd" d="M42.3596 37.4993C42.2388 37.4993 42.1265 37.5078 42.0229 37.5163C42.1611 37.5334 42.2819 37.5675 42.4028 37.6187L47.574 39.7855L55.6891 43.1893L60.092 39.9135C60.1179 39.8964 60.1438 39.8708 60.1697 39.8452L60.187 39.8196C60.5496 39.1969 60.6014 38.6083 60.351 38.1732C60.092 37.7381 59.5481 37.4907 58.823 37.4907H42.3596V37.4993Z" fill="url(#paint0_linear_854_11184)"/>
<path fill-rule="evenodd" clip-rule="evenodd" d="M40.8315 38.1818C40.5725 38.6168 40.633 39.2055 40.9955 39.8197L49.2747 54.032C49.3437 54.1514 49.4214 54.2623 49.4991 54.3562C49.4905 54.3476 49.4905 54.3391 49.4819 54.3306C49.3869 54.177 49.3351 54.0064 49.3178 53.8358L47.574 39.7856L42.4027 37.6187C42.2819 37.5675 42.1524 37.5334 42.0229 37.5164C41.4617 37.5846 41.0473 37.8149 40.8315 38.1818Z" fill="url(#paint1_linear_854_11184)"/>
<path fill-rule="evenodd" clip-rule="evenodd" d="M60.1697 39.8538L51.9683 54.032C51.6057 54.6547 51.1309 54.9959 50.6215 54.9959C50.2158 54.9959 49.8186 54.7741 49.4992 54.3647C49.4906 54.3561 49.4906 54.3476 49.4819 54.3391C49.387 54.1855 49.3352 54.0149 49.3179 53.8443L48.6445 48.4443L55.6891 43.1978L60.092 39.922C60.1179 39.8964 60.1438 39.8794 60.1697 39.8538Z" fill="url(#paint2_linear_854_11184)"/>
<defs>
<linearGradient id="paint0_linear_854_11184" x1="35.9007" y1="35.0449" x2="62.5118" y2="41.7593" gradientUnits="userSpaceOnUse">
<stop stop-color="#F2AF22"/>
<stop offset="0.26" stop-color="#F9A022"/>
<stop offset="0.52" stop-color="#F78D22"/>
<stop offset="0.75" stop-color="#F17B23"/>
<stop offset="1" stop-color="#E56725"/>
</linearGradient>
<linearGradient id="paint1_linear_854_11184" x1="45.0865" y1="54.1317" x2="45.0865" y2="37.7526" gradientUnits="userSpaceOnUse">
<stop stop-color="#F2AF22"/>
<stop offset="0.26" stop-color="#F9A022"/>
<stop offset="0.52" stop-color="#F78D22"/>
<stop offset="0.75" stop-color="#F17B23"/>
<stop offset="1" stop-color="#E56725"/>
</linearGradient>
<linearGradient id="paint2_linear_854_11184" x1="64.9883" y1="36.2749" x2="41.3943" y2="61.0002" gradientUnits="userSpaceOnUse">
<stop stop-color="#F2AF22"/>
<stop offset="0.26" stop-color="#F9A022"/>
<stop offset="0.52" stop-color="#F78D22"/>
<stop offset="0.75" stop-color="#F17B23"/>
<stop offset="1" stop-color="#E56725"/>
</linearGradient>
</defs>
</svg>
