<svg width="160" height="97" viewBox="0 0 160 97" fill="none" xmlns="http://www.w3.org/2000/svg">
<rect y="0.616455" width="160" height="96" rx="24" fill="#F1F3F5"/>
<g clip-path="url(#clip0_808_13235)">
<path fill-rule="evenodd" clip-rule="evenodd" d="M102.483 33.8606C101.083 34.143 100.565 34.784 100.619 35.6998C100.687 36.9896 102.103 39.447 102.78 40.5383C103.96 42.4538 105.36 44.1786 106.913 45.7736C108.169 47.0176 108.96 47.2923 110.308 45.4531C111.457 43.9344 112.515 42.4309 113.421 40.5459C113.816 39.7217 114.189 38.8212 114.517 37.8062C114.867 36.6233 114.745 35.5777 113.588 34.8146C114.699 35.3564 115.186 36.3561 115.255 37.4627C115.323 38.5312 115.004 39.6912 114.76 40.5459C114.159 42.6751 113.382 44.8196 112.401 46.7504C111.662 48.2081 110.719 49.9634 109.775 51.2607C107.689 54.1379 105.695 53.2068 103.351 51.2607C101.867 50.0244 100.436 48.4676 99.2105 46.7581C97.9699 45.041 96.6075 42.492 95.8008 40.5307C94.6971 37.8519 95.5572 36.4783 96.9196 35.6082C98.419 34.6543 100.664 34.1124 102.483 33.8606Z" fill="url(#paint0_linear_808_13235)"/>
<path fill-rule="evenodd" clip-rule="evenodd" d="M102.43 39.9736C104.599 39.6454 110.239 39.2944 112.218 40.3247C112.88 40.6681 112.895 41.1336 112.834 41.6602C113.032 41.3015 113.222 40.9276 113.413 40.546C113.809 39.7218 114.181 38.8212 114.509 37.8062C114.859 36.6233 114.737 35.5778 113.58 34.8146C113.154 34.5857 112.659 34.4254 112.218 34.2957C110.916 33.9141 109.47 33.7614 108.016 33.6546C107.415 33.6088 106.791 33.6164 106.152 33.6164C105.002 33.6164 103.739 33.6928 102.483 33.8607C101.083 34.143 100.565 34.7841 100.618 35.6999C100.679 36.7988 101.714 38.7449 102.438 39.9736H102.43Z" fill="url(#paint1_linear_808_13235)"/>
<path fill-rule="evenodd" clip-rule="evenodd" d="M96.7673 63.5632C97.9013 63.4258 98.8603 62.8458 99.18 61.1287C99.3855 60.0297 99.3551 58.2592 99.0506 57.2289C98.906 56.7481 98.6929 56.3436 98.3808 56.0765C97.8481 55.6339 97.262 55.5499 96.7444 55.5347C95.8692 55.5041 95.3973 55.6568 94.7655 56.1681C94.6438 56.2673 94.5372 56.3131 94.5372 56.1376L94.5144 52.4744L92.4898 52.5049V63.006C93.3651 63.5937 95.755 63.6853 96.7749 63.5632H96.7673ZM42.477 63.3647C42.9032 63.3647 42.8195 63.4029 43.0783 63.0442C44.8365 60.625 46.5033 55.466 46.4805 52.5888C45.6585 52.5507 44.8365 52.6881 44.0069 52.8865C43.2153 57.6105 42.5151 58.8544 41.244 61.266C39.973 58.8544 39.2727 57.6105 38.4812 52.8865C37.6516 52.6881 36.8219 52.5507 36.0076 52.5888C35.9847 55.466 37.6516 60.625 39.4097 63.0442C39.6685 63.4029 39.5848 63.3647 40.011 63.3647H42.4846H42.477ZM100.664 55.9239L100.862 57.7707C101.661 57.6944 102.316 57.4807 103.161 57.4197C104.424 57.3739 105.231 57.3434 105.193 58.2668C104.249 58.2668 103.29 58.2668 102.308 58.2744C101.113 58.2821 100.124 58.8544 100.253 61.2813C100.413 64.2042 103.868 63.9829 105.444 62.8153V63.4716H107.278C107.233 60.4876 107.446 57.3586 106.913 56.5115C105.893 54.8936 102.537 55.4889 100.664 55.9239ZM57.4405 63.1205C57.372 62.5176 57.3035 61.9147 57.235 61.3195C56.4054 61.4721 54.9821 61.6858 54.1449 61.6552C53.1783 61.6247 52.8206 61.1592 52.8206 59.7779C53.125 60.1289 53.5588 60.3731 54.0992 60.3808C55.3627 60.396 56.5424 60.4189 57.783 60.3731C57.8363 58.076 58.0342 56.0689 55.7432 55.5728C54.8147 55.3744 53.5741 55.3744 52.6912 55.6415C51.7246 55.9315 51.2451 56.3894 50.9634 57.3586C50.4459 59.1597 50.5905 61.8384 51.7474 62.8687C53.0793 64.0516 55.7509 63.6318 57.4253 63.1281L57.4405 63.1205ZM53.7491 57.351H54.7614C55.2637 57.351 55.6824 57.7631 55.6824 58.2744V58.6865H52.8358V58.2744C52.8358 57.7707 53.2468 57.351 53.7567 57.351H53.7491ZM118.474 63.4563L118.535 60.0755C118.535 59.8694 118.725 60.1442 118.771 60.2281C119.441 61.35 120.057 62.1971 121.047 63.1892C121.328 63.4716 121.382 63.4487 121.876 63.4487H124C122.447 62.1666 121.587 61.1363 120.765 59.5794C120.598 59.2207 120.605 59.2589 120.841 58.9231C121.146 58.5644 121.534 58.0913 121.96 57.5952L123.772 55.4583C123.772 55.4583 123.787 55.4278 123.794 55.4126H121.869C121.519 55.4126 121.526 55.3591 121.283 55.6262C120.552 56.4199 119.707 57.3434 119.03 58.0989C118.946 58.1905 118.847 58.2592 118.763 58.3202C118.482 58.5186 118.535 58.4652 118.535 58.1828L118.52 52.4438L116.473 52.4591L116.45 63.4487H118.474V63.4563ZM70.9122 63.1892L70.7296 61.3958C69.8086 61.4721 68.8268 61.7316 67.845 61.6171C66.8631 61.5102 66.7413 60.9837 66.7337 60.1823C66.7337 59.7015 66.7109 59.1521 66.7413 58.6713C66.7794 58.0149 66.9697 57.5952 67.845 57.496C68.8268 57.3892 69.8086 57.641 70.7296 57.7173L70.9122 55.9239C67.3883 55.092 65.1887 55.5041 64.7015 58.2439C64.6026 58.8163 64.6483 60.7013 64.7853 61.2431C65.4094 63.6395 67.5633 63.9753 70.9122 63.1816V63.1892ZM59.8533 55.5347H58.567C58.567 56.1681 58.567 56.8015 58.5594 57.4349C59.0008 57.4349 59.4118 57.4349 59.8609 57.4426C59.8609 58.0836 59.8609 58.7628 59.8609 59.4115C59.8609 60.0908 59.8609 60.7242 59.8609 61.2813C59.8609 62.0826 60.0207 62.7771 60.4698 63.1358C60.66 63.2884 60.934 63.3647 61.2689 63.4029C62.0681 63.4945 63.0652 63.4487 63.7425 63.2274C63.7197 62.6855 63.6969 62.1437 63.674 61.5942C62.8825 61.6705 61.9083 61.846 61.9159 61.4339C61.9159 60.0526 61.9159 58.8239 61.9159 57.4349C62.5476 57.4349 63.1489 57.4349 63.7882 57.4273C63.7882 56.7939 63.7882 56.1681 63.7882 55.5347H61.9235C61.9235 54.8936 61.9235 54.2678 61.9235 53.642C61.2385 53.642 60.5459 53.642 59.8609 53.642C59.8609 54.2678 59.8609 54.8936 59.8609 55.527L59.8533 55.5347ZM47.272 63.4563L49.2738 63.4945L49.3499 55.5652H47.2644V63.4487H47.272V63.4563ZM74.5656 55.4355H76.3618C77.7623 55.4355 78.9115 56.5878 78.9115 57.9921V61.0218C78.9115 62.426 77.7623 63.5784 76.3618 63.5784H74.5656C73.1651 63.5784 72.0159 62.426 72.0159 61.0218V57.9921C72.0159 56.5878 73.1651 55.4355 74.5656 55.4355ZM74.9614 57.3586C74.459 57.3586 74.0404 57.7707 74.0404 58.2821V60.7471C74.0404 61.2508 74.4514 61.6705 74.9614 61.6705H75.9736C76.476 61.6705 76.8946 61.2584 76.8946 60.7471V58.2821C76.8946 57.7784 76.4836 57.3586 75.9736 57.3586H74.9614ZM82.2604 63.4639C82.2757 61.4416 82.2985 59.4268 82.3137 57.4044C82.8161 57.4044 83.3184 57.4044 83.8207 57.4044C84.2165 57.4044 84.6123 57.6639 84.6123 58.0913V63.4639H86.6369L86.6901 57.3968C87.2381 57.3968 87.7937 57.3968 88.3417 57.3968C88.8289 57.3968 89.1485 57.6715 89.1485 58.1371V63.4639H91.1579L91.2264 57.7402C91.2416 56.5191 90.5718 55.5194 89.1942 55.527C88.7604 55.527 88.3189 55.5347 87.8851 55.5423C87.2229 55.5423 86.8728 55.672 86.4694 56.0918C86.165 56.4047 86.3172 56.4123 86.0356 56.1147C85.6322 55.6797 85.1451 55.5347 84.521 55.5347H83.6C83.0368 55.5576 82.6791 55.7331 82.2604 56.1605C81.9256 56.5039 81.9636 56.6107 81.9636 56.0765V55.5805C81.3928 55.5805 80.8067 55.5805 80.2435 55.5881C80.2435 58.2134 80.2435 60.8387 80.2511 63.4639H82.2528H82.2604ZM110.62 63.4639C110.635 61.4416 110.658 59.4268 110.673 57.4044C111.183 57.4044 111.693 57.4044 112.195 57.4044C112.644 57.4044 113.002 57.6792 113.002 58.1371C113.002 59.9152 113.002 61.6858 113.002 63.4639H115.049C115.064 61.701 115.08 59.9305 115.103 58.1676C115.118 56.771 114.57 55.527 112.911 55.527H111.974C111.426 55.5499 111.069 55.7178 110.658 56.1147C110.307 56.4581 110.315 56.6413 110.315 56.0994V55.5728H108.565C108.565 58.1981 108.572 60.8387 108.572 63.4639H110.604H110.62ZM103.001 60.0526H105.231V61.2202C105.231 61.7087 103.823 61.7239 102.925 61.7087C102.27 61.6934 102.346 61.7087 102.316 61.1287C102.308 60.9073 102.316 60.6937 102.316 60.4723C102.316 60.0221 102.407 60.0526 103.001 60.0526ZM97.1859 58.6407V60.8158C97.1859 61.3195 96.7749 61.7392 96.2649 61.7392H95.2298C94.5068 61.7392 94.5068 61.7468 94.5068 60.7165V58.3813C94.5068 57.351 94.5068 57.3586 95.2298 57.3586H96.2649C96.7673 57.3586 97.1859 57.7707 97.1859 58.2821V58.6407Z" fill="#004522"/>
</g>
<defs>
<linearGradient id="paint0_linear_808_13235" x1="112.827" y1="46.1094" x2="96.8762" y2="34.9694" gradientUnits="userSpaceOnUse">
<stop stop-color="#006840"/>
<stop offset="0.4" stop-color="#007A48"/>
<stop offset="1" stop-color="#86C440"/>
</linearGradient>
<linearGradient id="paint1_linear_808_13235" x1="102.841" y1="33.7614" x2="112.28" y2="40.3542" gradientUnits="userSpaceOnUse">
<stop stop-color="#006840"/>
<stop offset="0.3" stop-color="#007A48"/>
<stop offset="1" stop-color="#86C440"/>
</linearGradient>
<clipPath id="clip0_808_13235">
<rect width="88" height="30" fill="white" transform="translate(36 33.6165)"/>
</clipPath>
</defs>
</svg>
