<svg width="160" height="97" viewBox="0 0 160 97" fill="none" xmlns="http://www.w3.org/2000/svg">
<rect y="0.616455" width="160" height="96" rx="24" fill="#F1F3F5"/>
<path d="M97.7014 37.5995C95.8887 36.9363 93.9726 36.6036 92.0433 36.6168C85.8043 36.6168 81.3979 39.7724 81.3667 44.3022C81.3278 47.63 84.498 49.5054 86.8961 50.6173C89.3566 51.7605 90.1794 52.4809 90.1716 53.5027C90.156 55.057 88.2063 55.7617 86.3931 55.7617C83.9014 55.7617 82.5405 55.4133 80.4465 54.5402L79.6705 54.1761L78.7853 59.391C80.3022 60.0253 83.0357 60.5695 85.8589 60.6165C92.4918 60.6165 96.8279 57.4805 96.8786 52.661C96.9332 50.0026 95.2175 47.9941 91.6066 46.3341C89.4112 45.2575 88.0503 44.5371 88.0503 43.4448C88.0503 42.4778 89.2163 41.4442 91.6534 41.4442C93.2754 41.4048 94.8873 41.7103 96.3834 42.3407L96.9683 42.603L97.8535 37.5643L97.7014 37.5995ZM113.892 37.0397H109.018C107.501 37.0397 106.358 37.4586 105.695 38.9698L96.321 60.2915H102.954L104.28 56.7953L112.375 56.8031C112.566 57.6214 113.151 60.2915 113.151 60.2915H119L113.892 37.0397ZM72.3942 36.8439H78.7151L74.7611 60.1075H68.448L72.3942 36.8361V36.8439ZM56.3481 49.6659L57.0032 52.8959L63.1799 37.0397H69.8752L59.9278 60.2602H53.2481L47.7889 40.5985C47.7005 40.2743 47.4928 39.9959 47.2079 39.8194C45.2402 38.7989 43.1554 38.0244 41 37.5134L41.0858 37.024H51.2594C52.6398 37.0788 53.7511 37.5134 54.1215 38.9933L56.3442 49.6776L56.3481 49.6659ZM106.093 52.0384L108.612 45.5315C108.581 45.602 109.131 44.1887 109.45 43.3156L109.883 45.324L111.345 52.0345H106.089L106.093 52.0384Z" fill="#0A0849"/>
</svg>
